<svg xmlns="http://www.w3.org/2000/svg" viewBox="0 0 346.86 170.32"><defs><style>.cls-1,.cls-3,.cls-5{fill:none;stroke-miterlimit:10;stroke-width:4px;}.cls-1{stroke:#ff3131;}.cls-2{fill:#ff3131;}.cls-3{stroke:#5071cc;}.cls-4{fill:#5071cc;}.cls-5{stroke:#27a86d;}.cls-6{fill:#27a86d;}</style></defs><g id="Layer_2" data-name="Layer 2"><g id="Layer_2-2" data-name="Layer 2"><line class="cls-1" x1="11.94" y1="55.16" x2="334.92" y2="55.16"/><polygon class="cls-2" points="17.56 62.57 14.41 55.16 17.56 47.76 0 55.16 17.56 62.57"/><polygon class="cls-2" points="329.3 62.57 332.45 55.16 329.3 47.76 346.86 55.16 329.3 62.57"/><line class="cls-3" x1="11.94" y1="117.15" x2="334.92" y2="117.15"/><polygon class="cls-4" points="17.56 124.56 14.41 117.15 17.56 109.75 0 117.15 17.56 124.56"/><polygon class="cls-4" points="329.3 124.56 332.45 117.15 329.3 109.75 346.86 117.15 329.3 124.56"/><line class="cls-5" x1="96.71" y1="161.88" x2="250.15" y2="8.44"/><polygon class="cls-6" points="105.92 163.15 98.46 160.13 95.44 152.67 88.27 170.32 105.92 163.15"/><polygon class="cls-6" points="251.41 17.65 248.4 10.19 240.94 7.18 258.59 0 251.41 17.65"/></g></g></svg>