<svg xmlns="http://www.w3.org/2000/svg" viewBox="0 0 120.47 120.47"><defs><style>.cls-1,.cls-2{fill:none;stroke-miterlimit:10;stroke-width:4px;}.cls-1{stroke:#5071cc;}.cls-2{stroke:#ff3131;}.cls-3{fill:#ff3131;}.cls-4{fill:#5071cc;}</style></defs><g id="Layer_2" data-name="Layer 2"><g id="Layer_2-2" data-name="Layer 2"><polyline class="cls-1" points="50.38 70.09 40.87 60.58 50.82 50.64"/><polyline class="cls-1" points="70.18 50.29 79.68 59.8 69.74 69.74"/><line class="cls-2" x1="8.44" y1="8.44" x2="112.02" y2="112.02"/><polygon class="cls-3" points="7.18 17.65 10.19 10.19 17.65 7.18 0 0 7.18 17.65"/><polygon class="cls-3" points="102.81 113.29 110.28 110.28 113.29 102.81 120.47 120.47 102.81 113.29"/><line class="cls-1" x1="112.02" y1="8.44" x2="8.44" y2="112.02"/><polygon class="cls-4" points="102.81 7.18 110.28 10.19 113.29 17.65 120.47 0 102.81 7.18"/><polygon class="cls-4" points="7.18 102.81 10.19 110.28 17.65 113.29 0 120.47 7.18 102.81"/></g></g></svg>