<svg xmlns="http://www.w3.org/2000/svg" xmlns:xlink="http://www.w3.org/1999/xlink" viewBox="0 0 427.74 82.32"><defs><style>.cls-1{fill:#ffc614;}.cls-2{fill:url(#_ÂÁ_Ï_ÌÌ_È_ËÂÌÚ_75);}.cls-3{fill:url(#_ÂÁ_Ï_ÌÌ_È_ËÂÌÚ_63);}.cls-4{fill:url(#_ÂÁ_Ï_ÌÌ_È_ËÂÌÚ_63-2);}.cls-5{fill:url(#_ÂÁ_Ï_ÌÌ_È_ËÂÌÚ_63-3);}.cls-6{fill:url(#_ÂÁ_Ï_ÌÌ_È_ËÂÌÚ_63-4);}.cls-7{fill:#282a36;}.cls-8{fill:none;stroke:#ff3131;stroke-miterlimit:10;stroke-width:5px;}.cls-9{fill:#ff3131;}</style><linearGradient id="_ÂÁ_Ï_ÌÌ_È_ËÂÌÚ_75" x1="213.87" y1="74.29" x2="213.87" y2="6.29" gradientUnits="userSpaceOnUse"><stop offset="0" stop-color="#ffd400"/><stop offset="0" stop-color="#ffd503"/><stop offset="0.01" stop-color="#ffdb1d"/><stop offset="0.03" stop-color="#ffe031"/><stop offset="0.05" stop-color="#ffe33f"/><stop offset="0.07" stop-color="#ffe547"/><stop offset="0.1" stop-color="#ffe64a"/><stop offset="0.5" stop-color="#ffd400"/><stop offset="0.63" stop-color="#ffd503"/><stop offset="0.72" stop-color="#ffd70b"/><stop offset="0.78" stop-color="#ffda19"/><stop offset="0.84" stop-color="#ffdf2d"/><stop offset="0.9" stop-color="#ffe547"/><stop offset="0.9" stop-color="#ffe64a"/><stop offset="0.93" stop-color="#ffe547"/><stop offset="0.95" stop-color="#ffe33f"/><stop offset="0.97" stop-color="#ffe031"/><stop offset="0.99" stop-color="#ffdb1d"/><stop offset="1" stop-color="#ffd503"/><stop offset="1" stop-color="#ffd400"/></linearGradient><linearGradient id="_ÂÁ_Ï_ÌÌ_È_ËÂÌÚ_63" x1="30.87" y1="47.29" x2="30.87" y2="40.79" gradientUnits="userSpaceOnUse"><stop offset="0" stop-color="#ffe64a"/><stop offset="0.01" stop-color="#ffe649"/><stop offset="0.45" stop-color="#ffdc21"/><stop offset="0.79" stop-color="#ffd609"/><stop offset="1" stop-color="#ffd400"/></linearGradient><linearGradient id="_ÂÁ_Ï_ÌÌ_È_ËÂÌÚ_63-2" x1="30.87" y1="-664.25" x2="30.87" y2="-670.75" gradientTransform="matrix(1, 0, 0, -1, 0, -630.96)" xlink:href="#_ÂÁ_Ï_ÌÌ_È_ËÂÌÚ_63"/><linearGradient id="_ÂÁ_Ï_ÌÌ_È_ËÂÌÚ_63-3" x1="213.87" y1="6.29" x2="213.87" y2="15.29" xlink:href="#_ÂÁ_Ï_ÌÌ_È_ËÂÌÚ_63"/><linearGradient id="_ÂÁ_Ï_ÌÌ_È_ËÂÌÚ_63-4" x1="213.87" y1="-631.75" x2="213.87" y2="-622.75" gradientTransform="matrix(1, 0, 0, -1, 0, -557.46)" xlink:href="#_ÂÁ_Ï_ÌÌ_È_ËÂÌÚ_63"/></defs><g id="Layer_2" data-name="Layer 2"><g id="Layer_2-2" data-name="Layer 2"><g id="Ruler"><path class="cls-1" d="M407.87,5.29h-388a8,8,0,0,0-8,8v54a8,8,0,0,0,8,8h388a8,8,0,0,0,8-8v-54A8,8,0,0,0,407.87,5.29Zm-377,40a5,5,0,1,1,5-5A5,5,0,0,1,30.87,45.29Z"/><path class="cls-2" d="M407.87,6.29h-388a8,8,0,0,0-8,8v52a8,8,0,0,0,8,8h388a8,8,0,0,0,8-8v-52A8,8,0,0,0,407.87,6.29Zm-377,40a6,6,0,1,1,6-6A6,6,0,0,1,30.87,46.29Z"/><path class="cls-3" d="M30.87,47.29a6,6,0,0,0,6-6c0-.17,0-.34,0-.5a6,6,0,0,1-12,0c0,.16,0,.33,0,.5A6,6,0,0,0,30.87,47.29Z"/><path class="cls-4" d="M30.87,33.29a6,6,0,0,1,6,6c0,.16,0,.33,0,.5a6,6,0,0,0-12,0c0-.17,0-.34,0-.5A6,6,0,0,1,30.87,33.29Z"/><path class="cls-5" d="M407.87,6.29h-388a8,8,0,0,0-8,8v1a8,8,0,0,1,8-8h388a8,8,0,0,1,8,8v-1A8,8,0,0,0,407.87,6.29Z"/><path class="cls-6" d="M407.87,74.29h-388a8,8,0,0,1-8-8v-1a8,8,0,0,0,8,8h388a8,8,0,0,0,8-8v1A8,8,0,0,1,407.87,74.29Z"/><g id="Scale"><g id="Centimeters"><path class="cls-7" d="M381.82,19.54a.25.25,0,0,1-.25-.25v-12a.25.25,0,0,1,.5,0v12A.25.25,0,0,1,381.82,19.54Z"/><path class="cls-7" d="M362.82,19.54a.25.25,0,0,1-.25-.25v-12a.25.25,0,0,1,.5,0v12A.25.25,0,0,1,362.82,19.54Z"/><path class="cls-7" d="M400.82,19.54a.25.25,0,0,1-.25-.25v-12a.25.25,0,0,1,.5,0v12A.25.25,0,0,1,400.82,19.54Z"/><path class="cls-7" d="M343.82,19.54a.25.25,0,0,1-.25-.25v-12a.25.25,0,0,1,.5,0v12A.25.25,0,0,1,343.82,19.54Z"/><path class="cls-7" d="M324.82,19.54a.25.25,0,0,1-.25-.25v-12a.25.25,0,0,1,.5,0v12A.25.25,0,0,1,324.82,19.54Z"/><path class="cls-7" d="M305.82,19.54a.25.25,0,0,1-.25-.25v-12a.25.25,0,0,1,.5,0v12A.25.25,0,0,1,305.82,19.54Z"/><path class="cls-7" d="M286.82,19.54a.25.25,0,0,1-.25-.25v-12a.25.25,0,0,1,.5,0v12A.25.25,0,0,1,286.82,19.54Z"/><path class="cls-7" d="M267.82,19.54a.25.25,0,0,1-.25-.25v-12a.25.25,0,0,1,.5,0v12A.25.25,0,0,1,267.82,19.54Z"/><path class="cls-7" d="M248.82,19.54a.25.25,0,0,1-.25-.25v-12a.25.25,0,0,1,.5,0v12A.25.25,0,0,1,248.82,19.54Z"/><path class="cls-7" d="M229.82,19.54a.25.25,0,0,1-.25-.25v-12a.25.25,0,1,1,.5,0v12A.25.25,0,0,1,229.82,19.54Z"/><path class="cls-7" d="M210.82,19.54a.25.25,0,0,1-.25-.25v-12a.25.25,0,1,1,.5,0v12A.25.25,0,0,1,210.82,19.54Z"/><path class="cls-7" d="M191.82,19.54a.25.25,0,0,1-.25-.25v-12a.25.25,0,1,1,.5,0v12A.25.25,0,0,1,191.82,19.54Z"/><path class="cls-7" d="M172.82,19.54a.25.25,0,0,1-.25-.25v-12a.25.25,0,1,1,.5,0v12A.25.25,0,0,1,172.82,19.54Z"/><path class="cls-7" d="M153.82,19.54a.25.25,0,0,1-.25-.25v-12a.25.25,0,1,1,.5,0v12A.25.25,0,0,1,153.82,19.54Z"/><path class="cls-7" d="M134.82,19.54a.25.25,0,0,1-.25-.25v-12a.25.25,0,1,1,.5,0v12A.25.25,0,0,1,134.82,19.54Z"/><path class="cls-7" d="M115.82,19.54a.25.25,0,0,1-.25-.25v-12a.25.25,0,0,1,.5,0v12A.25.25,0,0,1,115.82,19.54Z"/><path class="cls-7" d="M96.82,19.54a.25.25,0,0,1-.25-.25v-12a.25.25,0,0,1,.5,0v12A.25.25,0,0,1,96.82,19.54Z"/><path class="cls-7" d="M77.82,19.54a.25.25,0,0,1-.25-.25v-12a.25.25,0,0,1,.5,0v12A.25.25,0,0,1,77.82,19.54Z"/><path class="cls-7" d="M58.82,19.54a.25.25,0,0,1-.25-.25v-12a.25.25,0,1,1,.5,0v12A.25.25,0,0,1,58.82,19.54Z"/><path class="cls-7" d="M39.82,19.54a.25.25,0,0,1-.25-.25v-12a.25.25,0,1,1,.5,0v12A.25.25,0,0,1,39.82,19.54Z"/><path class="cls-7" d="M20.82,19.54a.25.25,0,0,1-.25-.25v-12a.25.25,0,1,1,.5,0v12A.25.25,0,0,1,20.82,19.54Z"/><path class="cls-7" d="M22.72,13.54a.25.25,0,0,1-.25-.25v-6a.25.25,0,1,1,.5,0v6A.25.25,0,0,1,22.72,13.54Z"/><path class="cls-7" d="M24.62,13.54a.25.25,0,0,1-.25-.25v-6a.25.25,0,1,1,.5,0v6A.25.25,0,0,1,24.62,13.54Z"/><path class="cls-7" d="M26.52,13.54a.25.25,0,0,1-.25-.25v-6a.25.25,0,0,1,.5,0v6A.25.25,0,0,1,26.52,13.54Z"/><path class="cls-7" d="M28.42,13.54a.25.25,0,0,1-.25-.25v-6a.25.25,0,1,1,.5,0v6A.25.25,0,0,1,28.42,13.54Z"/><path class="cls-7" d="M30.32,19.54a.25.25,0,0,1-.25-.25v-12a.25.25,0,1,1,.5,0v12A.25.25,0,0,1,30.32,19.54Z"/><path class="cls-7" d="M32.22,13.54a.25.25,0,0,1-.25-.25v-6a.25.25,0,1,1,.5,0v6A.25.25,0,0,1,32.22,13.54Z"/><path class="cls-7" d="M34.12,13.54a.25.25,0,0,1-.25-.25v-6a.25.25,0,1,1,.5,0v6A.25.25,0,0,1,34.12,13.54Z"/><path class="cls-7" d="M36,13.54a.25.25,0,0,1-.25-.25v-6a.25.25,0,1,1,.5,0v6A.25.25,0,0,1,36,13.54Z"/><path class="cls-7" d="M37.92,13.54a.25.25,0,0,1-.25-.25v-6a.25.25,0,1,1,.5,0v6A.25.25,0,0,1,37.92,13.54Z"/><path class="cls-7" d="M41.72,13.54a.25.25,0,0,1-.25-.25v-6a.25.25,0,1,1,.5,0v6A.25.25,0,0,1,41.72,13.54Z"/><path class="cls-7" d="M43.62,13.54a.25.25,0,0,1-.25-.25v-6a.25.25,0,1,1,.5,0v6A.25.25,0,0,1,43.62,13.54Z"/><path class="cls-7" d="M45.52,13.54a.25.25,0,0,1-.25-.25v-6a.25.25,0,1,1,.5,0v6A.25.25,0,0,1,45.52,13.54Z"/><path class="cls-7" d="M47.42,13.54a.25.25,0,0,1-.25-.25v-6a.25.25,0,1,1,.5,0v6A.25.25,0,0,1,47.42,13.54Z"/><path class="cls-7" d="M49.32,19.54a.25.25,0,0,1-.25-.25v-12a.25.25,0,1,1,.5,0v12A.25.25,0,0,1,49.32,19.54Z"/><path class="cls-7" d="M51.22,13.54a.25.25,0,0,1-.25-.25v-6a.25.25,0,1,1,.5,0v6A.25.25,0,0,1,51.22,13.54Z"/><path class="cls-7" d="M53.12,13.54a.25.25,0,0,1-.25-.25v-6a.25.25,0,1,1,.5,0v6A.25.25,0,0,1,53.12,13.54Z"/><path class="cls-7" d="M55,13.54a.25.25,0,0,1-.25-.25v-6a.25.25,0,1,1,.5,0v6A.25.25,0,0,1,55,13.54Z"/><path class="cls-7" d="M56.92,13.54a.25.25,0,0,1-.25-.25v-6a.25.25,0,0,1,.5,0v6A.25.25,0,0,1,56.92,13.54Z"/><path class="cls-7" d="M60.72,13.54a.25.25,0,0,1-.25-.25v-6a.25.25,0,0,1,.5,0v6A.25.25,0,0,1,60.72,13.54Z"/><path class="cls-7" d="M62.62,13.54a.25.25,0,0,1-.25-.25v-6a.25.25,0,1,1,.5,0v6A.25.25,0,0,1,62.62,13.54Z"/><path class="cls-7" d="M64.52,13.54a.25.25,0,0,1-.25-.25v-6a.25.25,0,0,1,.5,0v6A.25.25,0,0,1,64.52,13.54Z"/><path class="cls-7" d="M66.42,13.54a.25.25,0,0,1-.25-.25v-6a.25.25,0,0,1,.5,0v6A.25.25,0,0,1,66.42,13.54Z"/><path class="cls-7" d="M68.32,19.54a.25.25,0,0,1-.25-.25v-12a.25.25,0,0,1,.5,0v12A.25.25,0,0,1,68.32,19.54Z"/><path class="cls-7" d="M70.22,13.54a.25.25,0,0,1-.25-.25v-6a.25.25,0,0,1,.5,0v6A.25.25,0,0,1,70.22,13.54Z"/><path class="cls-7" d="M72.12,13.54a.25.25,0,0,1-.25-.25v-6a.25.25,0,0,1,.5,0v6A.25.25,0,0,1,72.12,13.54Z"/><path class="cls-7" d="M74,13.54a.25.25,0,0,1-.25-.25v-6a.25.25,0,0,1,.5,0v6A.25.25,0,0,1,74,13.54Z"/><path class="cls-7" d="M75.92,13.54a.25.25,0,0,1-.25-.25v-6a.25.25,0,0,1,.5,0v6A.25.25,0,0,1,75.92,13.54Z"/><path class="cls-7" d="M79.72,13.54a.25.25,0,0,1-.25-.25v-6a.25.25,0,0,1,.5,0v6A.25.25,0,0,1,79.72,13.54Z"/><path class="cls-7" d="M81.62,13.54a.25.25,0,0,1-.25-.25v-6a.25.25,0,0,1,.5,0v6A.25.25,0,0,1,81.62,13.54Z"/><path class="cls-7" d="M83.52,13.54a.25.25,0,0,1-.25-.25v-6a.25.25,0,0,1,.5,0v6A.25.25,0,0,1,83.52,13.54Z"/><path class="cls-7" d="M85.42,13.54a.25.25,0,0,1-.25-.25v-6a.25.25,0,0,1,.5,0v6A.25.25,0,0,1,85.42,13.54Z"/><path class="cls-7" d="M87.32,19.54a.25.25,0,0,1-.25-.25v-12a.25.25,0,0,1,.5,0v12A.25.25,0,0,1,87.32,19.54Z"/><path class="cls-7" d="M89.22,13.54a.25.25,0,0,1-.25-.25v-6a.25.25,0,0,1,.5,0v6A.25.25,0,0,1,89.22,13.54Z"/><path class="cls-7" d="M91.12,13.54a.25.25,0,0,1-.25-.25v-6a.25.25,0,0,1,.5,0v6A.25.25,0,0,1,91.12,13.54Z"/><path class="cls-7" d="M93,13.54a.25.25,0,0,1-.25-.25v-6a.25.25,0,0,1,.5,0v6A.25.25,0,0,1,93,13.54Z"/><path class="cls-7" d="M94.92,13.54a.25.25,0,0,1-.25-.25v-6a.25.25,0,0,1,.5,0v6A.25.25,0,0,1,94.92,13.54Z"/><path class="cls-7" d="M98.72,13.54a.25.25,0,0,1-.25-.25v-6a.25.25,0,0,1,.5,0v6A.25.25,0,0,1,98.72,13.54Z"/><path class="cls-7" d="M100.62,13.54a.25.25,0,0,1-.25-.25v-6a.25.25,0,0,1,.5,0v6A.25.25,0,0,1,100.62,13.54Z"/><path class="cls-7" d="M102.52,13.54a.25.25,0,0,1-.25-.25v-6a.25.25,0,0,1,.5,0v6A.25.25,0,0,1,102.52,13.54Z"/><path class="cls-7" d="M104.42,13.54a.25.25,0,0,1-.25-.25v-6a.25.25,0,0,1,.5,0v6A.25.25,0,0,1,104.42,13.54Z"/><path class="cls-7" d="M106.32,19.54a.25.25,0,0,1-.25-.25v-12a.25.25,0,0,1,.5,0v12A.25.25,0,0,1,106.32,19.54Z"/><path class="cls-7" d="M108.22,13.54a.25.25,0,0,1-.25-.25v-6a.25.25,0,0,1,.5,0v6A.25.25,0,0,1,108.22,13.54Z"/><path class="cls-7" d="M110.12,13.54a.25.25,0,0,1-.25-.25v-6a.25.25,0,0,1,.5,0v6A.25.25,0,0,1,110.12,13.54Z"/><path class="cls-7" d="M112,13.54a.25.25,0,0,1-.25-.25v-6a.25.25,0,0,1,.5,0v6A.25.25,0,0,1,112,13.54Z"/><path class="cls-7" d="M113.92,13.54a.25.25,0,0,1-.25-.25v-6a.25.25,0,0,1,.5,0v6A.25.25,0,0,1,113.92,13.54Z"/><path class="cls-7" d="M117.72,13.54a.25.25,0,0,1-.25-.25v-6a.25.25,0,0,1,.5,0v6A.25.25,0,0,1,117.72,13.54Z"/><path class="cls-7" d="M119.62,13.54a.25.25,0,0,1-.25-.25v-6a.25.25,0,0,1,.5,0v6A.25.25,0,0,1,119.62,13.54Z"/><path class="cls-7" d="M121.52,13.54a.25.25,0,0,1-.25-.25v-6a.25.25,0,0,1,.5,0v6A.25.25,0,0,1,121.52,13.54Z"/><path class="cls-7" d="M123.42,13.54a.25.25,0,0,1-.25-.25v-6a.25.25,0,0,1,.5,0v6A.25.25,0,0,1,123.42,13.54Z"/><path class="cls-7" d="M125.32,19.54a.25.25,0,0,1-.25-.25v-12a.25.25,0,1,1,.5,0v12A.25.25,0,0,1,125.32,19.54Z"/><path class="cls-7" d="M127.22,13.54a.25.25,0,0,1-.25-.25v-6a.25.25,0,1,1,.5,0v6A.25.25,0,0,1,127.22,13.54Z"/><path class="cls-7" d="M129.12,13.54a.25.25,0,0,1-.25-.25v-6a.25.25,0,1,1,.5,0v6A.25.25,0,0,1,129.12,13.54Z"/><path class="cls-7" d="M131,13.54a.25.25,0,0,1-.25-.25v-6a.25.25,0,1,1,.5,0v6A.25.25,0,0,1,131,13.54Z"/><path class="cls-7" d="M132.92,13.54a.25.25,0,0,1-.25-.25v-6a.25.25,0,1,1,.5,0v6A.25.25,0,0,1,132.92,13.54Z"/><path class="cls-7" d="M136.72,13.54a.25.25,0,0,1-.25-.25v-6a.25.25,0,1,1,.5,0v6A.25.25,0,0,1,136.72,13.54Z"/><path class="cls-7" d="M138.62,13.54a.25.25,0,0,1-.25-.25v-6a.25.25,0,1,1,.5,0v6A.25.25,0,0,1,138.62,13.54Z"/><path class="cls-7" d="M140.52,13.54a.25.25,0,0,1-.25-.25v-6a.25.25,0,1,1,.5,0v6A.25.25,0,0,1,140.52,13.54Z"/><path class="cls-7" d="M142.42,13.54a.25.25,0,0,1-.25-.25v-6a.25.25,0,1,1,.5,0v6A.25.25,0,0,1,142.42,13.54Z"/><path class="cls-7" d="M144.32,19.54a.25.25,0,0,1-.25-.25v-12a.25.25,0,1,1,.5,0v12A.25.25,0,0,1,144.32,19.54Z"/><path class="cls-7" d="M146.22,13.54a.25.25,0,0,1-.25-.25v-6a.25.25,0,1,1,.5,0v6A.25.25,0,0,1,146.22,13.54Z"/><path class="cls-7" d="M148.12,13.54a.25.25,0,0,1-.25-.25v-6a.25.25,0,1,1,.5,0v6A.25.25,0,0,1,148.12,13.54Z"/><path class="cls-7" d="M150,13.54a.25.25,0,0,1-.25-.25v-6a.25.25,0,1,1,.5,0v6A.25.25,0,0,1,150,13.54Z"/><path class="cls-7" d="M151.92,13.54a.25.25,0,0,1-.25-.25v-6a.25.25,0,1,1,.5,0v6A.25.25,0,0,1,151.92,13.54Z"/><path class="cls-7" d="M155.72,13.54a.25.25,0,0,1-.25-.25v-6a.25.25,0,1,1,.5,0v6A.25.25,0,0,1,155.72,13.54Z"/><path class="cls-7" d="M157.62,13.54a.25.25,0,0,1-.25-.25v-6a.25.25,0,1,1,.5,0v6A.25.25,0,0,1,157.62,13.54Z"/><path class="cls-7" d="M159.52,13.54a.25.25,0,0,1-.25-.25v-6a.25.25,0,1,1,.5,0v6A.25.25,0,0,1,159.52,13.54Z"/><path class="cls-7" d="M161.42,13.54a.25.25,0,0,1-.25-.25v-6a.25.25,0,1,1,.5,0v6A.25.25,0,0,1,161.42,13.54Z"/><path class="cls-7" d="M163.32,19.54a.25.25,0,0,1-.25-.25v-12a.25.25,0,1,1,.5,0v12A.25.25,0,0,1,163.32,19.54Z"/><path class="cls-7" d="M165.22,13.54a.25.25,0,0,1-.25-.25v-6a.25.25,0,1,1,.5,0v6A.25.25,0,0,1,165.22,13.54Z"/><path class="cls-7" d="M167.12,13.54a.25.25,0,0,1-.25-.25v-6a.25.25,0,1,1,.5,0v6A.25.25,0,0,1,167.12,13.54Z"/><path class="cls-7" d="M169,13.54a.25.25,0,0,1-.25-.25v-6a.25.25,0,1,1,.5,0v6A.25.25,0,0,1,169,13.54Z"/><path class="cls-7" d="M170.92,13.54a.25.25,0,0,1-.25-.25v-6a.25.25,0,1,1,.5,0v6A.25.25,0,0,1,170.92,13.54Z"/><path class="cls-7" d="M174.72,13.54a.25.25,0,0,1-.25-.25v-6a.25.25,0,1,1,.5,0v6A.25.25,0,0,1,174.72,13.54Z"/><path class="cls-7" d="M176.62,13.54a.25.25,0,0,1-.25-.25v-6a.25.25,0,1,1,.5,0v6A.25.25,0,0,1,176.62,13.54Z"/><path class="cls-7" d="M178.52,13.54a.25.25,0,0,1-.25-.25v-6a.25.25,0,1,1,.5,0v6A.25.25,0,0,1,178.52,13.54Z"/><path class="cls-7" d="M180.42,13.54a.25.25,0,0,1-.25-.25v-6a.25.25,0,1,1,.5,0v6A.25.25,0,0,1,180.42,13.54Z"/><path class="cls-7" d="M182.32,19.54a.25.25,0,0,1-.25-.25v-12a.25.25,0,1,1,.5,0v12A.25.25,0,0,1,182.32,19.54Z"/><path class="cls-7" d="M184.22,13.54a.25.25,0,0,1-.25-.25v-6a.25.25,0,1,1,.5,0v6A.25.25,0,0,1,184.22,13.54Z"/><path class="cls-7" d="M186.12,13.54a.25.25,0,0,1-.25-.25v-6a.25.25,0,1,1,.5,0v6A.25.25,0,0,1,186.12,13.54Z"/><path class="cls-7" d="M188,13.54a.25.25,0,0,1-.25-.25v-6a.25.25,0,1,1,.5,0v6A.25.25,0,0,1,188,13.54Z"/><path class="cls-7" d="M189.92,13.54a.25.25,0,0,1-.25-.25v-6a.25.25,0,1,1,.5,0v6A.25.25,0,0,1,189.92,13.54Z"/><path class="cls-7" d="M193.72,13.54a.25.25,0,0,1-.25-.25v-6a.25.25,0,1,1,.5,0v6A.25.25,0,0,1,193.72,13.54Z"/><path class="cls-7" d="M195.62,13.54a.25.25,0,0,1-.25-.25v-6a.25.25,0,1,1,.5,0v6A.25.25,0,0,1,195.62,13.54Z"/><path class="cls-7" d="M197.52,13.54a.25.25,0,0,1-.25-.25v-6a.25.25,0,1,1,.5,0v6A.25.25,0,0,1,197.52,13.54Z"/><path class="cls-7" d="M199.42,13.54a.25.25,0,0,1-.25-.25v-6a.25.25,0,1,1,.5,0v6A.25.25,0,0,1,199.42,13.54Z"/><path class="cls-7" d="M201.32,19.54a.25.25,0,0,1-.25-.25v-12a.25.25,0,1,1,.5,0v12A.25.25,0,0,1,201.32,19.54Z"/><path class="cls-7" d="M203.22,13.54a.25.25,0,0,1-.25-.25v-6a.25.25,0,1,1,.5,0v6A.25.25,0,0,1,203.22,13.54Z"/><path class="cls-7" d="M205.12,13.54a.25.25,0,0,1-.25-.25v-6a.25.25,0,1,1,.5,0v6A.25.25,0,0,1,205.12,13.54Z"/><path class="cls-7" d="M207,13.54a.25.25,0,0,1-.25-.25v-6a.25.25,0,1,1,.5,0v6A.25.25,0,0,1,207,13.54Z"/><path class="cls-7" d="M208.92,13.54a.25.25,0,0,1-.25-.25v-6a.25.25,0,1,1,.5,0v6A.25.25,0,0,1,208.92,13.54Z"/><path class="cls-7" d="M212.72,13.54a.25.25,0,0,1-.25-.25v-6a.25.25,0,1,1,.5,0v6A.25.25,0,0,1,212.72,13.54Z"/><path class="cls-7" d="M214.62,13.54a.25.25,0,0,1-.25-.25v-6a.25.25,0,1,1,.5,0v6A.25.25,0,0,1,214.62,13.54Z"/><path class="cls-7" d="M216.52,13.54a.25.25,0,0,1-.25-.25v-6a.25.25,0,1,1,.5,0v6A.25.25,0,0,1,216.52,13.54Z"/><path class="cls-7" d="M218.42,13.54a.25.25,0,0,1-.25-.25v-6a.25.25,0,1,1,.5,0v6A.25.25,0,0,1,218.42,13.54Z"/><path class="cls-7" d="M220.32,19.54a.25.25,0,0,1-.25-.25v-12a.25.25,0,1,1,.5,0v12A.25.25,0,0,1,220.32,19.54Z"/><path class="cls-7" d="M222.22,13.54a.25.25,0,0,1-.25-.25v-6a.25.25,0,1,1,.5,0v6A.25.25,0,0,1,222.22,13.54Z"/><path class="cls-7" d="M224.12,13.54a.25.25,0,0,1-.25-.25v-6a.25.25,0,1,1,.5,0v6A.25.25,0,0,1,224.12,13.54Z"/><path class="cls-7" d="M226,13.54a.25.25,0,0,1-.25-.25v-6a.25.25,0,1,1,.5,0v6A.25.25,0,0,1,226,13.54Z"/><path class="cls-7" d="M227.92,13.54a.25.25,0,0,1-.25-.25v-6a.25.25,0,1,1,.5,0v6A.25.25,0,0,1,227.92,13.54Z"/><path class="cls-7" d="M231.72,13.54a.25.25,0,0,1-.25-.25v-6a.25.25,0,1,1,.5,0v6A.25.25,0,0,1,231.72,13.54Z"/><path class="cls-7" d="M233.62,13.54a.25.25,0,0,1-.25-.25v-6a.25.25,0,1,1,.5,0v6A.25.25,0,0,1,233.62,13.54Z"/><path class="cls-7" d="M235.52,13.54a.25.25,0,0,1-.25-.25v-6a.25.25,0,1,1,.5,0v6A.25.25,0,0,1,235.52,13.54Z"/><path class="cls-7" d="M237.42,13.54a.25.25,0,0,1-.25-.25v-6a.25.25,0,1,1,.5,0v6A.25.25,0,0,1,237.42,13.54Z"/><path class="cls-7" d="M239.32,19.54a.25.25,0,0,1-.25-.25v-12a.25.25,0,1,1,.5,0v12A.25.25,0,0,1,239.32,19.54Z"/><path class="cls-7" d="M241.22,13.54a.25.25,0,0,1-.25-.25v-6a.25.25,0,1,1,.5,0v6A.25.25,0,0,1,241.22,13.54Z"/><path class="cls-7" d="M243.12,13.54a.25.25,0,0,1-.25-.25v-6a.25.25,0,1,1,.5,0v6A.25.25,0,0,1,243.12,13.54Z"/><path class="cls-7" d="M245,13.54a.25.25,0,0,1-.25-.25v-6a.25.25,0,1,1,.5,0v6A.25.25,0,0,1,245,13.54Z"/><path class="cls-7" d="M246.92,13.54a.25.25,0,0,1-.25-.25v-6a.25.25,0,1,1,.5,0v6A.25.25,0,0,1,246.92,13.54Z"/><path class="cls-7" d="M250.72,13.54a.25.25,0,0,1-.25-.25v-6a.25.25,0,1,1,.5,0v6A.25.25,0,0,1,250.72,13.54Z"/><path class="cls-7" d="M252.62,13.54a.25.25,0,0,1-.25-.25v-6a.25.25,0,0,1,.5,0v6A.25.25,0,0,1,252.62,13.54Z"/><path class="cls-7" d="M254.52,13.54a.25.25,0,0,1-.25-.25v-6a.25.25,0,1,1,.5,0v6A.25.25,0,0,1,254.52,13.54Z"/><path class="cls-7" d="M256.42,13.54a.25.25,0,0,1-.25-.25v-6a.25.25,0,0,1,.5,0v6A.25.25,0,0,1,256.42,13.54Z"/><path class="cls-7" d="M258.32,19.54a.25.25,0,0,1-.25-.25v-12a.25.25,0,0,1,.5,0v12A.25.25,0,0,1,258.32,19.54Z"/><path class="cls-7" d="M260.22,13.54a.25.25,0,0,1-.25-.25v-6a.25.25,0,0,1,.5,0v6A.25.25,0,0,1,260.22,13.54Z"/><path class="cls-7" d="M262.12,13.54a.25.25,0,0,1-.25-.25v-6a.25.25,0,0,1,.5,0v6A.25.25,0,0,1,262.12,13.54Z"/><path class="cls-7" d="M264,13.54a.25.25,0,0,1-.25-.25v-6a.25.25,0,0,1,.5,0v6A.25.25,0,0,1,264,13.54Z"/><path class="cls-7" d="M265.92,13.54a.25.25,0,0,1-.25-.25v-6a.25.25,0,0,1,.5,0v6A.25.25,0,0,1,265.92,13.54Z"/><path class="cls-7" d="M269.72,13.54a.25.25,0,0,1-.25-.25v-6a.25.25,0,0,1,.5,0v6A.25.25,0,0,1,269.72,13.54Z"/><path class="cls-7" d="M271.62,13.54a.25.25,0,0,1-.25-.25v-6a.25.25,0,0,1,.5,0v6A.25.25,0,0,1,271.62,13.54Z"/><path class="cls-7" d="M273.52,13.54a.25.25,0,0,1-.25-.25v-6a.25.25,0,0,1,.5,0v6A.25.25,0,0,1,273.52,13.54Z"/><path class="cls-7" d="M275.42,13.54a.25.25,0,0,1-.25-.25v-6a.25.25,0,0,1,.5,0v6A.25.25,0,0,1,275.42,13.54Z"/><path class="cls-7" d="M277.32,19.54a.25.25,0,0,1-.25-.25v-12a.25.25,0,0,1,.5,0v12A.25.25,0,0,1,277.32,19.54Z"/><path class="cls-7" d="M279.22,13.54a.25.25,0,0,1-.25-.25v-6a.25.25,0,0,1,.5,0v6A.25.25,0,0,1,279.22,13.54Z"/><path class="cls-7" d="M281.12,13.54a.25.25,0,0,1-.25-.25v-6a.25.25,0,0,1,.5,0v6A.25.25,0,0,1,281.12,13.54Z"/><path class="cls-7" d="M283,13.54a.25.25,0,0,1-.25-.25v-6a.25.25,0,0,1,.5,0v6A.25.25,0,0,1,283,13.54Z"/><path class="cls-7" d="M284.92,13.54a.25.25,0,0,1-.25-.25v-6a.25.25,0,0,1,.5,0v6A.25.25,0,0,1,284.92,13.54Z"/><path class="cls-7" d="M288.72,13.54a.25.25,0,0,1-.25-.25v-6a.25.25,0,0,1,.5,0v6A.25.25,0,0,1,288.72,13.54Z"/><path class="cls-7" d="M290.62,13.54a.25.25,0,0,1-.25-.25v-6a.25.25,0,0,1,.5,0v6A.25.25,0,0,1,290.62,13.54Z"/><path class="cls-7" d="M292.52,13.54a.25.25,0,0,1-.25-.25v-6a.25.25,0,0,1,.5,0v6A.25.25,0,0,1,292.52,13.54Z"/><path class="cls-7" d="M294.42,13.54a.25.25,0,0,1-.25-.25v-6a.25.25,0,0,1,.5,0v6A.25.25,0,0,1,294.42,13.54Z"/><path class="cls-7" d="M296.32,19.54a.25.25,0,0,1-.25-.25v-12a.25.25,0,0,1,.5,0v12A.25.25,0,0,1,296.32,19.54Z"/><path class="cls-7" d="M298.22,13.54a.25.25,0,0,1-.25-.25v-6a.25.25,0,0,1,.5,0v6A.25.25,0,0,1,298.22,13.54Z"/><path class="cls-7" d="M300.12,13.54a.25.25,0,0,1-.25-.25v-6a.25.25,0,0,1,.5,0v6A.25.25,0,0,1,300.12,13.54Z"/><path class="cls-7" d="M302,13.54a.25.25,0,0,1-.25-.25v-6a.25.25,0,0,1,.5,0v6A.25.25,0,0,1,302,13.54Z"/><path class="cls-7" d="M303.92,13.54a.25.25,0,0,1-.25-.25v-6a.25.25,0,0,1,.5,0v6A.25.25,0,0,1,303.92,13.54Z"/><path class="cls-7" d="M307.72,13.54a.25.25,0,0,1-.25-.25v-6a.25.25,0,0,1,.5,0v6A.25.25,0,0,1,307.72,13.54Z"/><path class="cls-7" d="M309.62,13.54a.25.25,0,0,1-.25-.25v-6a.25.25,0,0,1,.5,0v6A.25.25,0,0,1,309.62,13.54Z"/><path class="cls-7" d="M311.52,13.54a.25.25,0,0,1-.25-.25v-6a.25.25,0,0,1,.5,0v6A.25.25,0,0,1,311.52,13.54Z"/><path class="cls-7" d="M313.42,13.54a.25.25,0,0,1-.25-.25v-6a.25.25,0,0,1,.5,0v6A.25.25,0,0,1,313.42,13.54Z"/><path class="cls-7" d="M315.32,19.54a.25.25,0,0,1-.25-.25v-12a.25.25,0,0,1,.5,0v12A.25.25,0,0,1,315.32,19.54Z"/><path class="cls-7" d="M317.22,13.54a.25.25,0,0,1-.25-.25v-6a.25.25,0,0,1,.5,0v6A.25.25,0,0,1,317.22,13.54Z"/><path class="cls-7" d="M319.12,13.54a.25.25,0,0,1-.25-.25v-6a.25.25,0,0,1,.5,0v6A.25.25,0,0,1,319.12,13.54Z"/><path class="cls-7" d="M321,13.54a.25.25,0,0,1-.25-.25v-6a.25.25,0,0,1,.5,0v6A.25.25,0,0,1,321,13.54Z"/><path class="cls-7" d="M322.92,13.54a.25.25,0,0,1-.25-.25v-6a.25.25,0,0,1,.5,0v6A.25.25,0,0,1,322.92,13.54Z"/><path class="cls-7" d="M326.72,13.54a.25.25,0,0,1-.25-.25v-6a.25.25,0,0,1,.5,0v6A.25.25,0,0,1,326.72,13.54Z"/><path class="cls-7" d="M328.62,13.54a.25.25,0,0,1-.25-.25v-6a.25.25,0,0,1,.5,0v6A.25.25,0,0,1,328.62,13.54Z"/><path class="cls-7" d="M330.52,13.54a.25.25,0,0,1-.25-.25v-6a.25.25,0,0,1,.5,0v6A.25.25,0,0,1,330.52,13.54Z"/><path class="cls-7" d="M332.42,13.54a.25.25,0,0,1-.25-.25v-6a.25.25,0,0,1,.5,0v6A.25.25,0,0,1,332.42,13.54Z"/><path class="cls-7" d="M334.32,19.54a.25.25,0,0,1-.25-.25v-12a.25.25,0,0,1,.5,0v12A.25.25,0,0,1,334.32,19.54Z"/><path class="cls-7" d="M336.22,13.54a.25.25,0,0,1-.25-.25v-6a.25.25,0,0,1,.5,0v6A.25.25,0,0,1,336.22,13.54Z"/><path class="cls-7" d="M338.12,13.54a.25.25,0,0,1-.25-.25v-6a.25.25,0,0,1,.5,0v6A.25.25,0,0,1,338.12,13.54Z"/><path class="cls-7" d="M340,13.54a.25.25,0,0,1-.25-.25v-6a.25.25,0,0,1,.5,0v6A.25.25,0,0,1,340,13.54Z"/><path class="cls-7" d="M341.92,13.54a.25.25,0,0,1-.25-.25v-6a.25.25,0,0,1,.5,0v6A.25.25,0,0,1,341.92,13.54Z"/><path class="cls-7" d="M345.72,13.54a.25.25,0,0,1-.25-.25v-6a.25.25,0,0,1,.5,0v6A.25.25,0,0,1,345.72,13.54Z"/><path class="cls-7" d="M347.62,13.54a.25.25,0,0,1-.25-.25v-6a.25.25,0,0,1,.5,0v6A.25.25,0,0,1,347.62,13.54Z"/><path class="cls-7" d="M349.52,13.54a.25.25,0,0,1-.25-.25v-6a.25.25,0,0,1,.5,0v6A.25.25,0,0,1,349.52,13.54Z"/><path class="cls-7" d="M351.42,13.54a.25.25,0,0,1-.25-.25v-6a.25.25,0,0,1,.5,0v6A.25.25,0,0,1,351.42,13.54Z"/><path class="cls-7" d="M353.32,19.54a.25.25,0,0,1-.25-.25v-12a.25.25,0,0,1,.5,0v12A.25.25,0,0,1,353.32,19.54Z"/><path class="cls-7" d="M355.22,13.54a.25.25,0,0,1-.25-.25v-6a.25.25,0,0,1,.5,0v6A.25.25,0,0,1,355.22,13.54Z"/><path class="cls-7" d="M357.12,13.54a.25.25,0,0,1-.25-.25v-6a.25.25,0,0,1,.5,0v6A.25.25,0,0,1,357.12,13.54Z"/><path class="cls-7" d="M359,13.54a.25.25,0,0,1-.25-.25v-6a.25.25,0,0,1,.5,0v6A.25.25,0,0,1,359,13.54Z"/><path class="cls-7" d="M360.92,13.54a.25.25,0,0,1-.25-.25v-6a.25.25,0,0,1,.5,0v6A.25.25,0,0,1,360.92,13.54Z"/><path class="cls-7" d="M364.72,13.54a.25.25,0,0,1-.25-.25v-6a.25.25,0,0,1,.5,0v6A.25.25,0,0,1,364.72,13.54Z"/><path class="cls-7" d="M366.62,13.54a.25.25,0,0,1-.25-.25v-6a.25.25,0,0,1,.5,0v6A.25.25,0,0,1,366.62,13.54Z"/><path class="cls-7" d="M368.52,13.54a.25.25,0,0,1-.25-.25v-6a.25.25,0,0,1,.5,0v6A.25.25,0,0,1,368.52,13.54Z"/><path class="cls-7" d="M370.42,13.54a.25.25,0,0,1-.25-.25v-6a.25.25,0,0,1,.5,0v6A.25.25,0,0,1,370.42,13.54Z"/><path class="cls-7" d="M372.32,19.54a.25.25,0,0,1-.25-.25v-12a.25.25,0,0,1,.5,0v12A.25.25,0,0,1,372.32,19.54Z"/><path class="cls-7" d="M374.22,13.54a.25.25,0,0,1-.25-.25v-6a.25.25,0,0,1,.5,0v6A.25.25,0,0,1,374.22,13.54Z"/><path class="cls-7" d="M376.12,13.54a.25.25,0,0,1-.25-.25v-6a.25.25,0,0,1,.5,0v6A.25.25,0,0,1,376.12,13.54Z"/><path class="cls-7" d="M378,13.54a.25.25,0,0,1-.25-.25v-6a.25.25,0,0,1,.5,0v6A.25.25,0,0,1,378,13.54Z"/><path class="cls-7" d="M379.92,13.54a.25.25,0,0,1-.25-.25v-6a.25.25,0,0,1,.5,0v6A.25.25,0,0,1,379.92,13.54Z"/><path class="cls-7" d="M383.72,13.54a.25.25,0,0,1-.25-.25v-6a.25.25,0,0,1,.5,0v6A.25.25,0,0,1,383.72,13.54Z"/><path class="cls-7" d="M385.62,13.54a.25.25,0,0,1-.25-.25v-6a.25.25,0,0,1,.5,0v6A.25.25,0,0,1,385.62,13.54Z"/><path class="cls-7" d="M387.52,13.54a.25.25,0,0,1-.25-.25v-6a.25.25,0,0,1,.5,0v6A.25.25,0,0,1,387.52,13.54Z"/><path class="cls-7" d="M389.42,13.54a.25.25,0,0,1-.25-.25v-6a.25.25,0,0,1,.5,0v6A.25.25,0,0,1,389.42,13.54Z"/><path class="cls-7" d="M391.32,19.54a.25.25,0,0,1-.25-.25v-12a.25.25,0,0,1,.5,0v12A.25.25,0,0,1,391.32,19.54Z"/><path class="cls-7" d="M393.22,13.54a.25.25,0,0,1-.25-.25v-6a.25.25,0,0,1,.5,0v6A.25.25,0,0,1,393.22,13.54Z"/><path class="cls-7" d="M395.12,13.54a.25.25,0,0,1-.25-.25v-6a.25.25,0,0,1,.5,0v6A.25.25,0,0,1,395.12,13.54Z"/><path class="cls-7" d="M397,13.54a.25.25,0,0,1-.25-.25v-6a.25.25,0,0,1,.5,0v6A.25.25,0,0,1,397,13.54Z"/><path class="cls-7" d="M398.92,13.54a.25.25,0,0,1-.25-.25v-6a.25.25,0,0,1,.5,0v6A.25.25,0,0,1,398.92,13.54Z"/><path class="cls-7" d="M19.22,24c0-1.07.53-1.76,1.6-1.76s1.61.69,1.61,1.76v3.61c0,1.07-.53,1.77-1.61,1.77s-1.6-.7-1.6-1.77ZM20,27.64c0,.63.27,1,.83,1s.83-.38.83-1v-3.7c0-.64-.26-1-.83-1s-.83.38-.83,1Z"/><path class="cls-7" d="M40,23.56a2.09,2.09,0,0,1-1,.3v-.64a1.2,1.2,0,0,0,1.2-.93h.54v7H40Z"/><path class="cls-7" d="M60.43,24c0,2.11-2.36,2.87-2.37,4.48v.11h2.29v.71H57.29v-.6c0-2.26,2.36-2.7,2.36-4.67,0-.72-.24-1.1-.82-1.1s-.81.41-.81,1v.62h-.73V24c0-1.07.49-1.78,1.56-1.78S60.43,22.92,60.43,24Z"/><path class="cls-7" d="M79.39,24v.18a1.39,1.39,0,0,1-.85,1.44,1.39,1.39,0,0,1,.85,1.45v.54c0,1.07-.5,1.77-1.58,1.77s-1.57-.7-1.57-1.77v-.48H77v.53c0,.63.26,1,.82,1s.82-.37.82-1.08V27c0-.69-.29-1-.88-1h-.42v-.7h.46a.84.84,0,0,0,.84-1V24c0-.72-.25-1.09-.82-1.09s-.82.39-.82,1v.36h-.73V24c0-1.07.5-1.76,1.57-1.76S79.39,22.91,79.39,24Z"/><path class="cls-7" d="M98.06,27.88v1.41H97.3V27.88H95v-.71l2.17-4.88h.85v4.88h.56v.71Zm-2.3-.71H97.3V23.75Z"/><path class="cls-7" d="M115.06,25.14a1.13,1.13,0,0,1,1-.58c.9,0,1.3.66,1.3,1.66v1.37c0,1.07-.51,1.77-1.58,1.77s-1.57-.7-1.57-1.77v-.47H115v.52c0,.63.26,1,.82,1s.82-.38.82-1V26.28c0-.63-.26-1-.82-1A.75.75,0,0,0,115,26v.16h-.73l.19-3.89h2.76V23h-2.06Z"/><path class="cls-7" d="M136.41,24v.13h-.73v-.18c0-.63-.26-1-.83-1s-.85.38-.85,1.13v1.57a1.13,1.13,0,0,1,1.13-.75c.9,0,1.3.65,1.3,1.66v1.06c0,1.07-.53,1.77-1.6,1.77s-1.61-.7-1.61-1.77V24c0-1.11.5-1.8,1.61-1.8S136.41,22.9,136.41,24ZM134,26.59v1.05c0,.63.26,1,.83,1s.83-.38.83-1V26.59c0-.63-.27-1-.83-1S134,26,134,26.59Z"/><path class="cls-7" d="M154.61,23h-2.38v-.7h3.17V23l-1.8,6.32h-.78Z"/><path class="cls-7" d="M174.46,24v.22a1.38,1.38,0,0,1-.8,1.44,1.42,1.42,0,0,1,.8,1.48v.52a1.65,1.65,0,1,1-3.29,0v-.52a1.41,1.41,0,0,1,.8-1.48,1.36,1.36,0,0,1-.8-1.44V24a1.65,1.65,0,1,1,3.29,0Zm-2.53,0v.34c0,.68.33,1,.88,1s.88-.3.88-1V24c0-.72-.33-1-.88-1S171.93,23.25,171.93,24Zm0,3v.59c0,.72.32,1.06.88,1.06s.87-.34.88-1.06V27c0-.68-.3-1-.88-1S171.93,26.32,171.93,27Z"/><path class="cls-7" d="M193.41,24v3.57c0,1.11-.5,1.81-1.62,1.81s-1.58-.69-1.58-1.76v-.13h.73v.18c0,.63.27,1,.83,1s.86-.38.86-1.12V26a1.12,1.12,0,0,1-1.13.74c-.9,0-1.3-.64-1.3-1.65V24c0-1.07.52-1.76,1.6-1.76S193.41,22.91,193.41,24Zm-2.44,0v1c0,.63.27,1,.83,1s.83-.38.83-1v-1c0-.64-.26-1-.83-1S191,23.3,191,23.94Z"/><path class="cls-7" d="M209,23.56a2.09,2.09,0,0,1-1,.3v-.64a1.2,1.2,0,0,0,1.2-.93h.54v7H209Z"/><path class="cls-7" d="M210.9,24c0-1.07.53-1.76,1.6-1.76s1.61.69,1.61,1.76v3.61c0,1.07-.53,1.77-1.61,1.77s-1.6-.7-1.6-1.77Zm.77,3.66c0,.63.27,1,.83,1s.83-.38.83-1v-3.7c0-.64-.26-1-.83-1s-.83.38-.83,1Z"/><path class="cls-7" d="M228.26,23.56a2.09,2.09,0,0,1-1,.3v-.64a1.2,1.2,0,0,0,1.2-.93H229v7h-.77Z"/><path class="cls-7" d="M231.64,23.56a2.09,2.09,0,0,1-1,.3v-.64a1.2,1.2,0,0,0,1.2-.93h.54v7h-.77Z"/><path class="cls-7" d="M247,23.56a2.05,2.05,0,0,1-1,.3v-.64a1.21,1.21,0,0,0,1.2-.93h.53v7H247Z"/><path class="cls-7" d="M252.11,24c0,2.11-2.36,2.87-2.37,4.48v.11H252v.71H249v-.6c0-2.26,2.36-2.7,2.36-4.67,0-.72-.24-1.1-.82-1.1s-.81.41-.81,1v.62H249V24c0-1.07.49-1.78,1.56-1.78S252.11,22.92,252.11,24Z"/><path class="cls-7" d="M266,23.56a2.09,2.09,0,0,1-1,.3v-.64a1.2,1.2,0,0,0,1.2-.93h.54v7H266Z"/><path class="cls-7" d="M271.07,24v.18a1.39,1.39,0,0,1-.85,1.44,1.39,1.39,0,0,1,.85,1.45v.54c0,1.07-.5,1.77-1.58,1.77s-1.57-.7-1.57-1.77v-.48h.73v.53c0,.63.26,1,.82,1s.82-.37.82-1.08V27c0-.69-.29-1-.88-1H269v-.7h.46a.84.84,0,0,0,.84-1V24c0-.72-.25-1.09-.82-1.09s-.82.39-.82,1v.36h-.73V24c0-1.07.5-1.76,1.57-1.76S271.07,22.91,271.07,24Z"/><path class="cls-7" d="M285,23.56a2.09,2.09,0,0,1-1,.3v-.64a1.2,1.2,0,0,0,1.2-.93h.54v7H285Z"/><path class="cls-7" d="M289.74,27.88v1.41H289V27.88h-2.26v-.71l2.17-4.88h.85v4.88h.56v.71Zm-2.3-.71H289V23.75Z"/><path class="cls-7" d="M304,23.56a2.09,2.09,0,0,1-1,.3v-.64a1.2,1.2,0,0,0,1.2-.93h.54v7H304Z"/><path class="cls-7" d="M306.74,25.14a1.13,1.13,0,0,1,1-.58c.9,0,1.3.66,1.3,1.66v1.37c0,1.07-.51,1.77-1.58,1.77s-1.57-.7-1.57-1.77v-.47h.73v.52c0,.63.26,1,.82,1s.82-.38.82-1V26.28c0-.63-.26-1-.82-1a.75.75,0,0,0-.79.75v.16H306l.19-3.89h2.76V23h-2.06Z"/><path class="cls-7" d="M323,23.56a2.09,2.09,0,0,1-1,.3v-.64a1.2,1.2,0,0,0,1.2-.93h.54v7H323Z"/><path class="cls-7" d="M328.09,24v.13h-.73v-.18c0-.63-.26-1-.83-1s-.85.38-.85,1.13v1.57a1.13,1.13,0,0,1,1.13-.75c.9,0,1.3.65,1.3,1.66v1.06c0,1.07-.53,1.77-1.6,1.77s-1.61-.7-1.61-1.77V24c0-1.11.5-1.8,1.61-1.8S328.09,22.9,328.09,24Zm-2.41,2.62v1.05c0,.63.26,1,.83,1s.83-.38.83-1V26.59c0-.63-.27-1-.83-1S325.68,26,325.68,26.59Z"/><path class="cls-7" d="M342,23.56a2.09,2.09,0,0,1-1,.3v-.64a1.2,1.2,0,0,0,1.2-.93h.54v7H342Z"/><path class="cls-7" d="M346.29,23h-2.38v-.7h3.17V23l-1.8,6.32h-.78Z"/><path class="cls-7" d="M361,23.56a2.09,2.09,0,0,1-1,.3v-.64a1.2,1.2,0,0,0,1.2-.93h.54v7H361Z"/><path class="cls-7" d="M366.14,24v.22a1.38,1.38,0,0,1-.8,1.44,1.42,1.42,0,0,1,.8,1.48v.52a1.65,1.65,0,1,1-3.3,0v-.52a1.41,1.41,0,0,1,.81-1.48,1.38,1.38,0,0,1-.81-1.44V24a1.65,1.65,0,1,1,3.3,0Zm-2.53,0v.34c0,.68.33,1,.88,1s.88-.3.88-1V24c0-.72-.33-1-.88-1S363.61,23.25,363.61,24Zm0,3v.59c0,.72.32,1.06.88,1.06s.87-.34.88-1.06V27c0-.68-.3-1-.88-1S363.61,26.32,363.61,27Z"/><path class="cls-7" d="M380,23.56a2.09,2.09,0,0,1-1,.3v-.64a1.2,1.2,0,0,0,1.2-.93h.54v7H380Z"/><path class="cls-7" d="M385.09,24v3.57c0,1.11-.5,1.81-1.62,1.81s-1.58-.69-1.58-1.76v-.13h.73v.18c0,.63.27,1,.83,1s.86-.38.86-1.12V26a1.12,1.12,0,0,1-1.13.74c-.9,0-1.3-.64-1.3-1.65V24c0-1.07.52-1.76,1.6-1.76S385.09,22.91,385.09,24Zm-2.44,0v1c0,.63.27,1,.83,1s.83-.38.83-1v-1c0-.64-.26-1-.83-1S382.65,23.3,382.65,23.94Z"/><path class="cls-7" d="M400.47,24c0,2.11-2.37,2.87-2.38,4.48v.11h2.3v.71h-3.07v-.6c0-2.26,2.37-2.7,2.37-4.67,0-.72-.24-1.1-.82-1.1s-.82.41-.82,1v.62h-.73V24c0-1.07.49-1.78,1.57-1.78S400.47,22.92,400.47,24Z"/><path class="cls-7" d="M401.13,24c0-1.07.53-1.76,1.6-1.76s1.61.69,1.61,1.76v3.61c0,1.07-.53,1.77-1.61,1.77s-1.6-.7-1.6-1.77Zm.77,3.66c0,.63.27,1,.83,1s.83-.38.83-1v-3.7c0-.64-.26-1-.83-1s-.83.38-.83,1Z"/></g><g id="Inches"><path class="cls-7" d="M406.9,73.54a.25.25,0,0,1-.25-.25v-12a.25.25,0,0,1,.5,0v12A.25.25,0,0,1,406.9,73.54Z"/><path class="cls-7" d="M358.64,73.54a.25.25,0,0,1-.25-.25v-12a.25.25,0,0,1,.5,0v12A.25.25,0,0,1,358.64,73.54Z"/><path class="cls-7" d="M310.38,73.54a.25.25,0,0,1-.25-.25v-12a.25.25,0,0,1,.5,0v12A.25.25,0,0,1,310.38,73.54Z"/><path class="cls-7" d="M262.12,73.54a.25.25,0,0,1-.25-.25v-12a.25.25,0,0,1,.5,0v12A.25.25,0,0,1,262.12,73.54Z"/><path class="cls-7" d="M213.86,73.54a.25.25,0,0,1-.25-.25v-12a.25.25,0,0,1,.5,0v12A.25.25,0,0,1,213.86,73.54Z"/><path class="cls-7" d="M165.6,73.54a.25.25,0,0,1-.25-.25v-12a.25.25,0,1,1,.5,0v12A.25.25,0,0,1,165.6,73.54Z"/><path class="cls-7" d="M117.34,73.54a.25.25,0,0,1-.25-.25v-12a.25.25,0,1,1,.5,0v12A.25.25,0,0,1,117.34,73.54Z"/><path class="cls-7" d="M69.08,73.54a.25.25,0,0,1-.25-.25v-12a.25.25,0,0,1,.5,0v12A.25.25,0,0,1,69.08,73.54Z"/><path class="cls-7" d="M20.82,73.54a.25.25,0,0,1-.25-.25v-12a.25.25,0,0,1,.5,0v12A.25.25,0,0,1,20.82,73.54Z"/><path class="cls-7" d="M66.67,73.54a.25.25,0,0,1-.25-.25v-2a.25.25,0,0,1,.5,0v2A.25.25,0,0,1,66.67,73.54Z"/><path class="cls-7" d="M64.26,73.54a.25.25,0,0,1-.25-.25v-6a.25.25,0,0,1,.25-.25.25.25,0,0,1,.25.25v6A.26.26,0,0,1,64.26,73.54Z"/><path class="cls-7" d="M61.84,73.54a.25.25,0,0,1-.25-.25v-2a.25.25,0,1,1,.5,0v2A.25.25,0,0,1,61.84,73.54Z"/><path class="cls-7" d="M59.43,73.54a.25.25,0,0,1-.25-.25v-6a.25.25,0,0,1,.5,0v6A.25.25,0,0,1,59.43,73.54Z"/><path class="cls-7" d="M57,73.54a.25.25,0,0,1-.25-.25v-2A.25.25,0,0,1,57,71a.25.25,0,0,1,.25.25v2A.26.26,0,0,1,57,73.54Z"/><path class="cls-7" d="M54.6,73.54a.26.26,0,0,1-.25-.25v-6A.25.25,0,0,1,54.6,67a.25.25,0,0,1,.25.25v6A.25.25,0,0,1,54.6,73.54Z"/><path class="cls-7" d="M52.19,73.54a.25.25,0,0,1-.25-.25v-2a.25.25,0,0,1,.5,0v2A.25.25,0,0,1,52.19,73.54Z"/><path class="cls-7" d="M49.78,73.54a.25.25,0,0,1-.25-.25v-6a.25.25,0,0,1,.5,0v6A.25.25,0,0,1,49.78,73.54Z"/><path class="cls-7" d="M47.36,73.54a.26.26,0,0,1-.25-.25v-2a.25.25,0,0,1,.25-.25.25.25,0,0,1,.25.25v2A.25.25,0,0,1,47.36,73.54Z"/><path class="cls-7" d="M45,73.54a.25.25,0,0,1-.25-.25v-10a.25.25,0,0,1,.5,0v10A.25.25,0,0,1,45,73.54Z"/><path class="cls-7" d="M42.54,73.54a.25.25,0,0,1-.25-.25v-2a.25.25,0,0,1,.5,0v2A.25.25,0,0,1,42.54,73.54Z"/><path class="cls-7" d="M40.13,73.54a.25.25,0,0,1-.25-.25v-6a.25.25,0,0,1,.25-.25.25.25,0,0,1,.25.25v6A.26.26,0,0,1,40.13,73.54Z"/><path class="cls-7" d="M37.71,73.54a.25.25,0,0,1-.25-.25v-2a.25.25,0,0,1,.5,0v2A.25.25,0,0,1,37.71,73.54Z"/><path class="cls-7" d="M35.3,73.54a.25.25,0,0,1-.25-.25v-6a.25.25,0,0,1,.5,0v6A.25.25,0,0,1,35.3,73.54Z"/><path class="cls-7" d="M32.89,73.54a.25.25,0,0,1-.25-.25v-2a.25.25,0,0,1,.5,0v2A.25.25,0,0,1,32.89,73.54Z"/><path class="cls-7" d="M30.47,73.54a.26.26,0,0,1-.25-.25v-6a.25.25,0,0,1,.25-.25.25.25,0,0,1,.25.25v6A.25.25,0,0,1,30.47,73.54Z"/><path class="cls-7" d="M28.06,73.54a.25.25,0,0,1-.25-.25v-2a.25.25,0,0,1,.5,0v2A.25.25,0,0,1,28.06,73.54Z"/><path class="cls-7" d="M25.65,73.54a.25.25,0,0,1-.25-.25v-6a.25.25,0,0,1,.5,0v6A.25.25,0,0,1,25.65,73.54Z"/><path class="cls-7" d="M23.23,73.54a.26.26,0,0,1-.25-.25v-2a.25.25,0,0,1,.25-.25.25.25,0,0,1,.25.25v2A.25.25,0,0,1,23.23,73.54Z"/><path class="cls-7" d="M114.93,73.54a.25.25,0,0,1-.25-.25v-2a.25.25,0,0,1,.5,0v2A.25.25,0,0,1,114.93,73.54Z"/><path class="cls-7" d="M112.52,73.54a.25.25,0,0,1-.25-.25v-6a.25.25,0,0,1,.25-.25.25.25,0,0,1,.25.25v6A.26.26,0,0,1,112.52,73.54Z"/><path class="cls-7" d="M110.1,73.54a.25.25,0,0,1-.25-.25v-2a.25.25,0,1,1,.5,0v2A.25.25,0,0,1,110.1,73.54Z"/><path class="cls-7" d="M107.69,73.54a.25.25,0,0,1-.25-.25v-6a.25.25,0,0,1,.5,0v6A.25.25,0,0,1,107.69,73.54Z"/><path class="cls-7" d="M105.28,73.54a.25.25,0,0,1-.25-.25v-2a.25.25,0,0,1,.25-.25.25.25,0,0,1,.25.25v2A.26.26,0,0,1,105.28,73.54Z"/><path class="cls-7" d="M102.86,73.54a.26.26,0,0,1-.25-.25v-6a.25.25,0,0,1,.25-.25.25.25,0,0,1,.25.25v6A.25.25,0,0,1,102.86,73.54Z"/><path class="cls-7" d="M100.45,73.54a.25.25,0,0,1-.25-.25v-2a.25.25,0,0,1,.5,0v2A.25.25,0,0,1,100.45,73.54Z"/><path class="cls-7" d="M98,73.54a.25.25,0,0,1-.25-.25v-6a.25.25,0,0,1,.5,0v6A.25.25,0,0,1,98,73.54Z"/><path class="cls-7" d="M95.62,73.54a.26.26,0,0,1-.25-.25v-2a.25.25,0,0,1,.25-.25.25.25,0,0,1,.25.25v2A.25.25,0,0,1,95.62,73.54Z"/><path class="cls-7" d="M93.21,73.54a.25.25,0,0,1-.25-.25v-10a.25.25,0,0,1,.5,0v10A.25.25,0,0,1,93.21,73.54Z"/><path class="cls-7" d="M90.8,73.54a.25.25,0,0,1-.25-.25v-2a.25.25,0,0,1,.5,0v2A.25.25,0,0,1,90.8,73.54Z"/><path class="cls-7" d="M88.39,73.54a.25.25,0,0,1-.25-.25v-6a.25.25,0,0,1,.25-.25.25.25,0,0,1,.25.25v6A.26.26,0,0,1,88.39,73.54Z"/><path class="cls-7" d="M86,73.54a.25.25,0,0,1-.25-.25v-2a.25.25,0,1,1,.5,0v2A.25.25,0,0,1,86,73.54Z"/><path class="cls-7" d="M83.56,73.54a.25.25,0,0,1-.25-.25v-6a.25.25,0,0,1,.5,0v6A.25.25,0,0,1,83.56,73.54Z"/><path class="cls-7" d="M81.15,73.54a.25.25,0,0,1-.25-.25v-2a.25.25,0,0,1,.25-.25.25.25,0,0,1,.25.25v2A.26.26,0,0,1,81.15,73.54Z"/><path class="cls-7" d="M78.73,73.54a.26.26,0,0,1-.25-.25v-6a.25.25,0,0,1,.25-.25.25.25,0,0,1,.25.25v6A.25.25,0,0,1,78.73,73.54Z"/><path class="cls-7" d="M76.32,73.54a.25.25,0,0,1-.25-.25v-2a.25.25,0,0,1,.5,0v2A.25.25,0,0,1,76.32,73.54Z"/><path class="cls-7" d="M73.91,73.54a.25.25,0,0,1-.25-.25v-6a.25.25,0,1,1,.5,0v6A.25.25,0,0,1,73.91,73.54Z"/><path class="cls-7" d="M71.49,73.54a.26.26,0,0,1-.25-.25v-2a.25.25,0,0,1,.25-.25.25.25,0,0,1,.25.25v2A.25.25,0,0,1,71.49,73.54Z"/><path class="cls-7" d="M163.19,73.54a.25.25,0,0,1-.25-.25v-2a.25.25,0,0,1,.5,0v2A.25.25,0,0,1,163.19,73.54Z"/><path class="cls-7" d="M160.78,73.54a.25.25,0,0,1-.25-.25v-6a.25.25,0,0,1,.25-.25.25.25,0,0,1,.25.25v6A.26.26,0,0,1,160.78,73.54Z"/><path class="cls-7" d="M158.36,73.54a.25.25,0,0,1-.25-.25v-2a.25.25,0,0,1,.5,0v2A.25.25,0,0,1,158.36,73.54Z"/><path class="cls-7" d="M156,73.54a.25.25,0,0,1-.25-.25v-6a.25.25,0,0,1,.5,0v6A.25.25,0,0,1,156,73.54Z"/><path class="cls-7" d="M153.54,73.54a.25.25,0,0,1-.25-.25v-2a.25.25,0,0,1,.25-.25.25.25,0,0,1,.25.25v2A.26.26,0,0,1,153.54,73.54Z"/><path class="cls-7" d="M151.12,73.54a.26.26,0,0,1-.25-.25v-6a.25.25,0,0,1,.25-.25.25.25,0,0,1,.25.25v6A.25.25,0,0,1,151.12,73.54Z"/><path class="cls-7" d="M148.71,73.54a.25.25,0,0,1-.25-.25v-2a.25.25,0,1,1,.5,0v2A.25.25,0,0,1,148.71,73.54Z"/><path class="cls-7" d="M146.3,73.54a.25.25,0,0,1-.25-.25v-6a.25.25,0,0,1,.5,0v6A.25.25,0,0,1,146.3,73.54Z"/><path class="cls-7" d="M143.88,73.54a.26.26,0,0,1-.25-.25v-2a.25.25,0,0,1,.25-.25.25.25,0,0,1,.25.25v2A.25.25,0,0,1,143.88,73.54Z"/><path class="cls-7" d="M141.47,73.54a.25.25,0,0,1-.25-.25v-10a.25.25,0,1,1,.5,0v10A.25.25,0,0,1,141.47,73.54Z"/><path class="cls-7" d="M139.06,73.54a.25.25,0,0,1-.25-.25v-2a.25.25,0,0,1,.5,0v2A.25.25,0,0,1,139.06,73.54Z"/><path class="cls-7" d="M136.65,73.54a.25.25,0,0,1-.25-.25v-6a.25.25,0,0,1,.25-.25.25.25,0,0,1,.25.25v6A.26.26,0,0,1,136.65,73.54Z"/><path class="cls-7" d="M134.23,73.54a.25.25,0,0,1-.25-.25v-2a.25.25,0,1,1,.5,0v2A.25.25,0,0,1,134.23,73.54Z"/><path class="cls-7" d="M131.82,73.54a.25.25,0,0,1-.25-.25v-6a.25.25,0,0,1,.5,0v6A.25.25,0,0,1,131.82,73.54Z"/><path class="cls-7" d="M129.41,73.54a.25.25,0,0,1-.25-.25v-2a.25.25,0,1,1,.5,0v2A.25.25,0,0,1,129.41,73.54Z"/><path class="cls-7" d="M127,73.54a.26.26,0,0,1-.25-.25v-6A.25.25,0,0,1,127,67a.25.25,0,0,1,.25.25v6A.25.25,0,0,1,127,73.54Z"/><path class="cls-7" d="M124.58,73.54a.25.25,0,0,1-.25-.25v-2a.25.25,0,0,1,.5,0v2A.25.25,0,0,1,124.58,73.54Z"/><path class="cls-7" d="M122.17,73.54a.25.25,0,0,1-.25-.25v-6a.25.25,0,0,1,.5,0v6A.25.25,0,0,1,122.17,73.54Z"/><path class="cls-7" d="M119.75,73.54a.26.26,0,0,1-.25-.25v-2a.25.25,0,0,1,.25-.25.25.25,0,0,1,.25.25v2A.25.25,0,0,1,119.75,73.54Z"/><path class="cls-7" d="M211.45,73.54a.25.25,0,0,1-.25-.25v-2a.25.25,0,0,1,.5,0v2A.25.25,0,0,1,211.45,73.54Z"/><path class="cls-7" d="M209,73.54a.25.25,0,0,1-.25-.25v-6A.25.25,0,0,1,209,67a.25.25,0,0,1,.25.25v6A.26.26,0,0,1,209,73.54Z"/><path class="cls-7" d="M206.62,73.54a.25.25,0,0,1-.25-.25v-2a.25.25,0,0,1,.5,0v2A.25.25,0,0,1,206.62,73.54Z"/><path class="cls-7" d="M204.21,73.54a.25.25,0,0,1-.25-.25v-6a.25.25,0,1,1,.5,0v6A.25.25,0,0,1,204.21,73.54Z"/><path class="cls-7" d="M201.8,73.54a.25.25,0,0,1-.25-.25v-2a.25.25,0,0,1,.25-.25.25.25,0,0,1,.25.25v2A.26.26,0,0,1,201.8,73.54Z"/><path class="cls-7" d="M199.38,73.54a.26.26,0,0,1-.25-.25v-6a.25.25,0,0,1,.25-.25.25.25,0,0,1,.25.25v6A.25.25,0,0,1,199.38,73.54Z"/><path class="cls-7" d="M197,73.54a.25.25,0,0,1-.25-.25v-2a.25.25,0,1,1,.5,0v2A.25.25,0,0,1,197,73.54Z"/><path class="cls-7" d="M194.56,73.54a.25.25,0,0,1-.25-.25v-6a.25.25,0,0,1,.5,0v6A.25.25,0,0,1,194.56,73.54Z"/><path class="cls-7" d="M192.14,73.54a.26.26,0,0,1-.25-.25v-2a.25.25,0,0,1,.25-.25.25.25,0,0,1,.25.25v2A.25.25,0,0,1,192.14,73.54Z"/><path class="cls-7" d="M189.73,73.54a.25.25,0,0,1-.25-.25v-10a.25.25,0,1,1,.5,0v10A.25.25,0,0,1,189.73,73.54Z"/><path class="cls-7" d="M187.32,73.54a.25.25,0,0,1-.25-.25v-2a.25.25,0,0,1,.5,0v2A.25.25,0,0,1,187.32,73.54Z"/><path class="cls-7" d="M184.91,73.54a.25.25,0,0,1-.25-.25v-6a.25.25,0,0,1,.25-.25.25.25,0,0,1,.25.25v6A.26.26,0,0,1,184.91,73.54Z"/><path class="cls-7" d="M182.49,73.54a.25.25,0,0,1-.25-.25v-2a.25.25,0,0,1,.5,0v2A.25.25,0,0,1,182.49,73.54Z"/><path class="cls-7" d="M180.08,73.54a.25.25,0,0,1-.25-.25v-6a.25.25,0,1,1,.5,0v6A.25.25,0,0,1,180.08,73.54Z"/><path class="cls-7" d="M177.67,73.54a.25.25,0,0,1-.25-.25v-2a.25.25,0,0,1,.25-.25.25.25,0,0,1,.25.25v2A.26.26,0,0,1,177.67,73.54Z"/><path class="cls-7" d="M175.25,73.54a.26.26,0,0,1-.25-.25v-6a.25.25,0,0,1,.25-.25.25.25,0,0,1,.25.25v6A.25.25,0,0,1,175.25,73.54Z"/><path class="cls-7" d="M172.84,73.54a.25.25,0,0,1-.25-.25v-2a.25.25,0,1,1,.5,0v2A.25.25,0,0,1,172.84,73.54Z"/><path class="cls-7" d="M170.43,73.54a.25.25,0,0,1-.25-.25v-6a.25.25,0,0,1,.5,0v6A.25.25,0,0,1,170.43,73.54Z"/><path class="cls-7" d="M168,73.54a.26.26,0,0,1-.25-.25v-2A.25.25,0,0,1,168,71a.25.25,0,0,1,.25.25v2A.25.25,0,0,1,168,73.54Z"/><path class="cls-7" d="M259.71,73.54a.25.25,0,0,1-.25-.25v-2a.25.25,0,0,1,.5,0v2A.25.25,0,0,1,259.71,73.54Z"/><path class="cls-7" d="M257.3,73.54a.25.25,0,0,1-.25-.25v-6a.25.25,0,0,1,.25-.25.25.25,0,0,1,.25.25v6A.26.26,0,0,1,257.3,73.54Z"/><path class="cls-7" d="M254.88,73.54a.26.26,0,0,1-.25-.25v-2a.25.25,0,0,1,.25-.25.25.25,0,0,1,.25.25v2A.25.25,0,0,1,254.88,73.54Z"/><path class="cls-7" d="M252.47,73.54a.25.25,0,0,1-.25-.25v-6a.25.25,0,1,1,.5,0v6A.25.25,0,0,1,252.47,73.54Z"/><path class="cls-7" d="M250.06,73.54a.25.25,0,0,1-.25-.25v-2a.25.25,0,0,1,.25-.25.25.25,0,0,1,.25.25v2A.26.26,0,0,1,250.06,73.54Z"/><path class="cls-7" d="M247.64,73.54a.26.26,0,0,1-.25-.25v-6a.25.25,0,0,1,.25-.25.25.25,0,0,1,.25.25v6A.25.25,0,0,1,247.64,73.54Z"/><path class="cls-7" d="M245.23,73.54a.25.25,0,0,1-.25-.25v-2a.25.25,0,1,1,.5,0v2A.25.25,0,0,1,245.23,73.54Z"/><path class="cls-7" d="M242.82,73.54a.25.25,0,0,1-.25-.25v-6a.25.25,0,0,1,.5,0v6A.25.25,0,0,1,242.82,73.54Z"/><path class="cls-7" d="M240.4,73.54a.26.26,0,0,1-.25-.25v-2a.25.25,0,0,1,.25-.25.25.25,0,0,1,.25.25v2A.25.25,0,0,1,240.4,73.54Z"/><path class="cls-7" d="M238,73.54a.25.25,0,0,1-.25-.25v-10a.25.25,0,0,1,.5,0v10A.25.25,0,0,1,238,73.54Z"/><path class="cls-7" d="M235.58,73.54a.25.25,0,0,1-.25-.25v-2a.25.25,0,1,1,.5,0v2A.25.25,0,0,1,235.58,73.54Z"/><path class="cls-7" d="M233.17,73.54a.25.25,0,0,1-.25-.25v-6a.25.25,0,0,1,.25-.25.25.25,0,0,1,.25.25v6A.26.26,0,0,1,233.17,73.54Z"/><path class="cls-7" d="M230.75,73.54a.26.26,0,0,1-.25-.25v-2a.25.25,0,0,1,.25-.25.25.25,0,0,1,.25.25v2A.25.25,0,0,1,230.75,73.54Z"/><path class="cls-7" d="M228.34,73.54a.25.25,0,0,1-.25-.25v-6a.25.25,0,1,1,.5,0v6A.25.25,0,0,1,228.34,73.54Z"/><path class="cls-7" d="M225.93,73.54a.25.25,0,0,1-.25-.25v-2a.25.25,0,0,1,.25-.25.25.25,0,0,1,.25.25v2A.26.26,0,0,1,225.93,73.54Z"/><path class="cls-7" d="M223.51,73.54a.26.26,0,0,1-.25-.25v-6a.25.25,0,0,1,.25-.25.25.25,0,0,1,.25.25v6A.25.25,0,0,1,223.51,73.54Z"/><path class="cls-7" d="M221.1,73.54a.25.25,0,0,1-.25-.25v-2a.25.25,0,1,1,.5,0v2A.25.25,0,0,1,221.1,73.54Z"/><path class="cls-7" d="M218.69,73.54a.25.25,0,0,1-.25-.25v-6a.25.25,0,0,1,.5,0v6A.25.25,0,0,1,218.69,73.54Z"/><path class="cls-7" d="M216.27,73.54a.26.26,0,0,1-.25-.25v-2a.25.25,0,0,1,.25-.25.25.25,0,0,1,.25.25v2A.25.25,0,0,1,216.27,73.54Z"/><path class="cls-7" d="M308,73.54a.25.25,0,0,1-.25-.25v-2a.25.25,0,0,1,.5,0v2A.25.25,0,0,1,308,73.54Z"/><path class="cls-7" d="M305.56,73.54a.25.25,0,0,1-.25-.25v-6a.25.25,0,0,1,.25-.25.25.25,0,0,1,.25.25v6A.26.26,0,0,1,305.56,73.54Z"/><path class="cls-7" d="M303.14,73.54a.25.25,0,0,1-.25-.25v-2a.25.25,0,0,1,.5,0v2A.25.25,0,0,1,303.14,73.54Z"/><path class="cls-7" d="M300.73,73.54a.25.25,0,0,1-.25-.25v-6a.25.25,0,0,1,.5,0v6A.25.25,0,0,1,300.73,73.54Z"/><path class="cls-7" d="M298.32,73.54a.25.25,0,0,1-.25-.25v-2a.25.25,0,0,1,.25-.25.25.25,0,0,1,.25.25v2A.26.26,0,0,1,298.32,73.54Z"/><path class="cls-7" d="M295.9,73.54a.26.26,0,0,1-.25-.25v-6a.25.25,0,0,1,.25-.25.25.25,0,0,1,.25.25v6A.25.25,0,0,1,295.9,73.54Z"/><path class="cls-7" d="M293.49,73.54a.25.25,0,0,1-.25-.25v-2a.25.25,0,0,1,.5,0v2A.25.25,0,0,1,293.49,73.54Z"/><path class="cls-7" d="M291.08,73.54a.25.25,0,0,1-.25-.25v-6a.25.25,0,0,1,.25-.25.25.25,0,0,1,.25.25v6A.26.26,0,0,1,291.08,73.54Z"/><path class="cls-7" d="M288.66,73.54a.26.26,0,0,1-.25-.25v-2a.25.25,0,0,1,.25-.25.25.25,0,0,1,.25.25v2A.25.25,0,0,1,288.66,73.54Z"/><path class="cls-7" d="M286.25,73.54a.25.25,0,0,1-.25-.25v-10a.25.25,0,0,1,.5,0v10A.25.25,0,0,1,286.25,73.54Z"/><path class="cls-7" d="M283.84,73.54a.25.25,0,0,1-.25-.25v-2a.25.25,0,0,1,.5,0v2A.25.25,0,0,1,283.84,73.54Z"/><path class="cls-7" d="M281.43,73.54a.25.25,0,0,1-.25-.25v-6a.25.25,0,0,1,.25-.25.25.25,0,0,1,.25.25v6A.26.26,0,0,1,281.43,73.54Z"/><path class="cls-7" d="M279,73.54a.26.26,0,0,1-.25-.25v-2A.25.25,0,0,1,279,71a.25.25,0,0,1,.25.25v2A.25.25,0,0,1,279,73.54Z"/><path class="cls-7" d="M276.6,73.54a.25.25,0,0,1-.25-.25v-6a.25.25,0,0,1,.5,0v6A.25.25,0,0,1,276.6,73.54Z"/><path class="cls-7" d="M274.19,73.54a.25.25,0,0,1-.25-.25v-2a.25.25,0,0,1,.25-.25.25.25,0,0,1,.25.25v2A.26.26,0,0,1,274.19,73.54Z"/><path class="cls-7" d="M271.77,73.54a.26.26,0,0,1-.25-.25v-6a.25.25,0,0,1,.25-.25.25.25,0,0,1,.25.25v6A.25.25,0,0,1,271.77,73.54Z"/><path class="cls-7" d="M269.36,73.54a.25.25,0,0,1-.25-.25v-2a.25.25,0,0,1,.5,0v2A.25.25,0,0,1,269.36,73.54Z"/><path class="cls-7" d="M267,73.54a.25.25,0,0,1-.25-.25v-6a.25.25,0,0,1,.5,0v6A.25.25,0,0,1,267,73.54Z"/><path class="cls-7" d="M264.53,73.54a.26.26,0,0,1-.25-.25v-2a.25.25,0,0,1,.25-.25.25.25,0,0,1,.25.25v2A.25.25,0,0,1,264.53,73.54Z"/><path class="cls-7" d="M356.23,73.54a.25.25,0,0,1-.25-.25v-2a.25.25,0,0,1,.5,0v2A.25.25,0,0,1,356.23,73.54Z"/><path class="cls-7" d="M353.82,73.54a.25.25,0,0,1-.25-.25v-6a.25.25,0,0,1,.25-.25.25.25,0,0,1,.25.25v6A.26.26,0,0,1,353.82,73.54Z"/><path class="cls-7" d="M351.4,73.54a.25.25,0,0,1-.25-.25v-2a.25.25,0,0,1,.5,0v2A.25.25,0,0,1,351.4,73.54Z"/><path class="cls-7" d="M349,73.54a.25.25,0,0,1-.25-.25v-6a.25.25,0,0,1,.5,0v6A.25.25,0,0,1,349,73.54Z"/><path class="cls-7" d="M346.58,73.54a.25.25,0,0,1-.25-.25v-2a.25.25,0,0,1,.25-.25.25.25,0,0,1,.25.25v2A.26.26,0,0,1,346.58,73.54Z"/><path class="cls-7" d="M344.16,73.54a.26.26,0,0,1-.25-.25v-6a.25.25,0,0,1,.25-.25.25.25,0,0,1,.25.25v6A.25.25,0,0,1,344.16,73.54Z"/><path class="cls-7" d="M341.75,73.54a.25.25,0,0,1-.25-.25v-2a.25.25,0,0,1,.5,0v2A.25.25,0,0,1,341.75,73.54Z"/><path class="cls-7" d="M339.34,73.54a.25.25,0,0,1-.25-.25v-6a.25.25,0,0,1,.5,0v6A.25.25,0,0,1,339.34,73.54Z"/><path class="cls-7" d="M336.92,73.54a.26.26,0,0,1-.25-.25v-2a.25.25,0,0,1,.25-.25.25.25,0,0,1,.25.25v2A.25.25,0,0,1,336.92,73.54Z"/><path class="cls-7" d="M334.51,73.54a.25.25,0,0,1-.25-.25v-10a.25.25,0,0,1,.5,0v10A.25.25,0,0,1,334.51,73.54Z"/><path class="cls-7" d="M332.1,73.54a.25.25,0,0,1-.25-.25v-2a.25.25,0,0,1,.5,0v2A.25.25,0,0,1,332.1,73.54Z"/><path class="cls-7" d="M329.69,73.54a.25.25,0,0,1-.25-.25v-6a.25.25,0,0,1,.25-.25.25.25,0,0,1,.25.25v6A.26.26,0,0,1,329.69,73.54Z"/><path class="cls-7" d="M327.27,73.54a.25.25,0,0,1-.25-.25v-2a.25.25,0,0,1,.5,0v2A.25.25,0,0,1,327.27,73.54Z"/><path class="cls-7" d="M324.86,73.54a.25.25,0,0,1-.25-.25v-6a.25.25,0,0,1,.5,0v6A.25.25,0,0,1,324.86,73.54Z"/><path class="cls-7" d="M322.45,73.54a.25.25,0,0,1-.25-.25v-2a.25.25,0,0,1,.25-.25.25.25,0,0,1,.25.25v2A.26.26,0,0,1,322.45,73.54Z"/><path class="cls-7" d="M320,73.54a.26.26,0,0,1-.25-.25v-6A.25.25,0,0,1,320,67a.25.25,0,0,1,.25.25v6A.25.25,0,0,1,320,73.54Z"/><path class="cls-7" d="M317.62,73.54a.25.25,0,0,1-.25-.25v-2a.25.25,0,0,1,.5,0v2A.25.25,0,0,1,317.62,73.54Z"/><path class="cls-7" d="M315.21,73.54a.25.25,0,0,1-.25-.25v-6a.25.25,0,0,1,.5,0v6A.25.25,0,0,1,315.21,73.54Z"/><path class="cls-7" d="M312.8,73.54a.25.25,0,0,1-.25-.25v-2a.25.25,0,0,1,.25-.25.25.25,0,0,1,.25.25v2A.26.26,0,0,1,312.8,73.54Z"/><path class="cls-7" d="M404.49,73.54a.25.25,0,0,1-.25-.25v-2a.25.25,0,0,1,.5,0v2A.25.25,0,0,1,404.49,73.54Z"/><path class="cls-7" d="M402.08,73.54a.25.25,0,0,1-.25-.25v-6a.25.25,0,0,1,.25-.25.25.25,0,0,1,.25.25v6A.26.26,0,0,1,402.08,73.54Z"/><path class="cls-7" d="M399.66,73.54a.25.25,0,0,1-.25-.25v-2a.25.25,0,0,1,.5,0v2A.25.25,0,0,1,399.66,73.54Z"/><path class="cls-7" d="M397.25,73.54a.25.25,0,0,1-.25-.25v-6a.25.25,0,0,1,.5,0v6A.25.25,0,0,1,397.25,73.54Z"/><path class="cls-7" d="M394.84,73.54a.25.25,0,0,1-.25-.25v-2a.25.25,0,0,1,.25-.25.25.25,0,0,1,.25.25v2A.26.26,0,0,1,394.84,73.54Z"/><path class="cls-7" d="M392.42,73.54a.26.26,0,0,1-.25-.25v-6a.25.25,0,0,1,.25-.25.25.25,0,0,1,.25.25v6A.25.25,0,0,1,392.42,73.54Z"/><path class="cls-7" d="M390,73.54a.25.25,0,0,1-.25-.25v-2a.25.25,0,0,1,.5,0v2A.25.25,0,0,1,390,73.54Z"/><path class="cls-7" d="M387.6,73.54a.25.25,0,0,1-.25-.25v-6a.25.25,0,0,1,.5,0v6A.25.25,0,0,1,387.6,73.54Z"/><path class="cls-7" d="M385.18,73.54a.26.26,0,0,1-.25-.25v-2a.25.25,0,0,1,.25-.25.25.25,0,0,1,.25.25v2A.25.25,0,0,1,385.18,73.54Z"/><path class="cls-7" d="M382.77,73.54a.25.25,0,0,1-.25-.25v-10a.25.25,0,0,1,.5,0v10A.25.25,0,0,1,382.77,73.54Z"/><path class="cls-7" d="M380.36,73.54a.25.25,0,0,1-.25-.25v-2a.25.25,0,0,1,.5,0v2A.25.25,0,0,1,380.36,73.54Z"/><path class="cls-7" d="M378,73.54a.25.25,0,0,1-.25-.25v-6A.25.25,0,0,1,378,67a.25.25,0,0,1,.25.25v6A.26.26,0,0,1,378,73.54Z"/><path class="cls-7" d="M375.53,73.54a.25.25,0,0,1-.25-.25v-2a.25.25,0,0,1,.5,0v2A.25.25,0,0,1,375.53,73.54Z"/><path class="cls-7" d="M373.12,73.54a.25.25,0,0,1-.25-.25v-6a.25.25,0,0,1,.5,0v6A.25.25,0,0,1,373.12,73.54Z"/><path class="cls-7" d="M370.71,73.54a.25.25,0,0,1-.25-.25v-2a.25.25,0,0,1,.25-.25.25.25,0,0,1,.25.25v2A.26.26,0,0,1,370.71,73.54Z"/><path class="cls-7" d="M368.29,73.54a.26.26,0,0,1-.25-.25v-6a.25.25,0,0,1,.25-.25.25.25,0,0,1,.25.25v6A.25.25,0,0,1,368.29,73.54Z"/><path class="cls-7" d="M365.88,73.54a.25.25,0,0,1-.25-.25v-2a.25.25,0,0,1,.5,0v2A.25.25,0,0,1,365.88,73.54Z"/><path class="cls-7" d="M363.47,73.54a.25.25,0,0,1-.25-.25v-6a.25.25,0,0,1,.5,0v6A.25.25,0,0,1,363.47,73.54Z"/><path class="cls-7" d="M361.05,73.54a.26.26,0,0,1-.25-.25v-2a.25.25,0,0,1,.25-.25.25.25,0,0,1,.25.25v2A.25.25,0,0,1,361.05,73.54Z"/><path class="cls-7" d="M33.2,51.29v7h-.78v-7Z"/><path class="cls-7" d="M35.69,58.29H35v-7h1l1.62,5.06V51.29h.69v7h-.81l-1.79-5.66Z"/><path class="cls-7" d="M43.18,53v.63h-.74v-.67c0-.63-.25-1-.82-1s-.82.38-.82,1v3.7c0,.63.26,1,.82,1s.82-.38.82-1v-.91h.74v.87c0,1.06-.5,1.76-1.58,1.76S40,57.66,40,56.6V53c0-1.06.5-1.76,1.57-1.76S43.18,51.92,43.18,53Z"/><path class="cls-7" d="M45.67,55.14v3.15h-.78v-7h.78v3.15h1.72V51.29h.78v7h-.78V55.14Z"/><path class="cls-7" d="M52.46,54.39v.7H50.75v2.49h2.1v.71H50v-7h2.88V52h-2.1v2.39Z"/><path class="cls-7" d="M57.6,53v.19h-.74v-.23c0-.63-.24-1-.8-1s-.8.37-.8,1c0,1.57,2.35,1.72,2.35,3.69,0,1.06-.51,1.75-1.58,1.75s-1.57-.69-1.57-1.75v-.4h.73v.44c0,.63.26,1,.82,1s.82-.37.82-1c0-1.56-2.34-1.71-2.34-3.68,0-1.08.5-1.75,1.55-1.75S57.6,51.91,57.6,53Z"/><path class="cls-7" d="M68.7,52.56a2.09,2.09,0,0,1-1,.3v-.64a1.2,1.2,0,0,0,1.2-.93h.54v7H68.7Z"/><path class="cls-7" d="M119,53c0,2.11-2.36,2.87-2.37,4.48v.11h2.29v.71h-3.06v-.6c0-2.26,2.36-2.7,2.36-4.67,0-.72-.23-1.1-.81-1.1s-.82.41-.82,1v.62h-.73V53c0-1.07.49-1.78,1.57-1.78S119,51.92,119,53Z"/><path class="cls-7" d="M167.17,53v.18a1.4,1.4,0,0,1-.84,1.44,1.4,1.4,0,0,1,.84,1.45v.54c0,1.07-.5,1.77-1.57,1.77s-1.57-.7-1.57-1.77v-.48h.73v.53c0,.63.26,1,.82,1s.82-.37.82-1.08V56c0-.69-.29-1-.88-1h-.42v-.7h.46a.84.84,0,0,0,.84-1V53c0-.72-.25-1.09-.82-1.09s-.82.39-.82,1v.36H164V53c0-1.07.5-1.76,1.57-1.76S167.17,51.91,167.17,53Z"/><path class="cls-7" d="M215.1,56.88v1.41h-.76V56.88h-2.26v-.71l2.17-4.88h.85v4.88h.56v.71Zm-2.3-.71h1.54V52.75Z"/><path class="cls-7" d="M261.37,54.14a1.13,1.13,0,0,1,1-.58c.89,0,1.29.66,1.29,1.66v1.37c0,1.07-.51,1.77-1.57,1.77s-1.57-.7-1.57-1.77v-.47h.73v.52c0,.63.26,1,.82,1s.81-.38.81-1V55.28c0-.63-.25-1-.81-1a.75.75,0,0,0-.79.75v.16h-.73l.19-3.89h2.75V52h-2Z"/><path class="cls-7" d="M312,53v.13h-.72v-.18c0-.63-.26-1-.83-1s-.85.38-.85,1.13v1.57a1.13,1.13,0,0,1,1.13-.75c.89,0,1.3.65,1.3,1.66v1.06c0,1.07-.54,1.77-1.6,1.77s-1.61-.7-1.61-1.77V53c0-1.11.5-1.8,1.61-1.8S312,51.9,312,53Zm-2.4,2.62v1c0,.63.26,1,.83,1s.83-.38.83-1v-1c0-.63-.27-1-.83-1S309.57,55,309.57,55.59Z"/><path class="cls-7" d="M360,52H357.6v-.7h3.17V52L359,58.29h-.78Z"/><path class="cls-7" d="M408.55,53v.22a1.38,1.38,0,0,1-.8,1.44,1.42,1.42,0,0,1,.8,1.48v.52a1.65,1.65,0,1,1-3.3,0v-.52a1.41,1.41,0,0,1,.81-1.48,1.37,1.37,0,0,1-.81-1.44V53a1.65,1.65,0,1,1,3.3,0ZM406,53v.34c0,.68.33,1,.88,1s.88-.3.88-1V53c0-.72-.33-1-.88-1S406,52.25,406,53Zm0,3v.59c0,.72.32,1.06.88,1.06s.87-.34.88-1.06V56c0-.68-.3-1-.88-1S406,55.32,406,56Z"/><path class="cls-7" d="M19.22,53c0-1.07.53-1.76,1.6-1.76s1.6.69,1.6,1.76v3.61c0,1.07-.52,1.77-1.6,1.77s-1.6-.7-1.6-1.77ZM20,56.64c0,.63.27,1,.83,1s.83-.38.83-1v-3.7c0-.64-.26-1-.83-1s-.83.38-.83,1Z"/></g></g></g><line class="cls-8" x1="11.34" y1="7.04" x2="416.4" y2="7.04"/><polygon class="cls-9" points="16.68 14.07 13.69 7.04 16.68 0 0 7.04 16.68 14.07"/><polygon class="cls-9" points="411.06 14.07 414.05 7.04 411.06 0 427.74 7.04 411.06 14.07"/><line class="cls-8" x1="11.34" y1="75.29" x2="416.4" y2="75.29"/><polygon class="cls-9" points="16.68 82.32 13.69 75.29 16.68 68.25 0 75.29 16.68 82.32"/><polygon class="cls-9" points="411.06 82.32 414.05 75.29 411.06 68.25 427.74 75.29 411.06 82.32"/></g></g></svg>