<svg xmlns="http://www.w3.org/2000/svg" viewBox="0 0 404 149.71"><defs><style>.cls-1{fill:#35373f;}.cls-2{fill:#fff;}.cls-3{fill:none;stroke:#ff3131;stroke-miterlimit:10;stroke-width:5px;}.cls-4{fill:#ff3131;}</style></defs><g id="Layer_2" data-name="Layer 2"><g id="Layer_2-2" data-name="Layer 2"><rect class="cls-1" width="404" height="149.71"/><rect class="cls-2" x="153.98" y="7.36" width="96.04" height="19.6"/><rect class="cls-2" x="153.98" y="36.21" width="96.04" height="19.6"/><rect class="cls-2" x="153.98" y="65.06" width="96.04" height="19.6"/><rect class="cls-2" x="126.5" y="71.49" width="21.42" height="6.72"/><rect class="cls-2" x="97.29" y="71.49" width="21.42" height="6.72"/><rect class="cls-2" x="68.08" y="71.49" width="21.42" height="6.72"/><rect class="cls-2" x="38.88" y="71.49" width="21.42" height="6.72"/><rect class="cls-2" x="9.67" y="71.49" width="21.42" height="6.72"/><rect class="cls-2" x="373.01" y="71.49" width="21.42" height="6.72"/><rect class="cls-2" x="343.81" y="71.49" width="21.42" height="6.72"/><rect class="cls-2" x="314.6" y="71.49" width="21.42" height="6.72"/><rect class="cls-2" x="285.39" y="71.49" width="21.42" height="6.72"/><rect class="cls-2" x="256.18" y="71.49" width="21.42" height="6.72"/><rect class="cls-2" x="153.98" y="93.91" width="96.04" height="19.6"/><rect class="cls-2" x="153.98" y="122.75" width="96.04" height="19.6"/><rect class="cls-2" y="7.36" width="404" height="5.88"/><rect class="cls-2" y="136.47" width="404" height="5.88"/><line class="cls-3" x1="99.56" y1="36.21" x2="304.44" y2="36.21"/><polygon class="cls-4" points="104.89 43.24 101.91 36.21 104.89 29.17 88.22 36.21 104.89 43.24"/><polygon class="cls-4" points="299.11 43.24 302.1 36.21 299.11 29.17 315.79 36.21 299.11 43.24"/><line class="cls-3" x1="99.56" y1="55.81" x2="304.44" y2="55.81"/><polygon class="cls-4" points="104.89 62.84 101.91 55.81 104.89 48.77 88.22 55.81 104.89 62.84"/><polygon class="cls-4" points="299.11 62.84 302.1 55.81 299.11 48.77 315.79 55.81 299.11 62.84"/></g></g></svg>