<svg xmlns="http://www.w3.org/2000/svg" viewBox="0 0 52 313.83"><defs><style>.cls-1{fill:#8d97ab;}.cls-2{fill:#a9b3cc;}.cls-3{fill:#707787;}.cls-4{fill:#4a4a4a;}.cls-5{fill:none;stroke:#ff3131;stroke-miterlimit:10;stroke-width:5px;}.cls-6{fill:#ff3131;}</style></defs><g id="Layer_2" data-name="Layer 2"><g id="Layer_2-2" data-name="Layer 2"><rect class="cls-1" y="26.4" width="52" height="14.26"/><rect class="cls-2" y="38.63" width="52" height="2.03"/><rect class="cls-2" y="26.4" width="52" height="2.03"/><path class="cls-3" d="M3.58,36a1,1,0,0,1-1-1V32.09a1,1,0,0,1,1-1h10.5a1,1,0,0,1,1,1V35a1,1,0,0,1-1,1Z"/><path class="cls-2" d="M12.87,34.49a1,1,0,1,1,1-1A1,1,0,0,1,12.87,34.49Z"/><path class="cls-4" d="M12.39,33.32a.2.2,0,0,1,0-.27.19.19,0,0,1,.26,0l.7.7a.17.17,0,0,1,0,.26.19.19,0,0,1-.26,0Z"/><path class="cls-4" d="M13.09,33.05a.19.19,0,0,1,.26,0,.18.18,0,0,1,0,.27l-.7.69a.18.18,0,0,1-.26-.26Z"/><path class="cls-2" d="M4.79,34.49a1,1,0,1,1,1-1A1,1,0,0,1,4.79,34.49Z"/><path class="cls-4" d="M4.3,33.32a.19.19,0,0,1,.27-.27l.7.7a.19.19,0,0,1,0,.26A.2.2,0,0,1,5,34Z"/><path class="cls-4" d="M5,33.05a.19.19,0,0,1,.27.27l-.7.69a.2.2,0,0,1-.27,0,.19.19,0,0,1,0-.26Z"/><path class="cls-3" d="M37.48,36a1,1,0,0,1-1-1V32.09a1,1,0,0,1,1-1H48a1,1,0,0,1,1,1V35a1,1,0,0,1-1,1Z"/><rect class="cls-4" x="40.22" y="17.02" width="5.03" height="40.58"/><rect class="cls-4" x="6.31" y="17.02" width="5.03" height="40.58"/><path class="cls-2" d="M46.78,34.49a1,1,0,1,1,1-1A1,1,0,0,1,46.78,34.49Z"/><path class="cls-4" d="M46.3,33.32a.18.18,0,0,1,0-.27.19.19,0,0,1,.26,0l.7.7A.18.18,0,0,1,47,34Z"/><path class="cls-4" d="M47,33.05a.19.19,0,0,1,.26,0,.19.19,0,0,1,0,.27l-.7.69a.19.19,0,0,1-.26,0,.17.17,0,0,1,0-.26Z"/><path class="cls-2" d="M38.7,34.49a1,1,0,1,1,1-1A1,1,0,0,1,38.7,34.49Z"/><path class="cls-4" d="M38.21,33.32a.19.19,0,0,1,.27-.27l.7.7a.19.19,0,0,1,0,.26.2.2,0,0,1-.27,0Z"/><path class="cls-4" d="M38.91,33.05a.19.19,0,0,1,.27.27l-.7.69a.2.2,0,0,1-.27,0,.19.19,0,0,1,0-.26Z"/><rect class="cls-1" y="66.98" width="52" height="14.26"/><rect class="cls-2" y="79.21" width="52" height="2.03"/><rect class="cls-2" y="66.98" width="52" height="2.03"/><path class="cls-3" d="M3.58,76.53a1,1,0,0,1-1-1V72.67a1,1,0,0,1,1-1h10.5a1,1,0,0,1,1,1v2.88a1,1,0,0,1-1,1Z"/><path class="cls-2" d="M12.87,75.07a1,1,0,1,1,1-1A1,1,0,0,1,12.87,75.07Z"/><path class="cls-4" d="M12.39,73.9a.2.2,0,0,1,0-.27.19.19,0,0,1,.26,0l.7.7a.17.17,0,0,1,0,.26.19.19,0,0,1-.26,0Z"/><path class="cls-4" d="M13.09,73.63a.19.19,0,0,1,.26,0,.18.18,0,0,1,0,.27l-.7.69a.18.18,0,1,1-.26-.26Z"/><path class="cls-2" d="M4.79,75.07a1,1,0,1,1,1-1A1,1,0,0,1,4.79,75.07Z"/><path class="cls-4" d="M4.3,73.9a.19.19,0,0,1,.27-.27l.7.7a.19.19,0,0,1,0,.26.2.2,0,0,1-.27,0Z"/><path class="cls-4" d="M5,73.63a.19.19,0,0,1,.27.27l-.7.69a.2.2,0,0,1-.27,0,.19.19,0,0,1,0-.26Z"/><path class="cls-3" d="M37.48,76.53a1,1,0,0,1-1-1V72.67a1,1,0,0,1,1-1H48a1,1,0,0,1,1,1v2.88a1,1,0,0,1-1,1Z"/><rect class="cls-4" x="40.22" y="57.6" width="5.03" height="40.58"/><rect class="cls-4" x="6.31" y="57.6" width="5.03" height="40.58"/><path class="cls-2" d="M46.78,75.07a1,1,0,1,1,1-1A1,1,0,0,1,46.78,75.07Z"/><path class="cls-4" d="M46.3,73.9a.18.18,0,0,1,0-.27.19.19,0,0,1,.26,0l.7.7a.18.18,0,1,1-.26.26Z"/><path class="cls-4" d="M47,73.63a.19.19,0,0,1,.26,0,.19.19,0,0,1,0,.27l-.7.69a.19.19,0,0,1-.26,0,.17.17,0,0,1,0-.26Z"/><path class="cls-2" d="M38.7,75.07a1,1,0,1,1,1-1A1,1,0,0,1,38.7,75.07Z"/><path class="cls-4" d="M38.21,73.9a.19.19,0,0,1,.27-.27l.7.7a.19.19,0,0,1,0,.26.2.2,0,0,1-.27,0Z"/><path class="cls-4" d="M38.91,73.63a.19.19,0,1,1,.27.27l-.7.69a.2.2,0,0,1-.27,0,.19.19,0,0,1,0-.26Z"/><rect class="cls-1" y="107.56" width="52" height="14.26"/><rect class="cls-2" y="119.79" width="52" height="2.03"/><rect class="cls-2" y="107.56" width="52" height="2.03"/><path class="cls-3" d="M3.58,117.11a1,1,0,0,1-1-1v-2.88a1,1,0,0,1,1-1h10.5a1,1,0,0,1,1,1v2.88a1,1,0,0,1-1,1Z"/><path class="cls-2" d="M12.87,115.65a1,1,0,1,1,1-1A1,1,0,0,1,12.87,115.65Z"/><path class="cls-4" d="M12.39,114.48a.2.2,0,0,1,0-.27.19.19,0,0,1,.26,0l.7.7a.17.17,0,0,1,0,.26.19.19,0,0,1-.26,0Z"/><path class="cls-4" d="M13.09,114.21a.19.19,0,0,1,.26,0,.18.18,0,0,1,0,.27l-.7.69a.18.18,0,0,1-.26-.26Z"/><path class="cls-2" d="M4.79,115.65a1,1,0,1,1,1-1A1,1,0,0,1,4.79,115.65Z"/><path class="cls-4" d="M4.3,114.48a.19.19,0,0,1,.27-.27l.7.7a.19.19,0,0,1,0,.26.2.2,0,0,1-.27,0Z"/><path class="cls-4" d="M5,114.21a.19.19,0,0,1,.27.27l-.7.69a.2.2,0,0,1-.27,0,.19.19,0,0,1,0-.26Z"/><path class="cls-3" d="M37.48,117.11a1,1,0,0,1-1-1v-2.88a1,1,0,0,1,1-1H48a1,1,0,0,1,1,1v2.88a1,1,0,0,1-1,1Z"/><rect class="cls-4" x="40.22" y="98.18" width="5.03" height="40.58"/><rect class="cls-4" x="6.31" y="98.18" width="5.03" height="40.58"/><path class="cls-2" d="M46.78,115.65a1,1,0,1,1,1-1A1,1,0,0,1,46.78,115.65Z"/><path class="cls-4" d="M46.3,114.48a.18.18,0,0,1,0-.27.19.19,0,0,1,.26,0l.7.7a.18.18,0,0,1-.26.26Z"/><path class="cls-4" d="M47,114.21a.19.19,0,0,1,.26,0,.19.19,0,0,1,0,.27l-.7.69a.19.19,0,0,1-.26,0,.17.17,0,0,1,0-.26Z"/><path class="cls-2" d="M38.7,115.65a1,1,0,1,1,1-1A1,1,0,0,1,38.7,115.65Z"/><path class="cls-4" d="M38.21,114.48a.19.19,0,0,1,.27-.27l.7.7a.19.19,0,0,1,0,.26.2.2,0,0,1-.27,0Z"/><path class="cls-4" d="M38.91,114.21a.19.19,0,1,1,.27.27l-.7.69a.2.2,0,0,1-.27,0,.19.19,0,0,1,0-.26Z"/><rect class="cls-1" y="148.14" width="52" height="14.26"/><rect class="cls-2" y="160.37" width="52" height="2.03"/><rect class="cls-2" y="148.14" width="52" height="2.03"/><path class="cls-3" d="M3.58,157.69a1,1,0,0,1-1-1v-2.88a1,1,0,0,1,1-1h10.5a1,1,0,0,1,1,1v2.88a1,1,0,0,1-1,1Z"/><path class="cls-2" d="M12.87,156.23a1,1,0,1,1,1-1A1,1,0,0,1,12.87,156.23Z"/><path class="cls-4" d="M12.39,155.06a.2.2,0,0,1,0-.27.19.19,0,0,1,.26,0l.7.7a.17.17,0,0,1,0,.26.19.19,0,0,1-.26,0Z"/><path class="cls-4" d="M13.09,154.79a.19.19,0,0,1,.26,0,.18.18,0,0,1,0,.27l-.7.69a.18.18,0,1,1-.26-.26Z"/><path class="cls-2" d="M4.79,156.23a1,1,0,1,1,1-1A1,1,0,0,1,4.79,156.23Z"/><path class="cls-4" d="M4.3,155.06a.19.19,0,0,1,.27-.27l.7.7a.19.19,0,0,1,0,.26.2.2,0,0,1-.27,0Z"/><path class="cls-4" d="M5,154.79a.19.19,0,0,1,.27.27l-.7.69a.2.2,0,0,1-.27,0,.19.19,0,0,1,0-.26Z"/><path class="cls-3" d="M37.48,157.69a1,1,0,0,1-1-1v-2.88a1,1,0,0,1,1-1H48a1,1,0,0,1,1,1v2.88a1,1,0,0,1-1,1Z"/><rect class="cls-4" x="40.22" y="138.76" width="5.03" height="40.58"/><rect class="cls-4" x="6.31" y="138.76" width="5.03" height="40.58"/><path class="cls-2" d="M46.78,156.23a1,1,0,1,1,1-1A1,1,0,0,1,46.78,156.23Z"/><path class="cls-4" d="M46.3,155.06a.18.18,0,0,1,0-.27.19.19,0,0,1,.26,0l.7.7a.18.18,0,0,1-.26.26Z"/><path class="cls-4" d="M47,154.79a.19.19,0,0,1,.26,0,.19.19,0,0,1,0,.27l-.7.69a.19.19,0,0,1-.26,0,.17.17,0,0,1,0-.26Z"/><path class="cls-2" d="M38.7,156.23a1,1,0,1,1,1-1A1,1,0,0,1,38.7,156.23Z"/><path class="cls-4" d="M38.21,155.06a.19.19,0,0,1,.27-.27l.7.7a.19.19,0,0,1,0,.26.2.2,0,0,1-.27,0Z"/><path class="cls-4" d="M38.91,154.79a.19.19,0,0,1,.27.27l-.7.69a.2.2,0,0,1-.27,0,.19.19,0,0,1,0-.26Z"/><rect class="cls-1" y="188.72" width="52" height="14.26"/><rect class="cls-2" y="200.95" width="52" height="2.03"/><rect class="cls-2" y="188.72" width="52" height="2.03"/><path class="cls-3" d="M3.58,198.27a1,1,0,0,1-1-1v-2.88a1,1,0,0,1,1-1h10.5a1,1,0,0,1,1,1v2.88a1,1,0,0,1-1,1Z"/><path class="cls-2" d="M12.87,196.81a1,1,0,1,1,1-1A1,1,0,0,1,12.87,196.81Z"/><path class="cls-4" d="M12.39,195.64a.2.2,0,0,1,0-.27.19.19,0,0,1,.26,0l.7.7a.17.17,0,0,1,0,.26.19.19,0,0,1-.26,0Z"/><path class="cls-4" d="M13.09,195.37a.19.19,0,0,1,.26,0,.18.18,0,0,1,0,.27l-.7.69a.18.18,0,0,1-.26-.26Z"/><path class="cls-2" d="M4.79,196.81a1,1,0,1,1,1-1A1,1,0,0,1,4.79,196.81Z"/><path class="cls-4" d="M4.3,195.64a.19.19,0,0,1,.27-.27l.7.7a.19.19,0,0,1,0,.26.2.2,0,0,1-.27,0Z"/><path class="cls-4" d="M5,195.37a.19.19,0,0,1,.27.27l-.7.69a.2.2,0,0,1-.27,0,.19.19,0,0,1,0-.26Z"/><path class="cls-3" d="M37.48,198.27a1,1,0,0,1-1-1v-2.88a1,1,0,0,1,1-1H48a1,1,0,0,1,1,1v2.88a1,1,0,0,1-1,1Z"/><rect class="cls-4" x="40.22" y="179.34" width="5.03" height="40.58"/><rect class="cls-4" x="6.31" y="179.34" width="5.03" height="40.58"/><path class="cls-2" d="M46.78,196.81a1,1,0,1,1,1-1A1,1,0,0,1,46.78,196.81Z"/><path class="cls-4" d="M46.3,195.64a.18.18,0,0,1,0-.27.19.19,0,0,1,.26,0l.7.7a.18.18,0,0,1-.26.26Z"/><path class="cls-4" d="M47,195.37a.19.19,0,0,1,.26,0,.19.19,0,0,1,0,.27l-.7.69a.19.19,0,0,1-.26,0,.17.17,0,0,1,0-.26Z"/><path class="cls-2" d="M38.7,196.81a1,1,0,1,1,1-1A1,1,0,0,1,38.7,196.81Z"/><path class="cls-4" d="M38.21,195.64a.19.19,0,0,1,.27-.27l.7.7a.19.19,0,0,1,0,.26.2.2,0,0,1-.27,0Z"/><path class="cls-4" d="M38.91,195.37a.19.19,0,1,1,.27.27l-.7.69a.2.2,0,0,1-.27,0,.19.19,0,0,1,0-.26Z"/><rect class="cls-1" y="229.3" width="52" height="14.26"/><rect class="cls-2" y="241.53" width="52" height="2.03"/><rect class="cls-2" y="229.3" width="52" height="2.03"/><path class="cls-3" d="M3.58,238.85a1,1,0,0,1-1-1V235a1,1,0,0,1,1-1h10.5a1,1,0,0,1,1,1v2.88a1,1,0,0,1-1,1Z"/><path class="cls-2" d="M12.87,237.39a1,1,0,1,1,1-1A1,1,0,0,1,12.87,237.39Z"/><path class="cls-4" d="M12.39,236.22a.2.2,0,0,1,0-.27.19.19,0,0,1,.26,0l.7.7a.17.17,0,0,1,0,.26.19.19,0,0,1-.26,0Z"/><path class="cls-4" d="M13.09,236a.19.19,0,0,1,.26,0,.18.18,0,0,1,0,.27l-.7.69a.18.18,0,1,1-.26-.26Z"/><path class="cls-2" d="M4.79,237.39a1,1,0,1,1,1-1A1,1,0,0,1,4.79,237.39Z"/><path class="cls-4" d="M4.3,236.22a.19.19,0,1,1,.27-.27l.7.7a.19.19,0,0,1,0,.26.2.2,0,0,1-.27,0Z"/><path class="cls-4" d="M5,236a.19.19,0,1,1,.27.27l-.7.69a.2.2,0,0,1-.27,0,.19.19,0,0,1,0-.26Z"/><path class="cls-3" d="M37.48,238.85a1,1,0,0,1-1-1V235a1,1,0,0,1,1-1H48a1,1,0,0,1,1,1v2.88a1,1,0,0,1-1,1Z"/><rect class="cls-4" x="40.22" y="219.92" width="5.03" height="40.58"/><rect class="cls-4" x="6.31" y="219.92" width="5.03" height="40.58"/><path class="cls-2" d="M46.78,237.39a1,1,0,1,1,1-1A1,1,0,0,1,46.78,237.39Z"/><path class="cls-4" d="M46.3,236.22a.18.18,0,0,1,0-.27.19.19,0,0,1,.26,0l.7.7a.18.18,0,0,1-.26.26Z"/><path class="cls-4" d="M47,236a.19.19,0,0,1,.26,0,.19.19,0,0,1,0,.27l-.7.69a.19.19,0,0,1-.26,0,.17.17,0,0,1,0-.26Z"/><path class="cls-2" d="M38.7,237.39a1,1,0,1,1,1-1A1,1,0,0,1,38.7,237.39Z"/><path class="cls-4" d="M38.21,236.22a.19.19,0,1,1,.27-.27l.7.7a.19.19,0,0,1,0,.26.2.2,0,0,1-.27,0Z"/><path class="cls-4" d="M38.91,236a.19.19,0,1,1,.27.27l-.7.69a.2.2,0,0,1-.27,0,.19.19,0,0,1,0-.26Z"/><rect class="cls-1" y="269.88" width="52" height="14.26"/><rect class="cls-2" y="282.11" width="52" height="2.03"/><rect class="cls-2" y="269.88" width="52" height="2.03"/><path class="cls-3" d="M3.58,279.43a1,1,0,0,1-1-1v-2.88a1,1,0,0,1,1-1h10.5a1,1,0,0,1,1,1v2.88a1,1,0,0,1-1,1Z"/><path class="cls-2" d="M12.87,278a1,1,0,1,1,1-1A1,1,0,0,1,12.87,278Z"/><path class="cls-4" d="M12.39,276.8a.2.2,0,0,1,0-.27.19.19,0,0,1,.26,0l.7.7a.17.17,0,0,1,0,.26.19.19,0,0,1-.26,0Z"/><path class="cls-4" d="M13.09,276.53a.19.19,0,0,1,.26,0,.18.18,0,0,1,0,.27l-.7.69a.18.18,0,1,1-.26-.26Z"/><path class="cls-2" d="M4.79,278a1,1,0,1,1,1-1A1,1,0,0,1,4.79,278Z"/><path class="cls-4" d="M4.3,276.8a.19.19,0,1,1,.27-.27l.7.7a.19.19,0,0,1,0,.26.2.2,0,0,1-.27,0Z"/><path class="cls-4" d="M5,276.53a.19.19,0,1,1,.27.27l-.7.69a.2.2,0,0,1-.27,0,.19.19,0,0,1,0-.26Z"/><path class="cls-3" d="M37.48,279.43a1,1,0,0,1-1-1v-2.88a1,1,0,0,1,1-1H48a1,1,0,0,1,1,1v2.88a1,1,0,0,1-1,1Z"/><rect class="cls-4" x="40.22" y="260.5" width="5.03" height="40.58"/><rect class="cls-4" x="6.31" y="260.5" width="5.03" height="40.58"/><path class="cls-2" d="M46.78,278a1,1,0,1,1,1-1A1,1,0,0,1,46.78,278Z"/><path class="cls-4" d="M46.3,276.8a.18.18,0,0,1,0-.27.19.19,0,0,1,.26,0l.7.7a.18.18,0,0,1-.26.26Z"/><path class="cls-4" d="M47,276.53a.19.19,0,0,1,.26,0,.19.19,0,0,1,0,.27l-.7.69a.19.19,0,0,1-.26,0,.17.17,0,0,1,0-.26Z"/><path class="cls-2" d="M38.7,278a1,1,0,1,1,1-1A1,1,0,0,1,38.7,278Z"/><path class="cls-4" d="M38.21,276.8a.19.19,0,1,1,.27-.27l.7.7a.19.19,0,0,1,0,.26.2.2,0,0,1-.27,0Z"/><path class="cls-4" d="M38.91,276.53a.19.19,0,1,1,.27.27l-.7.69a.2.2,0,0,1-.27,0,.19.19,0,0,1,0-.26Z"/><line class="cls-5" x1="8.83" y1="302.49" x2="8.83" y2="11.34"/><polygon class="cls-6" points="15.87 297.15 8.83 300.14 1.79 297.15 8.83 313.83 15.87 297.15"/><polygon class="cls-6" points="15.87 16.68 8.83 13.69 1.79 16.68 8.83 0 15.87 16.68"/><line class="cls-5" x1="42.74" y1="302.49" x2="42.74" y2="11.34"/><polygon class="cls-6" points="49.77 297.15 42.74 300.14 35.7 297.15 42.74 313.83 49.77 297.15"/><polygon class="cls-6" points="49.77 16.68 42.74 13.69 35.7 16.68 42.74 0 49.77 16.68"/></g></g></svg>