<svg xmlns="http://www.w3.org/2000/svg" viewBox="0 0 178.7 160.37"><defs><style>.cls-1{isolation:isolate;}.cls-2{fill:#ef8046;}.cls-3{fill:#d9d9d9;}.cls-3,.cls-4{mix-blend-mode:multiply;}.cls-5{fill:#939393;}.cls-6{fill:none;stroke:#0068ff;stroke-miterlimit:10;stroke-width:5px;}.cls-7{fill:#0068ff;}</style></defs><g class="cls-1"><g id="Layer_2" data-name="Layer 2"><g id="Layer_2-2" data-name="Layer 2"><path class="cls-2" d="M7,11.36V154.08H167.72ZM32.31,69.78,99.6,129.55H32.31Z"/><path class="cls-3" d="M7,11.36V154.08H167.72ZM18.34,41.1,131.15,141.3H18.34Z"/><g class="cls-4"><rect class="cls-5" x="7.04" y="141.16" width="4.32" height="0.68"/><rect class="cls-5" x="7.04" y="147.28" width="6.63" height="0.68"/><rect class="cls-5" x="7.04" y="135.04" width="6.63" height="0.68"/><rect class="cls-5" x="7.04" y="145.76" width="3.65" height="0.68"/><rect class="cls-5" x="7.04" y="144.2" width="3.65" height="0.68"/><rect class="cls-5" x="7.04" y="142.64" width="3.65" height="0.68"/><rect class="cls-5" x="7.04" y="139.66" width="3.65" height="0.68"/><rect class="cls-5" x="7.04" y="138.1" width="3.65" height="0.68"/><rect class="cls-5" x="7.04" y="136.54" width="3.65" height="0.68"/><rect class="cls-5" x="7.04" y="153.4" width="4.32" height="0.68"/><rect class="cls-5" x="7.04" y="147.28" width="6.63" height="0.68"/><rect class="cls-5" x="7.04" y="151.9" width="3.65" height="0.68"/><rect class="cls-5" x="7.04" y="150.34" width="3.65" height="0.68"/><rect class="cls-5" x="7.04" y="148.78" width="3.65" height="0.68"/><rect class="cls-5" x="7.04" y="128.84" width="4.32" height="0.68"/><rect class="cls-5" x="7.04" y="122.72" width="6.63" height="0.68"/><rect class="cls-5" x="7.04" y="133.44" width="3.65" height="0.68"/><rect class="cls-5" x="7.04" y="131.89" width="3.65" height="0.68"/><rect class="cls-5" x="7.04" y="130.33" width="3.65" height="0.68"/><rect class="cls-5" x="7.04" y="127.34" width="3.65" height="0.68"/><rect class="cls-5" x="7.04" y="125.78" width="3.65" height="0.68"/><rect class="cls-5" x="7.04" y="124.22" width="3.65" height="0.68"/><rect class="cls-5" x="7.04" y="116.53" width="4.32" height="0.68"/><rect class="cls-5" x="7.04" y="110.41" width="6.63" height="0.68"/><rect class="cls-5" x="7.04" y="121.13" width="3.65" height="0.68"/><rect class="cls-5" x="7.04" y="119.57" width="3.65" height="0.67"/><rect class="cls-5" x="7.04" y="118.01" width="3.65" height="0.68"/><rect class="cls-5" x="7.04" y="115.02" width="3.65" height="0.68"/><rect class="cls-5" x="7.04" y="113.47" width="3.65" height="0.68"/><rect class="cls-5" x="7.04" y="111.91" width="3.65" height="0.68"/><rect class="cls-5" x="7.04" y="104.21" width="4.32" height="0.68"/><rect class="cls-5" x="7.04" y="98.09" width="6.63" height="0.68"/><rect class="cls-5" x="7.04" y="108.81" width="3.65" height="0.68"/><rect class="cls-5" x="7.04" y="107.25" width="3.65" height="0.68"/><rect class="cls-5" x="7.04" y="105.69" width="3.65" height="0.68"/><rect class="cls-5" x="7.04" y="102.71" width="3.65" height="0.68"/><rect class="cls-5" x="7.04" y="101.15" width="3.65" height="0.68"/><rect class="cls-5" x="7.04" y="99.59" width="3.65" height="0.68"/><rect class="cls-5" x="7.04" y="91.89" width="4.32" height="0.68"/><rect class="cls-5" x="7.04" y="85.77" width="6.63" height="0.68"/><rect class="cls-5" x="7.04" y="96.49" width="3.65" height="0.68"/><rect class="cls-5" x="7.04" y="94.94" width="3.65" height="0.68"/><rect class="cls-5" x="7.04" y="93.38" width="3.65" height="0.68"/><rect class="cls-5" x="7.04" y="90.39" width="3.65" height="0.68"/><rect class="cls-5" x="7.04" y="88.83" width="3.65" height="0.68"/><rect class="cls-5" x="7.04" y="87.27" width="3.65" height="0.68"/><rect class="cls-5" x="7.04" y="79.58" width="4.32" height="0.68"/><rect class="cls-5" x="7.04" y="73.46" width="6.63" height="0.68"/><rect class="cls-5" x="7.04" y="84.18" width="3.65" height="0.68"/><rect class="cls-5" x="7.04" y="82.62" width="3.65" height="0.68"/><rect class="cls-5" x="7.04" y="81.06" width="3.65" height="0.68"/><rect class="cls-5" x="7.04" y="78.07" width="3.65" height="0.68"/><rect class="cls-5" x="7.04" y="76.52" width="3.65" height="0.68"/><rect class="cls-5" x="7.04" y="74.96" width="3.65" height="0.68"/><rect class="cls-5" x="7.04" y="67.26" width="4.32" height="0.68"/><rect class="cls-5" x="7.04" y="61.14" width="6.63" height="0.68"/><rect class="cls-5" x="7.04" y="71.86" width="3.65" height="0.68"/><rect class="cls-5" x="7.04" y="70.3" width="3.65" height="0.68"/><rect class="cls-5" x="7.04" y="68.74" width="3.65" height="0.68"/><rect class="cls-5" x="7.04" y="65.76" width="3.65" height="0.68"/><rect class="cls-5" x="7.04" y="64.2" width="3.65" height="0.68"/><rect class="cls-5" x="7.04" y="62.64" width="3.65" height="0.68"/><rect class="cls-5" x="7.04" y="54.94" width="4.32" height="0.68"/><rect class="cls-5" x="7.04" y="48.82" width="6.63" height="0.68"/><rect class="cls-5" x="7.04" y="59.54" width="3.65" height="0.68"/><rect class="cls-5" x="7.04" y="57.99" width="3.65" height="0.68"/><rect class="cls-5" x="7.04" y="56.43" width="3.65" height="0.68"/><rect class="cls-5" x="7.04" y="53.44" width="3.65" height="0.68"/><rect class="cls-5" x="7.04" y="51.88" width="3.65" height="0.68"/><rect class="cls-5" x="7.04" y="50.32" width="3.65" height="0.68"/><rect class="cls-5" x="7.04" y="42.63" width="4.32" height="0.68"/><rect class="cls-5" x="7.04" y="36.51" width="6.63" height="0.68"/><rect class="cls-5" x="7.04" y="47.23" width="3.65" height="0.68"/><rect class="cls-5" x="7.04" y="45.67" width="3.65" height="0.68"/><rect class="cls-5" x="7.04" y="44.11" width="3.65" height="0.68"/><rect class="cls-5" x="7.04" y="41.13" width="3.65" height="0.68"/><rect class="cls-5" x="7.04" y="39.57" width="3.65" height="0.68"/><rect class="cls-5" x="7.04" y="38.01" width="3.65" height="0.68"/><rect class="cls-5" x="7.04" y="30.31" width="4.32" height="0.68"/><rect class="cls-5" x="7.04" y="24.19" width="6.63" height="0.68"/><rect class="cls-5" x="7.04" y="34.91" width="3.65" height="0.68"/><rect class="cls-5" x="7.04" y="33.35" width="3.65" height="0.68"/><rect class="cls-5" x="7.04" y="31.79" width="3.65" height="0.68"/><rect class="cls-5" x="7.04" y="28.81" width="3.65" height="0.68"/><rect class="cls-5" x="7.04" y="27.25" width="3.65" height="0.68"/><rect class="cls-5" x="7.04" y="25.69" width="3.65" height="0.68"/><rect class="cls-5" x="7.04" y="22.72" width="3.65" height="0.55"/><path class="cls-5" d="M18.34,147.9H15.87v.42h-.34a.65.65,0,0,0-.13-.34.58.58,0,0,0-.27-.22v-.34h3.21Z"/><path class="cls-5" d="M16,136a1,1,0,0,1-.7-.24.76.76,0,0,1-.21-.56.71.71,0,0,1,.24-.54.78.78,0,0,1,.55-.23,1.46,1.46,0,0,1,.64.15,5.6,5.6,0,0,1,.58.37l.35.24.13.08.2.13.05,0v-.95h.47V136H17.9l-.18-.1-.16-.11-.19-.13-.48-.35a3.21,3.21,0,0,0-.56-.33,1,1,0,0,0-.39-.09.41.41,0,0,0-.25.08.3.3,0,0,0-.11.23c0,.14.08.23.24.29a.48.48,0,0,0,.18,0h.12V136Z"/><path class="cls-5" d="M17.88,123.31c0-.23-.1-.34-.31-.34h-.19c-.33,0-.49.18-.49.52h-.41a.52.52,0,0,0-.16-.41.59.59,0,0,0-.39-.12h-.08c-.21,0-.31.09-.31.27a.27.27,0,0,0,.11.23.54.54,0,0,0,.24.05H16V124H15.9a.83.83,0,0,1-.56-.17.66.66,0,0,1-.25-.56.71.71,0,0,1,.23-.54.77.77,0,0,1,.52-.18H16a.77.77,0,0,1,.51.17.9.9,0,0,1,.16.18.83.83,0,0,1,.36-.33.75.75,0,0,1,.31-.06h.25a.79.79,0,0,1,.59.24.82.82,0,0,1,.22.56.75.75,0,0,1-.23.55.77.77,0,0,1-.54.22h-.08l0-.46h.11a.37.37,0,0,0,.2-.09A.25.25,0,0,0,17.88,123.31Z"/><path class="cls-5" d="M17.16,111.37l-2-.86V110h2v-.31h.49V110h.69v.48h-.69v.86Zm0-.86h-1l1,.4Z"/><path class="cls-5" d="M15.62,98.89h.69a.36.36,0,0,1-.16-.2.41.41,0,0,1,0-.16.52.52,0,0,1,.22-.47.94.94,0,0,1,.54-.13h.69a.8.8,0,0,1,.59.22.74.74,0,0,1,.22.55.68.68,0,0,1-.23.52.76.76,0,0,1-.54.21h-.08l0-.47h.11a.27.27,0,0,0,.25-.15.16.16,0,0,0,0-.09c0-.2-.11-.3-.32-.3h-.78a.33.33,0,0,0-.23.1.23.23,0,0,0,.05.33.32.32,0,0,0,.19,0h.08v.49H15.13V98h.49Z"/><path class="cls-5" d="M15.93,85.91h-.08a.34.34,0,0,0-.2.06.24.24,0,0,0,0,.36.34.34,0,0,0,.2.06h.64a.53.53,0,0,1-.15-.36.56.56,0,0,1,.22-.48.87.87,0,0,1,.54-.14h.55a.75.75,0,0,1,.52.22.69.69,0,0,1,.21.51.68.68,0,0,1-.23.52.76.76,0,0,1-.54.2H15.86a.79.79,0,0,1-.43-.11.73.73,0,0,1-.28-.32.72.72,0,0,1-.06-.29.69.69,0,0,1,.23-.53.76.76,0,0,1,.54-.2h.07Zm1.67.48a.32.32,0,0,0,.2-.06.24.24,0,0,0,0-.36.32.32,0,0,0-.2-.06H17a.29.29,0,0,0-.23.1.21.21,0,0,0,0,.14.21.21,0,0,0,.1.19.35.35,0,0,0,.18,0Z"/><path class="cls-5" d="M15.13,73.09h.49l2.72.68v.48l-2.72-.68v1h-.49Z"/><path class="cls-5" d="M17.61,60.58a.73.73,0,0,1,.54.23.74.74,0,0,1,.23.54v0a.79.79,0,0,1-.77.77h-.29a.77.77,0,0,1-.52-.2.75.75,0,0,1-.15-.2.69.69,0,0,1-.33.3.71.71,0,0,1-.31.06h-.17a.73.73,0,0,1-.52-.19.68.68,0,0,1-.23-.54v0a.69.69,0,0,1,.23-.54.73.73,0,0,1,.52-.19H16a.71.71,0,0,1,.5.18.62.62,0,0,1,.14.18.72.72,0,0,1,.36-.33.62.62,0,0,1,.31-.07ZM16,61.05c-.22,0-.36.08-.41.21a.2.2,0,0,0,0,.11.27.27,0,0,0,.07.2.24.24,0,0,0,.14.1l.22,0a.66.66,0,0,0,.3-.07.27.27,0,0,0,.12-.25.26.26,0,0,0-.13-.25A.5.5,0,0,0,16,61.05Zm1.41,0c-.19,0-.32,0-.38.13a.29.29,0,0,0-.05.17.26.26,0,0,0,.17.26.62.62,0,0,0,.26,0h.16a.32.32,0,0,0,.25-.1.25.25,0,0,0,.09-.2.29.29,0,0,0-.19-.27.4.4,0,0,0-.15,0Z"/><path class="cls-5" d="M15.09,49.15a.7.7,0,0,1,.23-.53.8.8,0,0,1,.54-.2h1.75a.75.75,0,0,1,.54.21.68.68,0,0,1,.23.52.7.7,0,0,1-.23.53.8.8,0,0,1-.54.2h-.07v-.5h.08a.32.32,0,0,0,.2-.07.21.21,0,0,0,.08-.17.22.22,0,0,0-.08-.18.27.27,0,0,0-.2-.07H17a.57.57,0,0,1,.15.37.55.55,0,0,1-.22.48,1,1,0,0,1-.55.14h-.55a.72.72,0,0,1-.4-.12.69.69,0,0,1-.26-.32A.67.67,0,0,1,15.09,49.15Zm.78-.26a.27.27,0,0,0-.2.07.19.19,0,0,0-.08.18.19.19,0,0,0,.08.17.32.32,0,0,0,.2.07h.59a.3.3,0,0,0,.23-.11.17.17,0,0,0,0-.13.22.22,0,0,0-.2-.23l-.09,0Z"/><path class="cls-5" d="M18.34,37.92H15.87v.41h-.34A.59.59,0,0,0,15.4,38a.6.6,0,0,0-.27-.23v-.34h3.21Z"/><path class="cls-5" d="M17.61,35.48a.72.72,0,0,1,.54.22.74.74,0,0,1,.23.54.73.73,0,0,1-.23.54.74.74,0,0,1-.54.23H15.86a.76.76,0,0,1-.54-1.31.73.73,0,0,1,.54-.22Zm-1.76.5a.26.26,0,0,0-.2.08.28.28,0,0,0-.08.2.27.27,0,0,0,.08.19.26.26,0,0,0,.2.08H17.6a.24.24,0,0,0,.2-.08.24.24,0,0,0,.08-.19A.27.27,0,0,0,17.6,36Z"/><path class="cls-5" d="M18.34,25.45H15.87v.41h-.34a.65.65,0,0,0-.13-.33.58.58,0,0,0-.27-.22V25h3.21Z"/><path class="cls-5" d="M18.34,24.16H15.87v.41h-.34a.59.59,0,0,0-.13-.33.6.6,0,0,0-.27-.23v-.34h3.21Z"/></g><polyline class="cls-6" points="167.35 153.34 7.04 153.34 7.04 11.34"/><polygon class="cls-7" points="162.02 146.3 165.01 153.34 162.02 160.37 178.7 153.34 162.02 146.3"/><polygon class="cls-7" points="14.07 16.68 7.04 13.69 0 16.68 7.04 0 14.07 16.68"/></g></g></g></svg>