<svg xmlns="http://www.w3.org/2000/svg" viewBox="0 0 170.37 170.37"><defs><style>.cls-1,.cls-2{fill:none;stroke-miterlimit:10;stroke-width:4px;}.cls-1{stroke:#5071cc;}.cls-2{stroke:#ff3131;}.cls-3{fill:#ff3131;}.cls-4{fill:#5071cc;}</style></defs><g id="Layer_2" data-name="Layer 2"><g id="Layer_2-2" data-name="Layer 2"><polyline class="cls-1" points="85.18 99.12 71.74 99.12 71.74 85.06"/><polyline class="cls-1" points="85.18 71.12 98.63 71.12 98.63 85.18"/><line class="cls-2" x1="11.94" y1="85.18" x2="158.43" y2="85.18"/><polygon class="cls-3" points="17.56 92.59 14.41 85.18 17.56 77.78 0 85.18 17.56 92.59"/><polygon class="cls-3" points="152.81 92.59 155.96 85.18 152.81 77.78 170.37 85.18 152.81 92.59"/><line class="cls-1" x1="85.18" y1="11.94" x2="85.18" y2="158.43"/><polygon class="cls-4" points="77.78 17.56 85.18 14.41 92.59 17.56 85.18 0 77.78 17.56"/><polygon class="cls-4" points="77.78 152.81 85.18 155.96 92.59 152.81 85.18 170.37 77.78 152.81"/></g></g></svg>