<svg xmlns="http://www.w3.org/2000/svg" xmlns:xlink="http://www.w3.org/1999/xlink" viewBox="0 0 196.32 201.6"><defs><style>.cls-1,.cls-5{fill:none;}.cls-2{clip-path:url(#clip-path);}.cls-3{fill:url(#linear-gradient);}.cls-4{fill:#333;}.cls-5{stroke:red;stroke-miterlimit:10;}.cls-6{fill:red;}</style><clipPath id="clip-path" transform="translate(55.42 8.16)"><circle class="cls-1" cx="70.45" cy="70.45" r="70.45"/></clipPath><linearGradient id="linear-gradient" x1="137.16" y1="129.1" x2="106.4" y2="-8.44" gradientUnits="userSpaceOnUse"><stop offset="0" stop-color="#ace4f9"/><stop offset="1" stop-color="#ef9116"/></linearGradient></defs><g id="Layer_2" data-name="Layer 2"><g id="Layer_10" data-name="Layer 10"><g class="cls-2"><circle class="cls-3" cx="125.87" cy="78.61" r="70.45"/><path class="cls-4" d="M104.75,124l-33-25.73a.55.55,0,0,0-.08-.18,8,8,0,0,0-2.25-2.27,24.4,24.4,0,0,0-4.18-2.62l-7.59-5.92L56,86.33c0-5.69,0-11.69,0-12.5-.06-1.6-.15-2.22.75-2.47l.22-.06,54.21,42.12v-.61L57.47,71.16c1.16-.28,3-.69,4.31-1.07,1.7-.48,1.82-.72,1.82-.28s-.33,1,.52,1.7a7.41,7.41,0,0,0,4.92.93c2-.29,3.87-.67,3.95-1.69s0-1.06.61-1.1.31-.71.26-1.89-.17-.84.78-1.13.57-.79.57-1.95.06-2-.58-2.18A1.46,1.46,0,0,1,73.69,61c0-.64,0-4,0-5.23s.14-1,.69-1.29.56-.17,1.13-.46-.18-1.23.21-1.49.38.08.78.06.55.23.67-.43.38.32.93.38a.54.54,0,0,0,.52-.26l47,38.34V90L78.8,51.84a3.21,3.21,0,0,0,0-.55c0-.73.51-.45.81-1.12v0a13.59,13.59,0,0,0,4.27.74,9.33,9.33,0,0,0,3.46-.63,15.85,15.85,0,0,0,5.24-3.14c.34-.29.65-.57,1-.84a5.3,5.3,0,0,0,1.17-1.14c.4.18.67.23.63-.15,0-.1,0-.21,0-.32,21.91,18.15,40.9,33.57,40.9,33.57v-.68S93.43,41.91,93,41.48l-.31-.29A16.56,16.56,0,0,0,90.74,39l-.15-.16c-.35-.43-.74-.91-1.19-1.43a1.5,1.5,0,0,1,.11-.64c.37-1-.84-2-1.44-2.26s-1-.26-.92-.85a1.67,1.67,0,0,0-1.23-1.54c-.8-.34-1.49-.57-.31-.81s1.18-.37,1.13-1.15a3.86,3.86,0,0,0-.55-2.49c-.62-.69-1-.73-2.57-.13-.49.19-1.61.56-3,1l-.8-.72c1.84-.45,2.55-.52,2.66-1.19s.1-2.42-.5-3-.69-.86-1.29-.71-1.57.71-1.57.49.38-.22,1.17-.69.64-1,0-1.56.26-.74-.33-1.37a1,1,0,0,0-1-.31,4.55,4.55,0,0,0-.37-2.21c-.63-1.23-3-4.26-6.3-3.59-2.73.56-3,4.51-3,5.82l-1-.69c-.34-.24-.55-.3-.69-.26l-1.45-1.2c-1.1-.9-2-1.69-2.67-2.17C61.28,13.47,34.44-7.94,34.16-8.15l-.29.36c.27.22,27.12,21.62,29.41,23.41l1,.78a1.82,1.82,0,0,1,.24,1.5c-.12.53-1.24.65-2.32.76s-2.28.24-2.31.88c-.07,1.19,2.33,5.58,3.19,6.68a4.44,4.44,0,0,0,2.19,1.14,10.9,10.9,0,0,1,1.31.5c-4,1.3-8.88,2.83-9.55,3l-.44-.32a.15.15,0,0,0-.15-.18c-.43-.07-.31-.43-.7-.62s-.76-.46-.69-2.2.16-2.9-1.1-3.48a5,5,0,0,0-3.54-.15c-.45.3-1,1-1.5.77A11.3,11.3,0,0,1,47.55,24l-2.24-1.64a1.15,1.15,0,0,1-.07-.24c-.08-.45-.65-.19-.84-1s-.55-2-1.55-2.27-.78.45-1.4-.66A2.34,2.34,0,0,0,39,16.86c-.5.25-.44.38-.79,0s-.84-.77-1.25-1.1a1.59,1.59,0,0,0-.77-.35L5.05-8.16l-.28.38,31,23.49v0c0,.49-.31.09-.41.54s.29.78,1.33,1.25h-.08a29.87,29.87,0,0,1-.84,3.82c-.07.27-.14.5-.21.72a6.65,6.65,0,0,0-.41,3.55A12.63,12.63,0,0,0,37.29,31a10.18,10.18,0,0,0,1.91,1.87c-.56.06-.35.68-.16,1s-.09.52-.55.94.42,1,.79,1.15.69,0,.7.23.1.17-.26.28l-7.93,2.63a13.54,13.54,0,0,0-5.12-.71,6.91,6.91,0,0,0-2.87,1.13c-.17-.28-.08-.38.17-.55s.18-.3-.18-.6-.62-.58-1.19-.4-.64.13-1.22-.27a3.24,3.24,0,0,0-1.64-.73c-.61,0-.88-.31-2.13-.47a5.78,5.78,0,0,0-3.38.91.62.62,0,0,1-.38.17L13,37c-4.18-2.77-8.12-5.39-10.07-6.47C-1.15,28.25-54.62-5.87-55.16-6.22l-.26.4c.54.34,54,34.47,58.12,36.73.71.39,1.69,1,2.86,1.73,0,.24.14.94.48,1.12a2.67,2.67,0,0,1,.75.56.26.26,0,0,0,.13.06c.77,1.66,2,4.23,2.51,5.28l.1.19c.92,1.79,2.84,5.51,6,5.72l2,.11c.67,0,1.24.06,1.73.11a1,1,0,0,0,.43.72c.59.37.89.56,1.13.46s.79-.28.79-.28l.13,0c.49.3,1.1.65,1.73,1l.76.44A2.08,2.08,0,0,0,25,49.93c.46.26.54.33.68,1s.45,1.32,0,1.37-1.39-.09-1.75,1.52.08,3.14,0,3.61-.22.6.16.86-.17.37-.12.57.48.31,0,.63.45.83,0,.91,0,.65-.32.66-.1,0-.35-.6-1.37-.33-1.85-.12-.21,0-.33-1.86-.68-2.89-1.21-2.92a2,2,0,0,1-1.18-.6c-.26-.22-.16-1.42-.8-1.14s-.46-.77-.94-.35.21.61.05,1,.27.39.47.6.61.48.22.58-.83.35-.83,1.25.25,3.21.33,3.78.12,1,.6,1.2.47.26.34.71.4.51.1.79.23.53,0,.81-.14.63-.12,1.24L-55.18,25l-.22.42L18.12,66a.65.65,0,0,1-.76.53c-.21,0-.24.73-.24,1.39s-.12,1.07.51,1,.71.11.71.44,0,9.79,0,10.87-.24,2.45.35,2.86,1.48,1,5,.65,3.5-1.77,3.45-2.25.22-.22.56-.44.26-.17.78.13.46.11.44-.26,0-1.13,0-1.87.35-.71,1.55-1c.78-.21,4.1-1,6.38-1.58l5.75,3.21,6.54,3.53,2,110.26h7.07L56,97s0-4.88,0-10.16l1.4.75,7.66,6a4.9,4.9,0,0,0,1.13,1.48,27.91,27.91,0,0,0,4.42,3.2,2.32,2.32,0,0,0,.72.21l33.45,26.07ZM19.22,43.28c0,.22,0,1,0,1.54,0,.23,0,.52,0,.81-.49-.05-1-.08-1.7-.11s-1.22-.05-2-.1c-3.06-.21-4.95-3.88-5.86-5.64l-.1-.19c-.54-1-1.71-3.54-2.48-5.2.25,0,.52-.22.36-.52,1.49,1,3.16,2.08,4.87,3.22a1,1,0,0,0,0,.16,1.13,1.13,0,0,0,.47.85,1.2,1.2,0,0,0,1.2.17l.07,0,.47.32c0,.08.1.18.15.28.18.38.6.55.42.87s.27.9.42,1.22.44.74.84.68.26.29.73.94.39.91.65.79.09-.5-.22-1-.56-.91-.19-.89.48.41.7.82a1.21,1.21,0,0,0,.87.61C19.28,43,19.22,43.05,19.22,43.28Zm2-3.41c-.57.53-1-.12-1.7-.3s-.63.27-.82-.1a2.28,2.28,0,0,0-.91-1A1.79,1.79,0,0,0,16,38.16c-.5.3-.81,0-1.13-.13a1.29,1.29,0,0,1-.43-.23c-.16-.16,1-.71,2.19-.94s1.12.13,2.19.38,1.08.18,1.67.63.77.51.68,1S21.77,39.35,21.21,39.87Zm2.67,1.25c.79-.29.44-1,.08-1.42l-.08-.09a6.74,6.74,0,0,1,2.81-1.1,12.77,12.77,0,0,1,4.84.64c-3.25,1.07-6.35,2.09-7,2.26-1.34.39-1.89.78-1.87.33S23.09,41.4,23.88,41.12Zm1.13,5c-1.06.34-.83.88-.83,1.82l-.67-.39-1.61-.95,3.62-1.17.58.36Zm19.23-6.72c.12.2.23.4.32.58-4.9,1.56-12.65,4-13.45,4.3s-2.84.87-4.41,1.34l-.59-.38C31.18,43.61,39.26,41,44.24,39.39Zm5,6.77c0,1.42,0,1.92-.43,1.81s-.48-.12-.52-1.67-.63-1.79-1.75-1.78a15.15,15.15,0,0,0-.35-1.58c0-.16-.09-.29-.13-.4.65-.22,1.23-.41,1.66-.57,1.69-.63,1.4-.42,1.39.52S49.19,44.75,49.24,46.16Zm-2.86-1.63h0c-1.23,0-1.73.26-1.76.84S44.89,47,44,46.74s-4.87-1.67-5.35-1.84h0c-.12,0,.31-.25,1.74-.62,1.05-.27,3.63-1,5.61-1.68,0,.12.09.25.13.4A14.74,14.74,0,0,1,46.38,44.53Zm-5.14,7.84c.41-.41.34-.7-.15-1.76a10.32,10.32,0,0,1-.69-2.22,18.87,18.87,0,0,1,2.89.74c1.2.38,1.19.18,1.05.61A1.83,1.83,0,0,0,44.65,51c.13.22.37.52,0,.93s.29,1,.07,1.16a.5.5,0,0,0,.11.82c.35.23.29.38-.1.53s-.47.57-1.16.56-1.12.16-1.12-.38-.22-.84-.92-.73-.59-.14-.37-.63S40.83,52.78,41.24,52.37Zm-2.84,2c-2.07-1.69-4.91-3.9-7.59-5.86A18.44,18.44,0,0,1,35.1,47.2c1.31-.12,2.85.18,2.42.44s-1,.41-.86,1.2.67,2.63.94,3.6,1,1.21.8,1.54A.36.36,0,0,0,38.4,54.33Zm-1.57-7.92c-.2,0-.71-.14-.39-.35s.2-.46.86-.36,4.79,1.46,5.88,1.76,1.31.49,1.26.82,0,.2-2.39-.36S36.83,46.41,36.83,46.41ZM26.9,62.23c-.44-.57-.47-.46-.17-1s-.34-.79-.17-.93.61-.27.37-.67a.67.67,0,0,1,.28-1.07c.56-.32.55-.87.88-3.29s-1.21-3-1.77-3.92c-.33-.54-.1-.92.7-1.35,1.35,1,3.84,3.11,4.14,4.8a14.37,14.37,0,0,0,1.08,3.12c-.58.27-.22,1.05-.42,1.28s-.17.89-.17,1.16-.07.43.09.62.3.14,0,.31-.08.43.12.6-.23.16-.23.41-.08.48-.56.06-.89-.25-1.12.4-.22,1.15-1.16.28S27.33,62.79,26.9,62.23Zm1.92,12c0-.17,0-1.1,0-2.23l3,1.68C30.19,74.1,28.82,74.47,28.82,74.18ZM34.07,73l-1.62.45-3.64-2c0-1.65,0-3.52,0-4,0-.91,0-.9.55-1s.46-.19.45-.6,0-1,0-1a2.57,2.57,0,0,1,1.42-.45c.09.12.09.37.43.31s.52-.08.45-.37-.06-.24.32-.36.14-.16.34.29.88-.08.87-.47a.93.93,0,0,1,.48-1c.43-.22.31-.44,0-.73s.3-.27.33-.57-.62-.36-.36-.45.37-.35,0-.63-.16-.22.12-.44-.4-.33-.4-1,0-1.21-1.18-1.15l-.27,0a14,14,0,0,1-1.08-3.08C31,53,28.55,51,27.17,49.91c.55-.28,1.33-.58,2.34-1l.77-.28c2.94,2.14,6.13,4.63,8.27,6.4h0a1.05,1.05,0,0,0,0,1.23c.29.46.24.78-.39,1s-.82,2.46-.78,2.88,0,1,.56.87.78,0,.78.23v10.5S36.42,72.38,34.07,73Zm8.76,6.25-5.31-3,1.55-.37a7.11,7.11,0,0,0,3.65,1,8.64,8.64,0,0,0,4.11-.85c.72-.34.49-.28.46.35s.12,1,.74.8a1.19,1.19,0,0,1,1,.06l.1,5.33Zm6.26-25.11c0,.89.07,1-.32.72a4.64,4.64,0,0,0-1.33-.28c-.43-.1-.46-.29-.14-.48s.53-.5.3-.71-.29-.3,0-.47a.62.62,0,0,0,.11-.9c-.24-.22,0-.31.22-.56a.69.69,0,0,0,.21-.59c0-.11,0-.13.37,0s.72.26.72.51S49.14,53.24,49.09,54.14ZM48.93,50c-.43-.17-.65-.17-.63-.4a1.51,1.51,0,0,0,0-.35c0-.07,0-.06.35.05s.62.16.61.4S49.35,50.14,48.93,50Zm.33-11.63c0,.16-.24.21-.72.36l-3.83,1.22h0c-.1-.19-.2-.38-.32-.58,2.37-.76,4-1.3,4.21-1.39C49.49,37.58,49.27,38.2,49.26,38.35Zm-.06-4.86c-.38.15-4.49,1.25-5.7,1.69s-1.16.5-1.16,0a1.74,1.74,0,0,0-.52-1.2c-.37-.43-.42-.35-.08-.79s-.47-1-1.11-.89-.42.58-1.18.53a11.09,11.09,0,0,1-2-2,12.53,12.53,0,0,1-2.17-5.31,6.6,6.6,0,0,1,.41-3.48q.11-.33.21-.72a30.29,30.29,0,0,0,.84-3.82l.09,0c1.17.51,1,.56,1,1.42s.91,1.28,1.67,1.34.75,0,.89.62.47.91,1.35,1.2,1.91.14,2.16.39.56.3,1.19.4.72.36,1.39.76l1.43,1v.11c0,.42.81.43.75.86s.68.63.71,1.22S49.57,33.34,49.2,33.49Zm15.39,4.45a6.55,6.55,0,0,1,.8-.25,22.34,22.34,0,0,0,3.48-1.11c1.32-.6,1.92-.56,1.4-.06s-1.08,1.32-1.39,1.53a3.69,3.69,0,0,1-1.71.2c-.64,0-.19.47-.4.47s-.46.82-.73.39a3.38,3.38,0,0,0-1-.76C64.86,38.22,64.72,38.08,64.59,37.94Zm4.8,11.31a.62.62,0,0,0-.37.81c.06.27-1-.37-2,0s-.95.46-1.12-.21,0-.93-.31-1.39.12-.38.38-1.22a10.56,10.56,0,0,0,0-3.07c0-1.28-.51-1.74.37-2.48.22-.19.45-.4.68-.62l1.1,1.1c.12.74.32,1.52.43,2.1.25,1.31-.09,1.38.46,1.71s0,.43.07.88.48.56.18.89-.54.46,0,.78S69.84,49,69.39,49.25Zm1-9.85c0,.21-.93.15-1.85.64-.37.21-.47.73-.44,1.36l-.69-.68A13.68,13.68,0,0,1,69,39.28a5.68,5.68,0,0,1,.67-.41.23.23,0,0,1,.24,0C70.06,39,70.38,39.26,70.35,39.4ZM76,50.07c-.55-.38-.65,0-.72.53s-.08.6-.78-.16-2.49-.61-2.58-.91-.5-.37-.16-.55.79-.33.67-.59-.57-.63-.37-.72.46-.19.3-.45-.32-.42,0-.73a.26.26,0,0,0,.08-.11l4,3.83A.69.69,0,0,1,76,50.07ZM76.8,49c-.11.23-.41.39-.17.7a.75.75,0,0,1,.07.12l-4.32-4.16c.22,0,.48-.18.36-1.44-.14-1.48-.28-4.3-1.16-4.58a2.48,2.48,0,0,1-1.29-1.08c-.29-.4.95-1.29,1.4-1.81s.68.1,1.18-.09-.06.23.57.9,1.15.47.72,1-.77.77-.52.76.65.11.94.74a7.35,7.35,0,0,1,1,2.9c0,1.26-.13,2.07,0,3.55s.67,1.38.62,1.88S76.91,48.76,76.8,49Zm-.34-8.74c.12.53.17.54-.22.46s-.65-.24-.47-.73a.43.43,0,0,0-.25-.61c-.2-.1.38-.19.79,0S76.35,39.73,76.46,40.25Zm7-4.06a8.86,8.86,0,0,1-2.1-2.87c-.47-.73.75-.89,1.55-1s.64.94,1,1.84.66,1.36,1.66,1.51.58,1.15.84,1.55.4.76,1,1,.72.36.37.68.24.48-.25.71.24.29-.08.78.4,1,.75.55,1.12,0,1-.4-.41-.44.07-.47-.11-.33.17-.7.27-.35.68,0,0,.74.73,1.33a4.64,4.64,0,0,1,1,1c.36.4.69.38.91.19.16.15.8.79,1.81,1.83,0,.1,0,.22,0,.38,0,.49-.41.64,0,.88a4.92,4.92,0,0,1-1,1c-.38.27-.7.56-1,.85a15.31,15.31,0,0,1-5.11,3.06c-2.85,1.15-6,.35-7.51-.16-.09-.36-.4-.6-.15-.83s-.43-.43,0-.76-.72-.75-.66-1.36,0-1.06-.88-1.06-1.13.49-1.13.1a13.25,13.25,0,0,1-.69-2.28c0-1-.28-1,.84-1.33S77,40.49,77.17,40a1.23,1.23,0,0,0-1-1.53c-1-.3-.75-.4-.21-.67s.62-1.44.72-2.35,0-.48.52.06,1.25.72,1.61.28.37-.63,1.23.27a26.55,26.55,0,0,0,2.58,2.75c1,.82,1.56.94,2.19-.28S84.56,37,83.42,36.19ZM79.29,28l.84.75c-2.86.92-6.57,2.06-8.24,2.53-2.6.74-2.42.78-2.31.35S70,31,71.46,30.56,76,28.89,78.7,28.15Zm-8.82-4.73c-.18-.67.2.24.74.25s.8-.24.87.54.31.73,1.16,1.11.15.36-1.18.87c-.29.11-1.15.4-2.32.78L70,24.19h0C70.64,24.15,70.66,23.94,70.47,23.27Zm1.87-9.35c3.21-.66,5.52,2.3,6.13,3.5a4.42,4.42,0,0,1,.35,2.16,1.49,1.49,0,0,1-.54,0c-.72-.21-1,.38-.88.92s.68.73.22.94a1.31,1.31,0,0,0-.69,1.28,1.37,1.37,0,0,0,1.2.68c.57,0,.44.41,0,.56a14.7,14.7,0,0,1-1.66.52c-.32.07-.62-.57-1.14-1.66s-1.91-.7-2.09-1.42a2.06,2.06,0,0,0-1.66-1.47c-.73-.07-1.08.54-1.45.26-.17-.13-.39-.27-.65-.45C69.49,18.54,69.64,14.46,72.34,13.92Zm-7,13.3a4.41,4.41,0,0,1-2.12-1.1c-1-1.22-3.22-5.47-3.16-6.58,0-.5,1.12-.61,2.17-.72s2.32-.25,2.46-.88a2.09,2.09,0,0,0-.07-1.28l1.37,1.14,1.62,1.33a.7.7,0,0,0,.06.17,2.08,2.08,0,0,0,1.18.84l.35.29a4.91,4.91,0,0,1-.1.77.86.86,0,0,0,.41.71c.19.17.27.37-.31.23s-.39.17-.23.45.4.39.09.4-.27.24-.09.66a.84.84,0,0,0,.91.54l-.25,2.68c-.83.28-1.8.59-2.83.92A8.7,8.7,0,0,0,65.29,27.22ZM67,32.12s.08,0,.06.09L66.5,33a.33.33,0,0,1-.17.14l-5,1.58-.6-.58Zm-11.83,4a.24.24,0,0,1,.17-.25l4.88-1.56.6.58-5.31,1.67a.24.24,0,0,1-.31-.2Zm.07,4.9a.16.16,0,0,1,.12-.15l4.51-1.37L55.35,43.9a.08.08,0,0,1-.14-.06Zm.1,4.69c.7-.67,5.09-4.93,5.79-5.62s.55-.65,1.3-.65.41.6.76,1.17,1,1-.32,1.26S61.92,44,61.92,44L55.55,50l-.33-4.13A.32.32,0,0,1,55.31,45.68Zm.17,5.61c0-.23.39-.19,1.26-.9s3.19-3,4.37-4,.92-.8.93,0A7.78,7.78,0,0,0,62.13,48c.11.59.91.29.64,1s.7.33.24,1.14.15,1.21.05,2.07-.8.14-1,.67A9.9,9.9,0,0,0,62,55.49c0,.67.16.78.59.71a.92.92,0,0,1,.88.16c.17.17,0,8.92,0,8.92l-7.68,1.94Z" transform="translate(55.42 8.16)"/><line class="cls-5" x1="126.56" y1="90.48" x2="164.25" y2="119.22"/><polygon class="cls-6" points="125.82 92.42 124.28 88.74 128.23 89.25 125.82 92.42"/><polygon class="cls-6" points="162.58 120.46 166.54 120.97 165 117.28 162.58 120.46"/><line class="cls-5" x1="121.24" y1="102.54" x2="158.93" y2="131.28"/><polygon class="cls-6" points="120.49 104.48 118.95 100.8 122.91 101.31 120.49 104.48"/><polygon class="cls-6" points="157.25 132.52 161.21 133.03 159.67 129.34 157.25 132.52"/></g></g></g></svg>