<svg xmlns="http://www.w3.org/2000/svg" viewBox="0 0 172.6 81.07"><defs><style>.cls-1{fill:#9a533a;}.cls-2{fill:#a65f46;}.cls-3{fill:#823b22;}.cls-4{fill:#762f16;}.cls-5{fill:#8e472e;}</style></defs><g id="Layer_2" data-name="Layer 2"><g id="Layer_10" data-name="Layer 10"><rect class="cls-1" x="19.95" y="4.57" width="132.71" height="6.8"/><rect class="cls-1" x="19.95" y="30.76" width="132.71" height="6.8"/><rect class="cls-2" x="12.98" width="6.96" height="43.57"/><rect class="cls-2" x="152.66" width="6.96" height="43.57"/><path class="cls-3" d="M71,30.76h3.34V11.37H71Z"/><ellipse class="cls-3" cx="54.49" cy="21.06" rx="2.36" ry="13.71"/><path class="cls-3" d="M61.9,30.76h3.34V11.37H61.9Z"/><rect class="cls-3" x="25.57" y="11.37" width="3.34" height="19.39"/><path class="cls-3" d="M43.74,30.76h3.34V11.37H43.74Z"/><path class="cls-3" d="M80.12,30.76H83.4V11.37H80.12Z"/><path class="cls-3" d="M34.65,30.76H38V11.37H34.65Z"/><path class="cls-3" d="M116.44,30.76h3.35V11.37h-3.35Z"/><path class="cls-3" d="M89.2,30.76h3.29V11.37H89.2Z"/><path class="cls-3" d="M125.53,30.76h3.34V11.37h-3.34Z"/><rect class="cls-3" x="143.69" y="11.37" width="3.34" height="19.39"/><path class="cls-3" d="M134.61,30.76H138V11.37h-3.34Z"/><path class="cls-3" d="M107.36,30.76h3.29V11.37h-3.29Z"/><path class="cls-3" d="M98.28,30.76h3.29V11.37H98.28Z"/><rect class="cls-2" y="43.57" width="172.6" height="5.13"/><rect class="cls-3" x="12.98" y="48.7" width="146.64" height="11.81"/><rect class="cls-4" x="12.98" y="48.7" width="146.64" height="5.52"/><rect class="cls-1" x="6.69" y="48.7" width="6.3" height="32.37"/><rect class="cls-5" x="6.69" y="48.7" width="6.3" height="5.52"/><rect class="cls-1" x="159.62" y="48.7" width="6.3" height="32.37"/><rect class="cls-5" x="159.62" y="48.7" width="6.3" height="5.52"/><rect class="cls-1" x="12.98" y="40.62" width="6.96" height="2.95"/><rect class="cls-1" x="152.66" y="40.62" width="6.96" height="2.95"/><rect class="cls-5" x="19.95" y="4.57" width="3.23" height="6.8"/><rect class="cls-5" x="19.95" y="30.76" width="3.23" height="6.8"/><rect class="cls-5" x="149.43" y="30.76" width="3.23" height="6.8"/><rect class="cls-5" x="149.43" y="4.57" width="3.23" height="6.8"/></g></g></svg>