<svg xmlns="http://www.w3.org/2000/svg" viewBox="0 0 217.51 118.94"><defs><style>.cls-1{fill:#af6215;}.cls-2{fill:#f4b25b;}.cls-3{fill:#e09544;}.cls-4{fill:#bc701d;}.cls-5{fill:#9b5415;}.cls-6{fill:#d1843f;}.cls-7{fill:#eda651;}.cls-8{fill:none;stroke:red;stroke-miterlimit:10;}.cls-9{fill:red;}</style></defs><g id="Layer_2" data-name="Layer 2"><g id="Layer_10" data-name="Layer 10"><path class="cls-1" d="M61.43,39.14,57.63,97a1.61,1.61,0,0,0,1.61,1.71h2.87a1.61,1.61,0,0,0,1.59-1.35l9.44-58.18Z"/><path class="cls-1" d="M156.09,39.14,159.88,97a1.61,1.61,0,0,1-1.6,1.71H155.4a1.61,1.61,0,0,1-1.59-1.35l-9.44-58.18Z"/><polygon class="cls-2" points="185.34 1.5 108.76 1.5 32.18 1.5 9.4 31.98 108.76 31.98 208.11 31.98 185.34 1.5"/><rect class="cls-3" x="9.4" y="31.98" width="198.7" height="7.16"/><rect class="cls-4" x="35.57" y="39.14" width="146.37" height="8.84"/><polygon class="cls-5" points="45.97 39.14 44.53 47.98 43.26 47.98 44.69 39.14 45.97 39.14"/><polygon class="cls-5" points="171.54 39.14 172.98 47.98 174.25 47.98 172.82 39.14 171.54 39.14"/><path class="cls-4" d="M44.69,39.14,32,117.13a2.16,2.16,0,0,1-2.13,1.81H26.06a2.15,2.15,0,0,1-2.15-2.3L29,39.14Z"/><path class="cls-4" d="M188.52,39.14l5.09,77.5a2.16,2.16,0,0,1-2.15,2.3H187.6a2.16,2.16,0,0,1-2.13-1.81l-12.65-78Z"/><rect class="cls-6" x="9.4" y="37.08" width="198.7" height="2.06"/><path class="cls-7" d="M22,24.27c-2.27,0-4.54,0-6.79,0L9.4,32H208.11L187.69,4.65C144,16.83,85.84,24.27,22,24.27Z"/><line class="cls-8" x1="2.15" y1="31.98" x2="215.36" y2="31.98"/><polygon class="cls-9" points="2.59 33.48 0 31.98 2.59 30.48 2.59 33.48"/><polygon class="cls-9" points="214.92 33.48 217.51 31.98 214.92 30.48 214.92 33.48"/><line class="cls-8" x1="2.15" y1="1.5" x2="215.36" y2="1.5"/><polygon class="cls-9" points="2.59 2.99 0 1.5 2.59 0 2.59 2.99"/><polygon class="cls-9" points="214.92 2.99 217.51 1.5 214.92 0 214.92 2.99"/></g></g></svg>