<svg xmlns="http://www.w3.org/2000/svg" viewBox="0 0 106.97 149.94"><defs><style>.cls-1{fill:#ebebeb;}.cls-2{fill:#b4b3b9;}.cls-3{fill:#f73754;}.cls-4{fill:#494852;}.cls-5{fill:#f2a544;}.cls-6{fill:#8c3351;}</style></defs><g id="Layer_2" data-name="Layer 2"><g id="Layer_10" data-name="Layer 10"><path class="cls-1" d="M89,126.81c.37-.12,9.34,0,10.54,0a12.51,12.51,0,0,0,.84,3.46c.43,1,2.33,3.52,2.21,4.37a6.33,6.33,0,0,1,1.31.13c-5,.08-9.93,0-14.9,0v-8Z"/><path class="cls-1" d="M29.44,126.81H72c6.26,0,12.57.13,18.82,0,0,1,.05,2.08,0,3.11a41.3,41.3,0,0,1,0,4.85c-.09,1.22,0,2.44,0,3.66H29.44v-8.51C29.5,128.88,29.47,127.85,29.44,126.81Z"/><path class="cls-1" d="M.06,122.47c1.48-5.3,5.37-10.08,11.14-10.71a49.7,49.7,0,0,1,5.46-.1h84.58c1.58,0,3.25-.14,4.82,0a2.23,2.23,0,0,1-.38,3.71c-.59,0-1.24-.06-1.83,0a6,6,0,0,1-1,0l0,0A22.66,22.66,0,0,0,99.49,123a35.32,35.32,0,0,0,0,3.85c-1.2,0-10.17-.12-10.54,0v3.11H74.24c0-1,0-2.07,0-3.11-4.56.13-9.17,0-13.74,0H29.44c-2.85,0-11.79-.44-14.35,0v8a27.94,27.94,0,0,1,0,3.66c-1.28-.05-2.6,0-3.87-.14C5.64,137.65.78,132.41.16,126.92,0,125.47.09,123.93.06,122.47Z"/><path class="cls-2" d="M3.92,126.81c.21-.11,1.46-1.77,1.86-2.14,2.52-2.32,11.13-1.93,15-1.71-1.87.11-3.77,0-5.64,0v3.85c-4.89,0-6.71,0-9.17,4.31A11.49,11.49,0,0,1,3.92,126.81Z"/><path class="cls-3" d="M29.44,123H20.73c-1.87.11-3.77,0-5.64,0v11.81a27.94,27.94,0,0,1,0,3.66c0,3.83-.1,7.68,0,11.51,2.53-2,4.73-4.5,7.3-6.5,2.41,2.11,4.69,4.33,7.05,6.5v-20c0-1,0-2.07,0-3.11A33,33,0,0,0,29.44,123Z"/><path class="cls-1" d="M5.92,131.12c2.46-4.35,4.28-4.33,9.17-4.31v8C11.22,134.65,8.66,134.35,5.92,131.12Z"/><path class="cls-2" d="M29.44,123H92.5c2.31,0,4.68-.11,7,0a35.32,35.32,0,0,0,0,3.85c-1.2,0-10.17-.12-10.54,0H74.24c-4.56.13-9.17,0-13.74,0H29.44A33,33,0,0,0,29.44,123Z"/><path class="cls-4" d="M.06,122.47c1.48-5.3,5.37-10.08,11.14-10.71a49.7,49.7,0,0,1,5.46-.1h84.58c1.58,0,3.25-.14,4.82,0a2.23,2.23,0,0,1-.38,3.71c-.59,0-1.24-.06-1.83,0H15.51c-3.3,0-6.27.09-8.82,2.6a10.07,10.07,0,0,0-2.77,8.85,11.49,11.49,0,0,0,2,4.31c2.74,3.23,5.3,3.53,9.17,3.65a27.94,27.94,0,0,1,0,3.66c-1.28-.05-2.6,0-3.87-.14C5.64,137.65.78,132.41.16,126.92,0,125.47.09,123.93.06,122.47Z"/><path class="cls-5" d="M12.45,0h7.41v105.6c0,.21,0,.35.15.5,10.31-.14,20.63,0,30.94,0h55.83c0,1.27.64,5.39-.72,5.58-1.57-.14-3.24,0-4.82,0H16.66a49.7,49.7,0,0,0-5.46.1c-5.77.63-9.66,5.41-11.14,10.71a22.94,22.94,0,0,1,0-3V14.63a32,32,0,0,1,.12-4.27C1,4.18,6.37.18,12.45,0Z"/><path class="cls-4" d="M.06,113.65v-99a32,32,0,0,1,.12-4.27C1,4.18,6.37.18,12.45,0V106.08c-7,.26-9.87,3-12.39,8.88Z"/><path class="cls-6" d="M19.86,0H99.74c6.36-.08,7,.31,7,7.3v98.77H51c-10.31,0-20.63-.1-30.94,0-.16-.15-.13-.29-.15-.5Z"/><path class="cls-4" d="M101.18,134.77c-9,.08-18,0-26.94,0H29.44v3.66H93.13c3.46,0,7.22.2,10.65,0S109.67,134.81,101.18,134.77Z"/></g></g></svg>