<svg xmlns="http://www.w3.org/2000/svg" viewBox="0 0 67.66 73.92"><defs><style>.cls-1{isolation:isolate;}.cls-2{opacity:0.27;mix-blend-mode:multiply;}.cls-3{fill:#353942;}.cls-4{fill:#ffdf24;}.cls-5{mix-blend-mode:overlay;}.cls-6{fill-rule:evenodd;}.cls-7{fill:#fff;}</style></defs><g class="cls-1"><g id="Layer_2" data-name="Layer 2"><g id="Icons_Header"><rect class="cls-2" x="0.74" y="7.74" width="66.18" height="66.18" rx="25.66"/><rect class="cls-3" width="67.66" height="67.66" rx="26.01"/><rect class="cls-4" x="5" y="5" width="57.66" height="57.66" rx="21.01"/><g class="cls-5"><path class="cls-6" d="M24,27.84H18.6A4.15,4.15,0,0,0,14.45,32v9.68a4.16,4.16,0,0,0,1.22,2.94,4.11,4.11,0,0,0,2.93,1.21H24l3.91,4.7a4.16,4.16,0,0,0,7.35-2.65V25.79a4.16,4.16,0,0,0-7.35-2.65Z"/><path class="cls-6" d="M45.66,24.93a17.28,17.28,0,0,1,.05,23.81,1.38,1.38,0,0,0,2,1.9,20,20,0,0,0,0-27.62,1.38,1.38,0,0,0-2-.05A1.4,1.4,0,0,0,45.66,24.93Z"/><path class="cls-6" d="M42.06,28.55a11.8,11.8,0,0,1,0,16.53,1.39,1.39,0,0,0,2,1.94,14.58,14.58,0,0,0,0-20.4,1.38,1.38,0,0,0-2,1.93Z"/><path class="cls-6" d="M38.39,32.43a6.23,6.23,0,0,1,0,8.81,1.38,1.38,0,0,0,1.95,1.95,9,9,0,0,0,0-12.72,1.38,1.38,0,0,0-2,2Z"/><path d="M31.06,55a7.13,7.13,0,0,1-5.5-2.58l-3-3.62H18.6a7.14,7.14,0,0,1-7.15-7.15V32a7.17,7.17,0,0,1,7.15-7.16h3.94l3-3.61a7.13,7.13,0,0,1,5.5-2.58,7,7,0,0,1,2.43.43,7.17,7.17,0,0,1,4.72,6.72V47.87A7.16,7.16,0,0,1,31.06,55Z"/><path d="M46.71,54.07a4.38,4.38,0,0,1-3.18-7.39,14.28,14.28,0,0,0,0-19.68,4.39,4.39,0,0,1,6.35-6.06A23.06,23.06,0,0,1,49.9,52.7a4.43,4.43,0,0,1-3.19,1.37Z"/><path d="M43.07,50.43A4.38,4.38,0,0,1,39.94,43a8.8,8.8,0,0,0,0-12.33,4.39,4.39,0,0,1,6.26-6.15,17.59,17.59,0,0,1,0,24.6,4.4,4.4,0,0,1-3.14,1.32Z"/><path d="M39.36,46.6a4.38,4.38,0,0,1-3.1-7.49,3.21,3.21,0,0,0,1-2.28,3.24,3.24,0,0,0-.94-2.28,4.39,4.39,0,0,1,0-6.2,4.38,4.38,0,0,1,6.19,0,12,12,0,0,1,0,17,4.35,4.35,0,0,1-3.09,1.28Z"/><path d="M24,27.84H18.6A4.15,4.15,0,0,0,14.45,32v9.68a4.16,4.16,0,0,0,1.22,2.94,4.11,4.11,0,0,0,2.93,1.21H24l3.91,4.7a4.16,4.16,0,0,0,7.35-2.65V25.79a4.16,4.16,0,0,0-7.35-2.65Z"/><path d="M45.66,24.93a17.28,17.28,0,0,1,.05,23.81,1.38,1.38,0,0,0,2,1.9,20,20,0,0,0,0-27.62,1.38,1.38,0,0,0-2-.05A1.4,1.4,0,0,0,45.66,24.93Z"/><path d="M42.06,28.55a11.8,11.8,0,0,1,0,16.53,1.39,1.39,0,0,0,2,1.94,14.58,14.58,0,0,0,0-20.4,1.38,1.38,0,0,0-2,1.93Z"/><path d="M38.39,32.43a6.23,6.23,0,0,1,0,8.81,1.38,1.38,0,0,0,1.95,1.95,9,9,0,0,0,0-12.72,1.38,1.38,0,0,0-2,2Z"/></g><path class="cls-6" d="M24,24.84H18.6A4.15,4.15,0,0,0,14.45,29v9.68a4.16,4.16,0,0,0,1.22,2.94,4.11,4.11,0,0,0,2.93,1.21H24l3.91,4.7a4.16,4.16,0,0,0,7.35-2.65V22.79a4.16,4.16,0,0,0-7.35-2.65Z"/><path class="cls-6" d="M45.66,21.93a17.28,17.28,0,0,1,.05,23.81,1.38,1.38,0,0,0,2,1.9,20,20,0,0,0,0-27.62,1.38,1.38,0,0,0-2-.05A1.4,1.4,0,0,0,45.66,21.93Z"/><path class="cls-6" d="M42.06,25.55a11.8,11.8,0,0,1,0,16.53,1.39,1.39,0,0,0,2,1.94,14.58,14.58,0,0,0,0-20.4,1.38,1.38,0,0,0-2,1.93Z"/><path class="cls-6" d="M38.39,29.43a6.23,6.23,0,0,1,0,8.81,1.38,1.38,0,0,0,1.95,1.95,9,9,0,0,0,0-12.72,1.38,1.38,0,0,0-2,2Z"/><path class="cls-3" d="M31.06,52a7.13,7.13,0,0,1-5.5-2.58l-3-3.62H18.6a7.14,7.14,0,0,1-7.15-7.15V29a7.17,7.17,0,0,1,7.15-7.16h3.94l3-3.61a7.13,7.13,0,0,1,5.5-2.58,7,7,0,0,1,2.43.43,7.17,7.17,0,0,1,4.72,6.72V44.87A7.16,7.16,0,0,1,31.06,52Z"/><path class="cls-3" d="M46.71,51.07a4.38,4.38,0,0,1-3.18-7.39,14.28,14.28,0,0,0,0-19.68,4.39,4.39,0,0,1,6.35-6.06A23.06,23.06,0,0,1,49.9,49.7a4.43,4.43,0,0,1-3.19,1.37Z"/><path class="cls-3" d="M43.07,47.43A4.38,4.38,0,0,1,39.94,40a8.8,8.8,0,0,0,0-12.33,4.39,4.39,0,0,1,6.26-6.15,17.59,17.59,0,0,1,0,24.6,4.4,4.4,0,0,1-3.14,1.32Z"/><path class="cls-3" d="M39.36,43.6a4.38,4.38,0,0,1-3.1-7.49,3.21,3.21,0,0,0,1-2.28,3.24,3.24,0,0,0-.94-2.28,4.39,4.39,0,0,1,0-6.2,4.38,4.38,0,0,1,6.19,0,12,12,0,0,1,0,17,4.35,4.35,0,0,1-3.09,1.28Z"/><path class="cls-7" d="M24,24.84H18.6A4.15,4.15,0,0,0,14.45,29v9.68a4.16,4.16,0,0,0,1.22,2.94,4.11,4.11,0,0,0,2.93,1.21H24l3.91,4.7a4.16,4.16,0,0,0,7.35-2.65V22.79a4.16,4.16,0,0,0-7.35-2.65Z"/><path class="cls-7" d="M45.66,21.93a17.28,17.28,0,0,1,.05,23.81,1.38,1.38,0,0,0,2,1.9,20,20,0,0,0,0-27.62,1.38,1.38,0,0,0-2-.05A1.4,1.4,0,0,0,45.66,21.93Z"/><path class="cls-7" d="M42.06,25.55a11.8,11.8,0,0,1,0,16.53,1.39,1.39,0,0,0,2,1.94,14.58,14.58,0,0,0,0-20.4,1.38,1.38,0,0,0-2,1.93Z"/><path class="cls-7" d="M38.39,29.43a6.23,6.23,0,0,1,0,8.81,1.38,1.38,0,0,0,1.95,1.95,9,9,0,0,0,0-12.72,1.38,1.38,0,0,0-2,2Z"/></g></g></g></svg>