<svg xmlns="http://www.w3.org/2000/svg" viewBox="0 0 548.37 260.49"><defs><style>.cls-1{fill:#ea3939;}</style></defs><g id="Layer_2" data-name="Layer 2"><g id="Try_Again" data-name="Try Again"><path class="cls-1" d="M179.82,58.37c1.91,19.23,4,40.53,5.41,57.7-22.41,3-51.66,4.76-51.66,4.76-.32-22.41-.32-39.41-.16-59.76-15.73,1.27-32.26,4.45-32.26,4.45-.48-21.61,1.11-49.43,1.11-49.43,32.42-2.54,61.19-4.45,97.75-7,4.77,20,8.58,49.11,8.58,49.11S193.33,57.73,179.82,58.37Z"/><path class="cls-1" d="M282,122.11c-9.54-11.29-19.07-25-23.21-31,.64,13.51,1.75,30.2,1.75,30.2-22.57-.63-45.3-1.75-45.3-1.75-1.27-32.26-.79-72.63-1-106.81C242.45,3.85,314.45-6.8,318.9,41.2c.8,9.38-3.18,23.69-17.48,34.65,12.72,14,24.8,29.41,24.8,29.41C301.74,113.68,282,122.11,282,122.11ZM256.28,43.27c.16,5.72.48,11.29.8,16.37C283,58.85,282.51,39,256.28,43.27Z"/><path class="cls-1" d="M414.75,79c0,13.2,0,25.91-.16,37.51-24.63,1.43-53.08,2.23-53.08,2.23.31-15.74.79-28.93,1.27-42.44-17.49-27.5-34.49-56.9-34.49-56.9A481,481,0,0,1,377.72,5.76s7.47,14.78,13.51,27.5c6-12.72,13.51-27.5,13.51-27.5s25.43,5.4,46.57,12.4C451.31,18.16,435.41,45.65,414.75,79Z"/><path class="cls-1" d="M85.57,244.85c-2.34-8-4.4-15.14-6.33-22-8.95,1.52-16.66,2.75-21.89,3.72-1.79,6.47-3.58,13.35-5.51,20.51-21.75-4.13-45-12.39-45-12.39,8.4-19.14,26.85-58,40.62-85.22,21.06-1.38,46.67-1.1,46.67-1.1,9.09,19.41,27.26,57.68,37,84.53C119.44,237.28,105.12,240.44,85.57,244.85ZM68.36,185c-1.65,6.2-3.44,12.94-5.37,20,4.13-.55,7.71-1,10.74-1.37C72.08,197.49,70.29,191.43,68.36,185Z"/><path class="cls-1" d="M187.46,243.47c-30.7,0-53.42-17.34-53.28-47.91.14-31.39,26.71-49.84,55.07-50,25.47-.13,46,12.53,53.56,30.29-22.44,7-41.31,14.18-41.31,14.18-6.47-11.15-28.36-9.5-28.08,10.33,0,8.26,4.68,14.18,11.42,14.73a10.17,10.17,0,0,0,9.5-4.27c-4.68-.68-11.15-1.1-11.15-1.1a114.25,114.25,0,0,1,0-14.59c13.77-.41,30.7-1,61.27-1.38C243.63,226.4,218.16,243.47,187.46,243.47Z"/><path class="cls-1" d="M326.25,244.85c-2.34-8-4.41-15.14-6.34-22-9,1.52-16.66,2.75-21.89,3.72-1.79,6.47-3.58,13.35-5.51,20.51-21.75-4.13-45-12.39-45-12.39,8.4-19.14,26.85-58,40.62-85.22,21.06-1.38,46.67-1.1,46.67-1.1,9.09,19.41,27.26,57.68,37,84.53C360.11,237.28,345.8,240.44,326.25,244.85ZM309,185c-1.66,6.2-3.45,12.94-5.37,20,4.13-.55,7.71-1,10.74-1.37C312.75,197.49,311,191.43,309,185Z"/><path class="cls-1" d="M418.22,239.48C401.29,242.37,376,244,376,244c-.41-33.31-.41-52.86.42-96.23,18.58-.42,42.81,2.2,42.81,2.2C419.32,178.21,419.32,208.92,418.22,239.48Z"/><path class="cls-1" d="M530.15,238c-19,3.71-44.33,6.05-44.33,6.05-9.5-18.45-20.65-37.72-20.65-37.72-.14,17.21-.27,24.64-.55,36.62-16.25-1-39.79-3.58-39.79-3.58.14-30,.69-59.75,1.52-92.65,20,0,41,2.2,41,2.2,10.33,22,23.82,45.85,23.82,45.85.69-22.31,1.52-48.47,1.52-48.47,21.89,1.1,42.81,4.41,42.81,4.41C534.42,175.6,532.63,207.13,530.15,238Z"/><path d="M136.1,128.5c-.3-21.3-.31-37.52-.2-54.27-13.43,1.41-26.06,3.83-26.21,3.85l-5.88,1.14-.13-6c-.48-21.57,1.1-49.56,1.12-49.84l.25-4.41,4.41-.34c25.8-2,49.16-3.64,76.21-5.51l25.86-1.79,1,4.18C217.3,35.57,221,64,221.2,65.14l.78,5.91L216,70.86c-.06,0-5.51-.17-12.65-.17-3.7,0-7.18,0-10.4.13,1.64,16.58,3.54,36.35,4.88,52.42l.4,4.79-4.76.64c-22.34,3-51.74,4.79-52,4.81l-5.29.31Z"/><path d="M285.75,133c-4.6-5.44-9.24-11.48-13.33-17,.43,7.12.79,12.55.79,12.65l.37,5.55L268,134c-22.36-.63-45.17-1.74-45.4-1.75L218,132l-.18-4.63c-.94-23.76-.93-51.66-.92-78.63,0-9.9,0-19.26,0-28.35l0-3.73,3.55-1.12a182.29,182.29,0,0,1,51.11-7.9c36.29,0,57.61,14.46,60.05,40.71.84,10-2.87,24.07-15.28,35.61,11.35,12.81,21.42,25.65,21.53,25.79l4.38,5.59-6.72,2.32c-24,8.26-43.64,16.63-43.84,16.71l-3.44,1.47ZM269.09,55.37c.09,2.16.2,4.29.32,6.36,6.43-1,9.06-3.48,9.33-4.37-.35-.51-2.45-2-7.95-2C270.24,55.32,269.68,55.33,269.09,55.37Z"/><path d="M364,126.26c.3-15.05.76-28.05,1.2-40.64l0-.31c-17.05-26.89-33.59-55.46-33.76-55.75l-3.08-5.32,5.81-2a482.3,482.3,0,0,1,50-13.84l3.81-.81,1.76,3.48c.05.11,4.32,8.56,9,18.13,4.67-9.57,8.94-18,9-18.13l1.76-3.48,3.81.81c1.05.22,25.95,5.54,47.11,12.54l5.9,2-3.11,5.38c-.16.27-15.77,27.27-35.88,59.78,0,12.81,0,24.93-.16,36.14l-.06,4.72-4.7.27c-24.43,1.42-53,2.22-53.24,2.23l-5.31.15Z"/><path d="M58.49,259.62c-21.88-4.16-44.81-12.25-45.77-12.6L7.59,245.2l2.19-5c8.75-19.93,27.4-59.07,40.73-85.47l1.3-2.58L54.7,152c15.1-1,32.44-1.13,41.43-1.13,3.51,0,5.62,0,5.62,0l3.19,0,3.49,7.45c9.69,20.68,25.93,55.29,35.06,80.38l1.71,4.71-4.68,1.76c-11.66,4.39-25.39,7.48-44.4,11.76l-6.48,1.46-1.33-4.55c-2-6.72-3.63-12.46-5.12-17.71l-4,.67c-3.83.64-7.27,1.21-10.19,1.72q-1.28,4.66-2.57,9.59-1,3.84-2.09,7.82l-1.22,4.53Z"/><path d="M195.05,256.13c-18.09,0-33.8-5.78-44.24-16.27-9.29-9.33-14.17-22-14.1-36.73a52.28,52.28,0,0,1,18.76-40.56c11-9.25,25.71-14.38,41.35-14.45h.44c26.46,0,49.15,13.1,57.79,33.37l2.2,5.15-5.34,1.67c-9.47,3-18.34,6-25.4,8.43,7.33-.15,15.7-.3,25.47-.43l5.26-.07-.13,5.26c-.43,16.95-7.06,31.09-19.17,40.89C227,251.25,211.76,256.13,195.05,256.13Zm1.22-60.32a10.18,10.18,0,0,0-6,1.88l11.67-.35A10.8,10.8,0,0,0,196.27,195.81Z"/><path d="M299.16,259.62c-21.88-4.16-44.8-12.25-45.77-12.6l-5.13-1.82,2.19-5c8.75-19.93,27.4-59.07,40.73-85.47l1.31-2.58,2.88-.19c15.11-1,32.44-1.13,41.44-1.13,3.51,0,5.62,0,5.62,0l3.18,0,3.49,7.45c9.69,20.68,25.93,55.29,35.06,80.38l1.72,4.71-4.69,1.76c-11.66,4.39-25.39,7.48-44.4,11.76l-6.47,1.46L329,253.87c-2-6.73-3.63-12.47-5.12-17.71l-4,.67c-3.83.64-7.28,1.21-10.2,1.72q-1.26,4.66-2.56,9.57c-.69,2.57-1.38,5.19-2.1,7.84l-1.22,4.53Z"/><path d="M378.48,251.68c-.41-33.39-.41-53,.42-96.4l.09-4.85,4.86-.11c1.39,0,2.83,0,4.28,0,17.9,0,38.33,2.19,39.19,2.28l4.49.49,0,4.52c.14,28.75.12,59.52-1,89.69l-.15,4.12-4.06.69c-17,2.9-41.74,4.54-42.79,4.61l-5.32.34Z"/><path d="M488.91,253.93c-3.75-7.29-7.79-14.76-11.29-21.1-.09,6.23-.2,11.37-.35,17.8l-.12,5.25-5.24-.31c-16.19-1-39.81-3.58-40.05-3.61l-4.52-.5,0-4.55c.13-27.37.6-56,1.52-92.76l.12-4.93h4.94c20,0,40.68,2.14,41.55,2.23l2.84.29,1.22,2.59c4.77,10.18,10.26,20.82,14.75,29.24.5-16.08,1.1-35,1.1-35l5.15.26c21.91,1.1,42.49,4.32,43.35,4.46l4.47.71-.2,4.51c-.75,17-2.45,51-5.38,87.47l-.31,3.83-3.76.73c-19,3.73-43.79,6-44.84,6.14l-3.4.31Z"/><path d="M128.51,120.91c-.3-21.3-.31-37.52-.2-54.28-13.43,1.42-26.06,3.84-26.21,3.86l-5.88,1.13-.13-6c-.48-21.56,1.1-49.55,1.12-49.83l.25-4.41,4.4-.34C127.67,9,151,7.41,178.07,5.54l25.87-1.79,1,4.18c4.78,20.05,8.52,48.42,8.68,49.62l.77,5.91-5.95-.19c-.05,0-5.5-.17-12.64-.17-3.7,0-7.18,0-10.4.13,1.64,16.58,3.54,36.35,4.88,52.42l.4,4.79-4.77.64c-22.34,3-51.73,4.79-52,4.81l-5.28.31Z"/><path d="M278.16,125.37c-4.6-5.44-9.24-11.48-13.33-17,.42,7.11.79,12.55.79,12.65l.37,5.55-5.56-.16c-22.36-.63-45.18-1.74-45.4-1.75l-4.63-.23-.18-4.63c-.94-23.76-.93-51.66-.92-78.64,0-9.9,0-19.25,0-28.34l0-3.73,3.55-1.12A182.26,182.26,0,0,1,263.9,0c36.29,0,57.61,14.46,60,40.72.85,10-2.86,24.07-15.27,35.61C320,89.16,330.09,102,330.2,102.14l4.38,5.59L327.86,110c-24,8.27-43.65,16.64-43.84,16.72l-3.44,1.47ZM261.5,47.77c.09,2.17.2,4.3.32,6.37,6.43-1,9.06-3.48,9.33-4.37-.35-.51-2.45-2-7.95-2C262.65,47.73,262.08,47.74,261.5,47.77Z"/><path d="M356.44,118.67c.31-15,.77-28.06,1.21-40.64v-.31c-17-26.89-33.59-55.47-33.75-55.76l-3.08-5.32,5.81-2a480.2,480.2,0,0,1,50-13.83L380.48,0l1.75,3.48c.06.11,4.33,8.56,9,18.12,4.67-9.56,8.93-18,9-18.12L402,0l3.81.81c1,.22,25.95,5.54,47.11,12.54l5.9,2-3.11,5.38c-.16.27-15.78,27.27-35.88,59.78,0,12.81,0,24.92-.16,36.14l-.06,4.71-4.7.28c-24.43,1.41-53,2.22-53.24,2.23l-5.31.15Z"/><path d="M50.9,252C29,247.87,6.09,239.77,5.13,239.43L0,237.61l2.19-5c8.74-19.93,27.4-59.07,40.73-85.47l1.3-2.58,2.89-.19c15.1-1,32.44-1.14,41.43-1.14,3.51,0,5.62,0,5.62,0l3.18,0,3.49,7.45c9.7,20.68,25.94,55.29,35.07,80.38l1.71,4.7-4.68,1.77c-11.66,4.39-25.39,7.48-44.4,11.76l-6.48,1.46-1.33-4.56c-2-6.71-3.63-12.46-5.12-17.7l-4,.67c-3.83.64-7.28,1.21-10.19,1.72q-1.28,4.66-2.57,9.59-1,3.84-2.09,7.82l-1.22,4.53Z"/><path d="M187.46,248.54c-18.09,0-33.8-5.78-44.24-16.27-9.29-9.33-14.17-22-14.1-36.73A52.3,52.3,0,0,1,147.88,155c11-9.24,25.71-14.37,41.35-14.45h.43c26.47,0,49.16,13.1,57.8,33.37l2.2,5.14-5.34,1.67c-9.47,3-18.35,6-25.4,8.44,7.33-.15,15.7-.3,25.47-.43l5.26-.07-.13,5.26c-.43,16.94-7.06,31.09-19.17,40.89C219.4,243.65,204.17,248.54,187.46,248.54Zm1.22-60.32a10.18,10.18,0,0,0-6,1.88l11.67-.35A10.7,10.7,0,0,0,188.68,188.22Z"/><path d="M291.57,252c-21.88-4.16-44.8-12.26-45.77-12.6l-5.13-1.82,2.19-5c8.75-19.93,27.4-59.07,40.73-85.47l1.3-2.58,2.89-.19c15.1-1,32.44-1.14,41.43-1.14,3.52,0,5.63,0,5.63,0l3.18,0,3.48,7.44c9.7,20.69,25.94,55.3,35.07,80.39l1.72,4.7-4.69,1.77c-11.66,4.39-25.39,7.48-44.4,11.76l-6.48,1.46-1.33-4.56c-2-6.72-3.63-12.46-5.12-17.7l-4,.67c-3.83.63-7.28,1.21-10.2,1.72q-1.28,4.66-2.57,9.57c-.68,2.57-1.37,5.19-2.09,7.84l-1.22,4.53Z"/><path d="M370.89,244.09c-.41-33.39-.41-53,.42-96.4l.09-4.85,4.85-.11c1.4,0,2.84,0,4.28,0,17.91,0,38.34,2.19,39.2,2.28l4.49.48,0,4.53c.14,28.75.12,59.52-1,89.69l-.15,4.12-4.06.69c-17,2.9-41.74,4.54-42.79,4.6l-5.32.35Z"/><path d="M481.32,246.34c-3.75-7.29-7.8-14.76-11.29-21.1-.09,6.22-.2,11.37-.35,17.8l-.12,5.25-5.24-.31c-16.19-1-39.81-3.58-40.05-3.61l-4.52-.5,0-4.55c.13-27.38.59-56,1.52-92.76l.12-4.94h4.94c20,0,40.68,2.14,41.55,2.23l2.84.3,1.22,2.59c4.77,10.18,10.26,20.81,14.75,29.24.5-16.09,1.1-35,1.1-35l5.15.26c21.91,1.1,42.49,4.32,43.35,4.46l4.47.7-.2,4.52c-.75,17-2.45,51-5.38,87.47l-.31,3.83-3.76.73c-19,3.73-43.8,6-44.84,6.13l-3.4.32Z"/><path class="cls-1" d="M179.82,58.37c1.91,19.23,4,40.53,5.41,57.7-22.41,3-51.66,4.76-51.66,4.76-.32-22.41-.32-39.41-.16-59.76-15.73,1.27-32.26,4.45-32.26,4.45-.48-21.61,1.11-49.43,1.11-49.43,32.42-2.54,61.19-4.45,97.75-7,4.77,20,8.58,49.11,8.58,49.11S193.33,57.73,179.82,58.37Z"/><path class="cls-1" d="M282,122.11c-9.54-11.29-19.07-25-23.21-31,.64,13.51,1.75,30.2,1.75,30.2-22.57-.63-45.3-1.75-45.3-1.75-1.27-32.26-.79-72.63-1-106.81C242.45,3.85,314.45-6.8,318.9,41.2c.8,9.38-3.18,23.69-17.48,34.65,12.72,14,24.8,29.41,24.8,29.41C301.74,113.68,282,122.11,282,122.11ZM256.28,43.27c.16,5.72.48,11.29.8,16.37C283,58.85,282.51,39,256.28,43.27Z"/><path class="cls-1" d="M414.75,79c0,13.2,0,25.91-.16,37.51-24.63,1.43-53.08,2.23-53.08,2.23.31-15.74.79-28.93,1.27-42.44-17.49-27.5-34.49-56.9-34.49-56.9A481,481,0,0,1,377.72,5.76s7.47,14.78,13.51,27.5c6-12.72,13.51-27.5,13.51-27.5s25.43,5.4,46.57,12.4C451.31,18.16,435.41,45.65,414.75,79Z"/><path class="cls-1" d="M85.57,244.85c-2.34-8-4.4-15.14-6.33-22-8.95,1.52-16.66,2.75-21.89,3.72-1.79,6.47-3.58,13.35-5.51,20.51-21.75-4.13-45-12.39-45-12.39,8.4-19.14,26.85-58,40.62-85.22,21.06-1.38,46.67-1.1,46.67-1.1,9.09,19.41,27.26,57.68,37,84.53C119.44,237.28,105.12,240.44,85.57,244.85ZM68.36,185c-1.65,6.2-3.44,12.94-5.37,20,4.13-.55,7.71-1,10.74-1.37C72.08,197.49,70.29,191.43,68.36,185Z"/><path class="cls-1" d="M187.46,243.47c-30.7,0-53.42-17.34-53.28-47.91.14-31.39,26.71-49.84,55.07-50,25.47-.13,46,12.53,53.56,30.29-22.44,7-41.31,14.18-41.31,14.18-6.47-11.15-28.36-9.5-28.08,10.33,0,8.26,4.68,14.18,11.42,14.73a10.17,10.17,0,0,0,9.5-4.27c-4.68-.68-11.15-1.1-11.15-1.1a114.25,114.25,0,0,1,0-14.59c13.77-.41,30.7-1,61.27-1.38C243.63,226.4,218.16,243.47,187.46,243.47Z"/><path class="cls-1" d="M326.25,244.85c-2.34-8-4.41-15.14-6.34-22-9,1.52-16.66,2.75-21.89,3.72-1.79,6.47-3.58,13.35-5.51,20.51-21.75-4.13-45-12.39-45-12.39,8.4-19.14,26.85-58,40.62-85.22,21.06-1.38,46.67-1.1,46.67-1.1,9.09,19.41,27.26,57.68,37,84.53C360.11,237.28,345.8,240.44,326.25,244.85ZM309,185c-1.66,6.2-3.45,12.94-5.37,20,4.13-.55,7.71-1,10.74-1.37C312.75,197.49,311,191.43,309,185Z"/><path class="cls-1" d="M418.22,239.48C401.29,242.37,376,244,376,244c-.41-33.31-.41-52.86.42-96.23,18.58-.42,42.81,2.2,42.81,2.2C419.32,178.21,419.32,208.92,418.22,239.48Z"/><path class="cls-1" d="M530.15,238c-19,3.71-44.33,6.05-44.33,6.05-9.5-18.45-20.65-37.72-20.65-37.72-.14,17.21-.27,24.64-.55,36.62-16.25-1-39.79-3.58-39.79-3.58.14-30,.69-59.75,1.52-92.65,20,0,41,2.2,41,2.2,10.33,22,23.82,45.85,23.82,45.85.69-22.31,1.52-48.47,1.52-48.47,21.89,1.1,42.81,4.41,42.81,4.41C534.42,175.6,532.63,207.13,530.15,238Z"/></g></g></svg>