<svg xmlns="http://www.w3.org/2000/svg" viewBox="0 0 80 89.95"><defs><style>.cls-1{isolation:isolate;}.cls-2{opacity:0.27;mix-blend-mode:multiply;}.cls-3{fill:#353942;}.cls-4{fill:#ffdf24;}.cls-5{mix-blend-mode:overlay;}.cls-6{fill-rule:evenodd;}.cls-7{fill:#fff;}.cls-8,.cls-9{fill:none;stroke-linecap:round;stroke-miterlimit:10;stroke-width:4px;}.cls-8{stroke:#000;}.cls-9{stroke:red;}</style></defs><g class="cls-1"><g id="Layer_2" data-name="Layer 2"><g id="Layer_1-2" data-name="Layer 1"><rect class="cls-2" x="1.05" y="12.05" width="77.9" height="77.9" rx="25.66"/><rect class="cls-3" width="80" height="80" rx="26.01"/><rect class="cls-4" x="5" y="5" width="70" height="70" rx="21.01"/><g class="cls-5"><path class="cls-6" d="M27.14,31.3H20.19a5.39,5.39,0,0,0-5.4,5.4V49.3a5.39,5.39,0,0,0,5.4,5.4h7l5.1,6.12a5.4,5.4,0,0,0,9.55-3.46V28.64a5.4,5.4,0,0,0-9.55-3.46Z"/><path d="M36.39,65.76a8.41,8.41,0,0,1-6.46-3l-4.19-5H20.19a8.4,8.4,0,0,1-8.4-8.4V36.7a8.4,8.4,0,0,1,8.4-8.4h5.55l4.19-5a8.4,8.4,0,0,1,14.86,5.38V57.36a8.39,8.39,0,0,1-8.4,8.4Z"/><path d="M27.14,31.3H20.19a5.39,5.39,0,0,0-5.4,5.4V49.3a5.39,5.39,0,0,0,5.4,5.4h7l5.1,6.12a5.4,5.4,0,0,0,9.55-3.46V28.64a5.4,5.4,0,0,0-9.55-3.46Z"/></g><path class="cls-6" d="M27.14,28.3H20.19a5.39,5.39,0,0,0-5.4,5.4V46.3a5.39,5.39,0,0,0,5.4,5.4h7l5.1,6.12a5.4,5.4,0,0,0,9.55-3.46V25.64a5.4,5.4,0,0,0-9.55-3.46Z"/><path class="cls-3" d="M36.39,62.76a8.41,8.41,0,0,1-6.46-3l-4.19-5H20.19a8.4,8.4,0,0,1-8.4-8.4V33.7a8.4,8.4,0,0,1,8.4-8.4h5.55l4.19-5a8.4,8.4,0,0,1,14.86,5.38V54.36a8.39,8.39,0,0,1-8.4,8.4Z"/><path class="cls-7" d="M27.14,28.3H20.19a5.39,5.39,0,0,0-5.4,5.4V46.3a5.39,5.39,0,0,0,5.4,5.4h7l5.1,6.12a5.4,5.4,0,0,0,9.55-3.46V25.64a5.4,5.4,0,0,0-9.55-3.46Z"/><g class="cls-5"><line class="cls-8" x1="60.97" y1="50.14" x2="50.97" y2="35.86"/><line class="cls-8" x1="50.97" y1="50.14" x2="60.97" y2="35.86"/></g><line class="cls-9" x1="60.97" y1="47.14" x2="50.97" y2="32.86"/><line class="cls-9" x1="50.97" y1="47.14" x2="60.97" y2="32.86"/></g></g></g></svg>