<svg xmlns="http://www.w3.org/2000/svg" xmlns:xlink="http://www.w3.org/1999/xlink" viewBox="0 0 2016.65 1348.66"><defs><style>.cls-1,.cls-4,.cls-9{fill:none;}.cls-2{clip-path:url(#clip-path);}.cls-3{fill:#52af68;}.cls-4{stroke:#44a057;stroke-miterlimit:10;stroke-width:3px;opacity:0.5;}.cls-5{opacity:0.15;}.cls-6,.cls-8{fill:#fff;}.cls-6,.cls-7{opacity:0.25;}.cls-9{stroke:#fff;stroke-linecap:round;stroke-linejoin:round;stroke-width:4px;opacity:0.4;}</style><clipPath id="clip-path" transform="translate(46.25 155.41)"><rect class="cls-1" width="1920" height="1080"/></clipPath></defs><g id="Layer_2" data-name="Layer 2"><g id="Layer_1-2" data-name="Layer 1"><g class="cls-2"><rect class="cls-3" x="46.25" y="155.41" width="1920" height="1080"/><line class="cls-4" x1="1006.25" y1="1235.41" x2="1006.25" y2="155.41"/><line class="cls-4" x1="924.64" y1="1235.41" x2="924.64" y2="155.41"/><line class="cls-4" x1="843.04" y1="1235.41" x2="843.04" y2="155.41"/><line class="cls-4" x1="761.43" y1="1235.41" x2="761.43" y2="155.41"/><line class="cls-4" x1="679.82" y1="1235.41" x2="679.82" y2="155.41"/><line class="cls-4" x1="598.22" y1="1235.41" x2="598.22" y2="155.41"/><line class="cls-4" x1="516.61" y1="1235.41" x2="516.61" y2="155.41"/><line class="cls-4" x1="435.01" y1="1235.41" x2="435.01" y2="155.41"/><line class="cls-4" x1="353.4" y1="1235.41" x2="353.4" y2="155.41"/><line class="cls-4" x1="271.8" y1="1235.41" x2="271.8" y2="155.41"/><line class="cls-4" x1="190.19" y1="1235.41" x2="190.19" y2="155.41"/><line class="cls-4" x1="108.58" y1="1235.41" x2="108.58" y2="155.41"/><line class="cls-4" x1="1903.91" y1="1235.41" x2="1903.91" y2="155.41"/><line class="cls-4" x1="1822.3" y1="1235.41" x2="1822.3" y2="155.41"/><line class="cls-4" x1="1740.7" y1="1235.41" x2="1740.7" y2="155.41"/><line class="cls-4" x1="1659.09" y1="1235.41" x2="1659.09" y2="155.41"/><line class="cls-4" x1="1577.49" y1="1235.41" x2="1577.49" y2="155.41"/><line class="cls-4" x1="1495.88" y1="1235.41" x2="1495.88" y2="155.41"/><line class="cls-4" x1="1414.27" y1="1235.41" x2="1414.27" y2="155.41"/><line class="cls-4" x1="1332.67" y1="1235.41" x2="1332.67" y2="155.41"/><line class="cls-4" x1="1251.06" y1="1235.41" x2="1251.06" y2="155.41"/><line class="cls-4" x1="1169.46" y1="1235.41" x2="1169.46" y2="155.41"/><line class="cls-4" x1="1087.85" y1="1235.41" x2="1087.85" y2="155.41"/><line class="cls-4" x1="46.25" y1="695.41" x2="1966.25" y2="695.41"/><line class="cls-4" x1="46.25" y1="613.81" x2="1966.25" y2="613.8"/><line class="cls-4" x1="46.25" y1="532.2" x2="1966.25" y2="532.2"/><line class="cls-4" x1="46.25" y1="450.59" x2="1966.25" y2="450.59"/><line class="cls-4" x1="46.25" y1="368.99" x2="1966.25" y2="368.99"/><line class="cls-4" x1="46.25" y1="287.38" x2="1966.25" y2="287.38"/><line class="cls-4" x1="46.25" y1="205.78" x2="1966.25" y2="205.78"/><line class="cls-4" x1="46.25" y1="1185.04" x2="1966.25" y2="1185.04"/><line class="cls-4" x1="46.25" y1="1103.44" x2="1966.25" y2="1103.44"/><line class="cls-4" x1="46.25" y1="1021.83" x2="1966.25" y2="1021.83"/><line class="cls-4" x1="46.25" y1="940.23" x2="1966.25" y2="940.23"/><line class="cls-4" x1="46.25" y1="858.62" x2="1966.25" y2="858.62"/><line class="cls-4" x1="46.25" y1="777.02" x2="1966.25" y2="777.02"/><g class="cls-5"><path class="cls-6" d="M1092.55,345l-.33-.73a6.45,6.45,0,0,0-6.29-3.79l-4.36.27a6.46,6.46,0,0,1-6.86-6.16l-.45-10a6.47,6.47,0,0,0-7.51-6.09l-5.57.92a6.45,6.45,0,0,0-5.33,7.37l1.35,8.7A6.46,6.46,0,0,1,1051,343l-6.24.17a6.46,6.46,0,0,0-6.26,7.06h0a6.46,6.46,0,0,0,6.73,5.85l9.29-.42a6.47,6.47,0,0,1,6.68,5.46l1.38,8.88a6.47,6.47,0,0,0,7,5.44l.83-.08a6.46,6.46,0,0,0,5.85-6.72l-.34-7.47a6.46,6.46,0,0,1,6.17-6.75l4.89-.22A6.46,6.46,0,0,0,1092.55,345Z" transform="translate(46.25 155.41)"/><path class="cls-6" d="M1214.23,164.05l-.59-.55a6.45,6.45,0,0,0-7.26-1.1l-3.93,1.92a6.46,6.46,0,0,1-8.69-3.07l-4.25-9.11a6.47,6.47,0,0,0-9.26-2.76l-4.79,3a6.46,6.46,0,0,0-2.12,8.85l4.58,7.53A6.47,6.47,0,0,1,1175,178l-5.7,2.54a6.45,6.45,0,0,0-3.09,8.91h0a6.47,6.47,0,0,0,8.45,2.85l8.43-3.94a6.46,6.46,0,0,1,8.26,2.5l4.67,7.67a6.46,6.46,0,0,0,8.53,2.36l.74-.39a6.46,6.46,0,0,0,2.84-8.45l-3.17-6.77a6.46,6.46,0,0,1,3.13-8.59l4.43-2.07A6.47,6.47,0,0,0,1214.23,164.05Z" transform="translate(46.25 155.41)"/><path class="cls-6" d="M830,154.68l0-.56a4.48,4.48,0,0,0-2.63-4.35l-2.76-1.24a4.48,4.48,0,0,1-2.22-6l3-6.29a4.47,4.47,0,0,0-2.64-6.15l-3.7-1.24a4.48,4.48,0,0,0-5.65,2.8l-2,5.77a4.47,4.47,0,0,1-6.21,2.56l-3.88-1.91a4.46,4.46,0,0,0-6.11,2.3h0a4.48,4.48,0,0,0,2.23,5.76l5.83,2.74a4.49,4.49,0,0,1,2.33,5.5l-2,5.89a4.48,4.48,0,0,0,2.52,5.59l.53.22a4.48,4.48,0,0,0,5.76-2.24l2.21-4.68a4.46,4.46,0,0,1,5.95-2.14l3.07,1.44A4.47,4.47,0,0,0,830,154.68Z" transform="translate(46.25 155.41)"/><g class="cls-7"><path class="cls-8" d="M811,380l34.48,10.2a3.71,3.71,0,0,1,2.23,5.3h0a3.73,3.73,0,0,1-4.29,1.84l-34.47-9.68a3.72,3.72,0,0,1-2.71-3.49v-.52A3.72,3.72,0,0,1,811,380Z" transform="translate(46.25 155.41)"/><path class="cls-8" d="M837.35,413.47l-34.82-10a3.61,3.61,0,0,1-2.25-5l1-2a3.6,3.6,0,0,1,4.45-1.83l33.84,12.06a3.6,3.6,0,0,1,2.39,3.15h0A3.6,3.6,0,0,1,837.35,413.47Z" transform="translate(46.25 155.41)"/></g><g class="cls-7"><path class="cls-8" d="M1256.07,52.32l33.45-13.21a3.72,3.72,0,0,1,5,2.81h0A3.7,3.7,0,0,1,1292.3,46l-33.12,13.61a3.71,3.71,0,0,1-4.28-1.07l-.33-.4A3.72,3.72,0,0,1,1256.07,52.32Z" transform="translate(46.25 155.41)"/><path class="cls-8" d="M1297.49,62.45,1263.88,76a3.6,3.6,0,0,1-4.86-2.56l-.48-2.21a3.59,3.59,0,0,1,2.38-4.19L1295,55.7a3.58,3.58,0,0,1,3.82,1h0A3.6,3.6,0,0,1,1297.49,62.45Z" transform="translate(46.25 155.41)"/></g><path class="cls-6" d="M916.42,35.65l-36.23-.24a3.6,3.6,0,0,1-3.52-4.22l.39-2.23a3.6,3.6,0,0,1,3.79-3l35.84,2.46a3.6,3.6,0,0,1,3.15,2.4h0A3.6,3.6,0,0,1,916.42,35.65Z" transform="translate(46.25 155.41)"/><path class="cls-6" d="M1229.47,485.87l-11.89,6.78a3.35,3.35,0,0,0,.6,6.08l1,.34a3.34,3.34,0,0,1,2.12,4.22l-5.48,16.56a3.33,3.33,0,0,1-3.3,2.29l-2.14-.08a3.34,3.34,0,0,0-3.3,2.29l-.11.33a3.34,3.34,0,0,0,2.12,4.22l14.16,4.68a3.34,3.34,0,0,0,4.22-2.12l.19-.58a3.35,3.35,0,0,0-1.49-3.93l-1.67-1a3.34,3.34,0,0,1-1.47-4l11.2-32.12a3.34,3.34,0,0,0-2.1-4.27h0A3.34,3.34,0,0,0,1229.47,485.87Z" transform="translate(46.25 155.41)"/><path class="cls-6" d="M929.47.56,918.09,8.18a3.33,3.33,0,0,0,1,6l1.06.27a3.35,3.35,0,0,1,2.42,4.06l-4.27,16.91A3.36,3.36,0,0,1,915.21,38l-2.14.07a3.34,3.34,0,0,0-3.13,2.52l-.09.34a3.34,3.34,0,0,0,2.42,4.06l14.45,3.65a3.34,3.34,0,0,0,4.06-2.41l.15-.59a3.36,3.36,0,0,0-1.76-3.82l-1.75-.86A3.33,3.33,0,0,1,925.68,37l8.87-32.83A3.34,3.34,0,0,0,932.15.1h0A3.38,3.38,0,0,0,929.47.56Z" transform="translate(46.25 155.41)"/><path class="cls-6" d="M1002.91,481.39,987.71,485a2.58,2.58,0,0,0-.9,4.62h0a2.58,2.58,0,0,0,1.81.46l7.48-.93a2.58,2.58,0,0,1,2.72,1.62l1.88,4.74a2.6,2.6,0,0,1-1.67,3.43l-14.81,4.42a2.58,2.58,0,0,0-1.62,1.41l-2.19,4.87a2.58,2.58,0,0,0,1.35,3.44L1003,522a2.58,2.58,0,0,0,3.34-1.27l1.56-3.31a2.58,2.58,0,0,0-1.62-3.59l-7.87-2.25a2.58,2.58,0,0,1-.46-4.79l10.15-5.16a2.56,2.56,0,0,0,1.35-2.85L1006,483.35A2.58,2.58,0,0,0,1002.91,481.39Z" transform="translate(46.25 155.41)"/><path class="cls-6" d="M963,14.29,955.55,28a2.59,2.59,0,0,0,2.86,3.75h0A2.53,2.53,0,0,0,960,30.72l4.29-6.21a2.59,2.59,0,0,1,3-1L972,25.31a2.58,2.58,0,0,1,1.45,3.52l-6.54,14a2.54,2.54,0,0,0,0,2.14l2.17,4.88a2.59,2.59,0,0,0,3.48,1.28l20.77-9.88a2.58,2.58,0,0,0,1.26-3.35l-1.42-3.36a2.59,2.59,0,0,0-3.77-1.17l-6.91,4.38a2.59,2.59,0,0,1-3.89-2.84l2.9-11A2.59,2.59,0,0,0,980.29,21l-13.76-7.73A2.59,2.59,0,0,0,963,14.29Z" transform="translate(46.25 155.41)"/><path class="cls-6" d="M1073.42,163.29l-.4-2a17.45,17.45,0,0,0-11-12.94l-11.43-4.27a2.9,2.9,0,0,0-3.67,1.43,2.8,2.8,0,0,0,1.71,3.81l13.91,4.45a2.78,2.78,0,0,1,1.75,1.65l1.67,4.29a2.8,2.8,0,0,1-1.43,3.56l-2.8,1.29a2.84,2.84,0,0,1-1.86.18l-11.1-2.79a3.69,3.69,0,0,0-4.58,3.58h0a3.7,3.7,0,0,0,2.56,3.51l11.07,3.54a2.85,2.85,0,0,1,1.76,1.65l1.67,4.3a2.81,2.81,0,0,1-1.44,3.55l-2.8,1.3a2.87,2.87,0,0,1-1.85.17l-14.05-3.52a2.8,2.8,0,0,0-3.4,2l-.2.8a2.81,2.81,0,0,0,2,3.4l11.31,2.83a17.48,17.48,0,0,0,13.56-2.16l3.06-1.93a2.8,2.8,0,0,0,1.25-2.92l-2.27-8.82a4.2,4.2,0,0,1,1.83-4.61l3.91-2.46A2.8,2.8,0,0,0,1073.42,163.29Z" transform="translate(46.25 155.41)"/><g class="cls-7"><path class="cls-8" d="M1187.43,954.55a7.35,7.35,0,1,0,10.39-.22A7.35,7.35,0,0,0,1187.43,954.55Z" transform="translate(46.25 155.41)"/><circle class="cls-8" cx="1219.2" cy="985.01" r="7.35" transform="translate(-300.58 1075.18) rotate(-36.55)"/><path class="cls-8" d="M1192.73,980.18,1214,957.53a3.83,3.83,0,0,1,5.44-.14h0a3.84,3.84,0,0,1,.37,5.13l-19.09,24.42a3.82,3.82,0,0,1-5.4.63l-2.23-1.77A3.83,3.83,0,0,1,1192.73,980.18Z" transform="translate(46.25 155.41)"/></g><g class="cls-7"><path class="cls-8" d="M1005.86,944.84l34.48,10.2a3.71,3.71,0,0,1,2.23,5.3h0a3.72,3.72,0,0,1-4.28,1.84l-34.47-9.68a3.72,3.72,0,0,1-2.71-3.49l0-.52A3.72,3.72,0,0,1,1005.86,944.84Z" transform="translate(46.25 155.41)"/><path class="cls-8" d="M1032.25,978.33l-34.82-10a3.6,3.6,0,0,1-2.25-5l1-2a3.6,3.6,0,0,1,4.46-1.83l33.84,12.06a3.59,3.59,0,0,1,2.38,3.15h0A3.6,3.6,0,0,1,1032.25,978.33Z" transform="translate(46.25 155.41)"/></g><g class="cls-7"><path class="cls-8" d="M1778.41,790.71l33.44-13.21a3.71,3.71,0,0,1,5,2.81h0a3.69,3.69,0,0,1-2.24,4.08L1781.51,798a3.72,3.72,0,0,1-4.28-1.08l-.33-.4A3.71,3.71,0,0,1,1778.41,790.71Z" transform="translate(46.25 155.41)"/><path class="cls-8" d="M1819.82,800.84l-33.6,13.55a3.61,3.61,0,0,1-4.87-2.57l-.48-2.2a3.59,3.59,0,0,1,2.38-4.19l34.09-11.35a3.61,3.61,0,0,1,3.82,1h0A3.6,3.6,0,0,1,1819.82,800.84Z" transform="translate(46.25 155.41)"/></g><path class="cls-6" d="M952.55,909.64l-31.39,18.09a3.59,3.59,0,0,1-5.17-1.86l-.79-2.12a3.61,3.61,0,0,1,1.78-4.48l32.18-16a3.58,3.58,0,0,1,3.92.47h0A3.6,3.6,0,0,1,952.55,909.64Z" transform="translate(46.25 155.41)"/><path class="cls-6" d="M1317.83,819.49l-36.23-.24a3.6,3.6,0,0,1-3.52-4.22l.39-2.23a3.6,3.6,0,0,1,3.79-3l35.84,2.46a3.61,3.61,0,0,1,3.15,2.4h0A3.61,3.61,0,0,1,1317.83,819.49Z" transform="translate(46.25 155.41)"/><path class="cls-6" d="M1529.15,731.48l-11.38,7.61a3.35,3.35,0,0,0,1,6l1.07.27a3.34,3.34,0,0,1,2.42,4.06l-4.28,16.9a3.33,3.33,0,0,1-3.13,2.52l-2.14.07a3.36,3.36,0,0,0-3.13,2.52l-.08.35a3.33,3.33,0,0,0,2.42,4.05l14.45,3.66a3.33,3.33,0,0,0,4-2.42l.15-.59a3.33,3.33,0,0,0-1.76-3.82l-1.74-.85a3.36,3.36,0,0,1-1.75-3.87l8.88-32.83a3.34,3.34,0,0,0-2.41-4.11h0A3.3,3.3,0,0,0,1529.15,731.48Z" transform="translate(46.25 155.41)"/><path class="cls-6" d="M1101.23,740.47,1086,744.05a2.58,2.58,0,0,0-.9,4.62h0a2.6,2.6,0,0,0,1.81.46l7.49-.93a2.58,2.58,0,0,1,2.72,1.62l1.87,4.74a2.59,2.59,0,0,1-1.67,3.43l-14.81,4.42a2.54,2.54,0,0,0-1.61,1.41l-2.2,4.87a2.58,2.58,0,0,0,1.35,3.44l21.2,8.94a2.58,2.58,0,0,0,3.34-1.27l1.56-3.31a2.58,2.58,0,0,0-1.63-3.59l-7.87-2.25a2.59,2.59,0,0,1-.46-4.79l10.15-5.16a2.58,2.58,0,0,0,1.36-2.85l-3.38-15.42A2.58,2.58,0,0,0,1101.23,740.47Z" transform="translate(46.25 155.41)"/><path class="cls-6" d="M1367.65,611.4l-7.44,13.73a2.59,2.59,0,0,0,2.86,3.75h0a2.53,2.53,0,0,0,1.54-1l4.29-6.2a2.58,2.58,0,0,1,3-1l4.78,1.75a2.58,2.58,0,0,1,1.45,3.52l-6.54,14a2.56,2.56,0,0,0,0,2.15l2.17,4.87a2.59,2.59,0,0,0,3.48,1.28l20.77-9.88a2.58,2.58,0,0,0,1.26-3.35l-1.43-3.36a2.57,2.57,0,0,0-3.76-1.17l-6.91,4.38a2.59,2.59,0,0,1-3.89-2.84l2.9-11a2.59,2.59,0,0,0-1.23-2.91l-13.76-7.73A2.59,2.59,0,0,0,1367.65,611.4Z" transform="translate(46.25 155.41)"/><path class="cls-6" d="M564.58,679l-.57.57a6.45,6.45,0,0,0-1.28,7.23l1.82,4a6.47,6.47,0,0,1-3.29,8.61l-9.21,4a6.46,6.46,0,0,0-3,9.18l2.85,4.87a6.46,6.46,0,0,0,8.79,2.34l7.65-4.38a6.45,6.45,0,0,1,9.18,3.13l2.39,5.76a6.46,6.46,0,0,0,8.84,3.32h0a6.47,6.47,0,0,0,3.06-8.38l-3.73-8.53a6.47,6.47,0,0,1,2.71-8.19l7.79-4.47a6.46,6.46,0,0,0,2.58-8.47l-.37-.74a6.47,6.47,0,0,0-8.38-3.06l-6.85,3a6.46,6.46,0,0,1-8.51-3.34L575.1,681A6.46,6.46,0,0,0,564.58,679Z" transform="translate(46.25 155.41)"/><path class="cls-6" d="M266.27,591.55l-.3.75a6.45,6.45,0,0,0,1.58,7.17l3.19,3a6.46,6.46,0,0,1,.25,9.22l-7,7.23a6.46,6.46,0,0,0,.74,9.63l4.5,3.41a6.45,6.45,0,0,0,9-1.19l5.39-7a6.46,6.46,0,0,1,9.68-.62l4.41,4.42a6.48,6.48,0,0,0,9.44-.31h0a6.47,6.47,0,0,0-.38-8.91l-6.69-6.46a6.46,6.46,0,0,1-.63-8.61l5.49-7.1a6.47,6.47,0,0,0-.85-8.82l-.63-.54a6.47,6.47,0,0,0-8.91.37l-5.19,5.38a6.46,6.46,0,0,1-9.13.17l-3.53-3.4A6.46,6.46,0,0,0,266.27,591.55Z" transform="translate(46.25 155.41)"/><path class="cls-6" d="M569.33,989.21l-.53.17a4.49,4.49,0,0,0-3.12,4l-.17,3a4.48,4.48,0,0,1-4.79,4.21l-6.94-.51a4.47,4.47,0,0,0-4.8,4.66l.17,3.9a4.47,4.47,0,0,0,4.63,4.27l6.1-.21a4.47,4.47,0,0,1,4.62,4.88l-.4,4.3a4.48,4.48,0,0,0,4.34,4.89h0a4.49,4.49,0,0,0,4.58-4.15l.47-6.43a4.48,4.48,0,0,1,4.3-4.14l6.22-.22a4.48,4.48,0,0,0,4.31-4.36l0-.58a4.48,4.48,0,0,0-4.15-4.57L579,1002a4.48,4.48,0,0,1-4.14-4.79l.25-3.38A4.47,4.47,0,0,0,569.33,989.21Z" transform="translate(46.25 155.41)"/><g class="cls-7"><path class="cls-8" d="M751.16,818.15l-2.84-35.85a3.72,3.72,0,0,1,4.16-4h0a3.71,3.71,0,0,1,3.24,3.35L759,817.31a3.72,3.72,0,0,1-2.29,3.78l-.48.2A3.71,3.71,0,0,1,751.16,818.15Z" transform="translate(46.25 155.41)"/><path class="cls-8" d="M773,781.52l3.12,36.1a3.6,3.6,0,0,1-3.88,3.9l-2.26-.19a3.59,3.59,0,0,1-3.3-3.5l-.87-35.91a3.61,3.61,0,0,1,2.1-3.36h0A3.6,3.6,0,0,1,773,781.52Z" transform="translate(46.25 155.41)"/></g><g class="cls-7"><path class="cls-8" d="M25.29,673.3,1,646.81a3.72,3.72,0,0,1,.82-5.7h0a3.72,3.72,0,0,1,4.62.64l24.57,26a3.7,3.7,0,0,1,.52,4.38l-.25.45A3.71,3.71,0,0,1,25.29,673.3Z" transform="translate(46.25 155.41)"/><path class="cls-8" d="M19.91,631,44.6,657.53A3.6,3.6,0,0,1,44,663l-1.89,1.24a3.6,3.6,0,0,1-4.76-.72L14.5,635.75a3.6,3.6,0,0,1-.42-3.93h0A3.59,3.59,0,0,1,19.91,631Z" transform="translate(46.25 155.41)"/></g><path class="cls-6" d="M703.38,929.73l28.14,22.83a3.59,3.59,0,0,1,.11,5.49l-1.69,1.5a3.61,3.61,0,0,1-4.82,0l-26.44-24.32a3.59,3.59,0,0,1-1-3.84h0A3.6,3.6,0,0,1,703.38,929.73Z" transform="translate(46.25 155.41)"/><path class="cls-6" d="M486.34,827,499.1,860.9a3.6,3.6,0,0,1-2.68,4.8l-2.22.43a3.6,3.6,0,0,1-4.13-2.48l-10.54-34.34a3.61,3.61,0,0,1,1.11-3.8h0A3.59,3.59,0,0,1,486.34,827Z" transform="translate(46.25 155.41)"/><path class="cls-6" d="M1095.79,597.28l10.59,8.68a3.35,3.35,0,0,0,5.46-2.74l-.06-1.1a3.35,3.35,0,0,1,3.18-3.5l17.43-.82a3.33,3.33,0,0,1,3.31,2.27l.69,2a3.35,3.35,0,0,0,3.32,2.26h.36a3.35,3.35,0,0,0,3.18-3.5l-.7-14.88a3.34,3.34,0,0,0-3.5-3.18l-.6,0a3.34,3.34,0,0,0-3.14,2.8l-.32,1.91a3.34,3.34,0,0,1-3.19,2.8l-34,1a3.35,3.35,0,0,0-3.23,3.5h0A3.33,3.33,0,0,0,1095.79,597.28Z" transform="translate(46.25 155.41)"/><path class="cls-6" d="M61.3,798.89l15.49,2a2.59,2.59,0,0,0,2.48-4h0a2.61,2.61,0,0,0-1.53-1.07l-7.33-1.78a2.57,2.57,0,0,1-2-2.47l-.07-5.1a2.57,2.57,0,0,1,2.76-2.61L86.54,785a2.58,2.58,0,0,0,2-.75l3.77-3.78a2.59,2.59,0,0,0,0-3.7L75.61,760.89a2.59,2.59,0,0,0-3.58,0l-2.62,2.54a2.58,2.58,0,0,0,.25,3.93l6.57,4.88A2.59,2.59,0,0,1,75,776.91l-11.33,1.24a2.59,2.59,0,0,0-2.27,2.19L59.08,796A2.58,2.58,0,0,0,61.3,798.89Z" transform="translate(46.25 155.41)"/><path class="cls-6" d="M285,708.39l-1.71,1.07a17.52,17.52,0,0,0-8.14,14.94l.12,12.21a2.89,2.89,0,0,0,2.65,2.91,2.81,2.81,0,0,0,3-3L280.07,722a2.79,2.79,0,0,1,.92-2.23l3.41-3.1a2.78,2.78,0,0,1,3.83.07l2.21,2.15a2.78,2.78,0,0,1,.83,1.67l1.38,11.36a3.69,3.69,0,0,0,5,3h0a3.71,3.71,0,0,0,2.36-3.66l-.66-11.6a2.78,2.78,0,0,1,.91-2.23l3.41-3.09a2.79,2.79,0,0,1,3.83.06l2.21,2.15a2.84,2.84,0,0,1,.83,1.67l1.74,14.38a2.81,2.81,0,0,0,3.12,2.44l.82-.1a2.81,2.81,0,0,0,2.44-3.12l-1.4-11.57a17.47,17.47,0,0,0-6.88-11.88l-2.9-2.17a2.79,2.79,0,0,0-3.17-.13l-7.42,5.29a4.23,4.23,0,0,1-5-.06l-3.69-2.77A2.8,2.8,0,0,0,285,708.39Z" transform="translate(46.25 155.41)"/><path class="cls-6" d="M134.83,526.11l.6-.55a6.46,6.46,0,0,0,1.66-7.15l-1.6-4.07a6.46,6.46,0,0,1,3.74-8.42l9.41-3.52a6.47,6.47,0,0,0,3.48-9l-2.59-5a6.47,6.47,0,0,0-8.66-2.81l-7.86,4a6.47,6.47,0,0,1-9-3.62L121.92,480a6.45,6.45,0,0,0-8.65-3.78h0a6.46,6.46,0,0,0-3.49,8.2l3.26,8.72a6.46,6.46,0,0,1-3.14,8l-8,4.05a6.46,6.46,0,0,0-3,8.32l.33.77a6.46,6.46,0,0,0,8.2,3.49l7-2.62a6.45,6.45,0,0,1,8.31,3.79l1.72,4.58A6.47,6.47,0,0,0,134.83,526.11Z" transform="translate(46.25 155.41)"/><g class="cls-7"><path class="cls-8" d="M337.58,373.67a7.35,7.35,0,1,0,3.41,9.82A7.35,7.35,0,0,0,337.58,373.67Z" transform="translate(46.25 155.41)"/><path class="cls-8" d="M321.59,406.67a7.35,7.35,0,1,0,3.41,9.82A7.34,7.34,0,0,0,321.59,406.67Z" transform="translate(46.25 155.41)"/><path class="cls-8" d="M314.83,386.61l28.11,13.29a3.83,3.83,0,0,1,1.81,5.14h0A3.84,3.84,0,0,1,340,407l-29.11-10.63a3.85,3.85,0,0,1-2.28-4.95l1-2.67A3.84,3.84,0,0,1,314.83,386.61Z" transform="translate(46.25 155.41)"/></g><g class="cls-7"><path class="cls-8" d="M107.71,221.54l.92,35.94a3.71,3.71,0,0,1-4.35,3.76h0a3.73,3.73,0,0,1-3.07-3.51L99.79,222a3.72,3.72,0,0,1,2.48-3.65l.49-.17A3.72,3.72,0,0,1,107.71,221.54Z" transform="translate(46.25 155.41)"/><path class="cls-8" d="M84,257l-1.2-36.22a3.6,3.6,0,0,1,4.08-3.68l2.24.3A3.6,3.6,0,0,1,92.22,221l-1,35.91a3.62,3.62,0,0,1-2.27,3.24h0A3.6,3.6,0,0,1,84,257Z" transform="translate(46.25 155.41)"/></g><g class="cls-7"><path class="cls-8" d="M877,583.5l22.88,27.75a3.71,3.71,0,0,1-1.13,5.64h0a3.7,3.7,0,0,1-4.57-.88L871,588.7a3.71,3.71,0,0,1-.29-4.4l.28-.44A3.71,3.71,0,0,1,877,583.5Z" transform="translate(46.25 155.41)"/><path class="cls-8" d="M880.14,626l-23.25-27.79a3.6,3.6,0,0,1,1-5.42l1.95-1.14a3.59,3.59,0,0,1,4.71,1l21.3,28.94a3.59,3.59,0,0,1,.21,3.94h0A3.6,3.6,0,0,1,880.14,626Z" transform="translate(46.25 155.41)"/></g><path class="cls-6" d="M472.4,320.18l-10.93-34.54A3.59,3.59,0,0,1,464.4,281l2.23-.32a3.61,3.61,0,0,1,4,2.7l8.7,34.85A3.61,3.61,0,0,1,478,322h0A3.61,3.61,0,0,1,472.4,320.18Z" transform="translate(46.25 155.41)"/><path class="cls-6" d="M561.42,484.39l-10.12-9.23a3.34,3.34,0,0,0-5.59,2.45v1.1a3.33,3.33,0,0,1-3.36,3.32l-17.44-.11a3.32,3.32,0,0,1-3.19-2.43l-.58-2.06a3.36,3.36,0,0,0-3.2-2.44h-.35a3.34,3.34,0,0,0-3.36,3.32l-.1,14.91a3.35,3.35,0,0,0,3.32,3.36h.61a3.34,3.34,0,0,0,3.29-2.62l.41-1.9a3.34,3.34,0,0,1,3.34-2.62l34,.76a3.34,3.34,0,0,0,3.42-3.32h0A3.36,3.36,0,0,0,561.42,484.39Z" transform="translate(46.25 155.41)"/><path class="cls-6" d="M616.18,105.31l-10.75-8.49a3.34,3.34,0,0,0-5.4,2.85l.07,1.09a3.35,3.35,0,0,1-3.12,3.56l-17.4,1.14a3.33,3.33,0,0,1-3.36-2.2l-.73-2a3.34,3.34,0,0,0-3.36-2.2l-.35,0a3.34,3.34,0,0,0-3.12,3.55l1,14.87a3.34,3.34,0,0,0,3.55,3.12l.61,0a3.35,3.35,0,0,0,3.09-2.86l.27-1.92a3.34,3.34,0,0,1,3.15-2.85l34-1.68a3.33,3.33,0,0,0,3.17-3.55h0A3.33,3.33,0,0,0,616.18,105.31Z" transform="translate(46.25 155.41)"/><path class="cls-6" d="M304.62,294.58l-8.09-13.37a2.59,2.59,0,0,0-4.68.57h0a2.6,2.6,0,0,0,.13,1.86l3.18,6.84a2.6,2.6,0,0,1-.69,3.09l-3.94,3.24a2.58,2.58,0,0,1-3.77-.53L278,283.55a2.58,2.58,0,0,0-1.85-1.1l-5.3-.59a2.58,2.58,0,0,0-2.86,2.35l-2,22.92a2.58,2.58,0,0,0,2.25,2.78l3.62.47a2.6,2.6,0,0,0,2.92-2.66l-.29-8.18a2.58,2.58,0,0,1,4.41-1.91l8,8.07a2.6,2.6,0,0,0,3.14.41l13.62-8A2.58,2.58,0,0,0,304.62,294.58Z" transform="translate(46.25 155.41)"/><path class="cls-6" d="M697.08,431.62l-15.36-2.85a2.59,2.59,0,0,0-2.69,3.88h0a2.57,2.57,0,0,0,1.47,1.14l7.23,2.17a2.57,2.57,0,0,1,1.84,2.57l-.19,5.09a2.59,2.59,0,0,1-2.91,2.47l-15.34-1.91a2.61,2.61,0,0,0-2,.64l-4,3.57a2.59,2.59,0,0,0-.15,3.7l15.8,16.71a2.59,2.59,0,0,0,3.58.18l2.75-2.4a2.58,2.58,0,0,0,0-3.94l-6.3-5.22a2.58,2.58,0,0,1,1.5-4.57l11.38-.64a2.61,2.61,0,0,0,2.39-2.07l3.11-15.47A2.59,2.59,0,0,0,697.08,431.62Z" transform="translate(46.25 155.41)"/><path class="cls-6" d="M733.82,655.11l1.76-1a17.48,17.48,0,0,0,8.92-14.49l.54-12.19a2.9,2.9,0,0,0-2.5-3.05,2.81,2.81,0,0,0-3.1,2.8l.06,14.6a2.81,2.81,0,0,1-1,2.18l-3.57,2.91a2.8,2.8,0,0,1-3.83-.27L729,644.36a2.79,2.79,0,0,1-.73-1.71l-.78-11.42a3.68,3.68,0,0,0-4.81-3.26h0a3.67,3.67,0,0,0-2.55,3.52l0,11.62a2.81,2.81,0,0,1-1,2.18l-3.57,2.91a2.8,2.8,0,0,1-3.83-.27l-2.09-2.26a2.81,2.81,0,0,1-.73-1.71l-1-14.45a2.81,2.81,0,0,0-3-2.61l-.82.06a2.8,2.8,0,0,0-2.61,3l.79,11.63a17.48,17.48,0,0,0,6.23,12.24l2.78,2.32a2.8,2.8,0,0,0,3.16.29l7.7-4.88a4.21,4.21,0,0,1,5,.32l3.54,3A2.8,2.8,0,0,0,733.82,655.11Z" transform="translate(46.25 155.41)"/><path class="cls-6" d="M1374,439l.66-.45a6.43,6.43,0,0,0,2.66-6.84l-1-4.26a6.46,6.46,0,0,1,4.91-7.8l9.81-2.16a6.46,6.46,0,0,0,4.72-8.43l-1.85-5.33a6.45,6.45,0,0,0-8.17-4l-8.35,2.81a6.45,6.45,0,0,1-8.4-4.85l-1.23-6.12a6.45,6.45,0,0,0-8-5h0a6.46,6.46,0,0,0-4.62,7.62l2,9.09a6.45,6.45,0,0,1-4.25,7.51l-8.51,2.87a6.47,6.47,0,0,0-4.17,7.81l.22.8A6.46,6.46,0,0,0,1348,427l7.3-1.6a6.46,6.46,0,0,1,7.7,4.93l1,4.78A6.46,6.46,0,0,0,1374,439Z" transform="translate(46.25 155.41)"/><path class="cls-6" d="M1758.9,626.37l.44-.67a6.46,6.46,0,0,0-.15-7.34l-2.56-3.55a6.47,6.47,0,0,1,1.55-9.09l8.25-5.73a6.47,6.47,0,0,0,1.14-9.6l-3.74-4.22a6.47,6.47,0,0,0-9.08-.58l-6.64,5.79a6.47,6.47,0,0,1-9.62-1.27l-3.47-5.19a6.47,6.47,0,0,0-9.32-1.53h0a6.46,6.46,0,0,0-1.36,8.81l5.31,7.64a6.46,6.46,0,0,1-1.05,8.56l-6.77,5.9a6.47,6.47,0,0,0-.88,8.82l.51.65a6.45,6.45,0,0,0,8.81,1.37l6.14-4.27a6.47,6.47,0,0,1,9,1.61l2.79,4A6.47,6.47,0,0,0,1758.9,626.37Z" transform="translate(46.25 155.41)"/><g class="cls-7"><path class="cls-8" d="M1614.64,409.5a7.35,7.35,0,1,0,2,10.2A7.35,7.35,0,0,0,1614.64,409.5Z" transform="translate(46.25 155.41)"/><path class="cls-8" d="M1594.13,439.9a7.35,7.35,0,1,0,2,10.2A7.35,7.35,0,0,0,1594.13,439.9Z" transform="translate(46.25 155.41)"/><path class="cls-8" d="M1590.28,419.08l25.94,17.15a3.82,3.82,0,0,1,1.06,5.34h0a3.83,3.83,0,0,1-5,1.23L1585,428.15a3.84,3.84,0,0,1-1.55-5.22l1.37-2.5A3.83,3.83,0,0,1,1590.28,419.08Z" transform="translate(46.25 155.41)"/></g><g class="cls-7"><path class="cls-8" d="M1863.54,642.36l18.7,30.72a3.71,3.71,0,0,1-1.91,5.42h0a3.71,3.71,0,0,1-4.41-1.52l-19-30.31a3.73,3.73,0,0,1,.33-4.41l.34-.39A3.72,3.72,0,0,1,1863.54,642.36Z" transform="translate(46.25 155.41)"/><path class="cls-8" d="M1860.6,684.9l-19.07-30.81a3.6,3.6,0,0,1,1.7-5.23l2.09-.85a3.58,3.58,0,0,1,4.53,1.63l17,31.66a3.6,3.6,0,0,1-.35,3.94h0A3.6,3.6,0,0,1,1860.6,684.9Z" transform="translate(46.25 155.41)"/></g><path class="cls-6" d="M1854.73,392.64l-5.92-35.75a3.6,3.6,0,0,1,3.56-4.19h2.26a3.6,3.6,0,0,1,3.57,3.23l3.67,35.74a3.6,3.6,0,0,1-1.83,3.51h0A3.6,3.6,0,0,1,1854.73,392.64Z" transform="translate(46.25 155.41)"/><path class="cls-6" d="M1569.36,598.81l-8.71-10.57a3.34,3.34,0,0,0-5.88,1.63l-.16,1.09a3.34,3.34,0,0,1-3.8,2.81l-17.25-2.58a3.33,3.33,0,0,1-2.81-2.87l-.29-2.12a3.33,3.33,0,0,0-2.81-2.86l-.35-.05a3.33,3.33,0,0,0-3.8,2.81l-2.21,14.74a3.34,3.34,0,0,0,2.81,3.79l.6.09a3.34,3.34,0,0,0,3.63-2.13l.68-1.81a3.34,3.34,0,0,1,3.67-2.13l33.55,5.58a3.33,3.33,0,0,0,3.85-2.8h0A3.34,3.34,0,0,0,1569.36,598.81Z" transform="translate(46.25 155.41)"/><path class="cls-6" d="M1858.14,162l-9.44-9.92a3.34,3.34,0,0,0-5.75,2.05l-.09,1.1a3.33,3.33,0,0,1-3.58,3.07L1821.89,157a3.33,3.33,0,0,1-3-2.65l-.43-2.1a3.33,3.33,0,0,0-3-2.65l-.35,0a3.34,3.34,0,0,0-3.59,3.07l-1.14,14.86a3.34,3.34,0,0,0,3.07,3.59l.61.05a3.34,3.34,0,0,0,3.46-2.39l.55-1.86a3.33,3.33,0,0,1,3.51-2.38l33.87,3.16a3.34,3.34,0,0,0,3.64-3.07h0A3.37,3.37,0,0,0,1858.14,162Z" transform="translate(46.25 155.41)"/><path class="cls-6" d="M1766,482.12l1.88-.73a17.46,17.46,0,0,0,10.88-13.07l2.26-12a2.88,2.88,0,0,0-2-3.36,2.8,2.8,0,0,0-3.47,2.32l-2,14.47a2.82,2.82,0,0,1-1.33,2l-4,2.38a2.81,2.81,0,0,1-3.75-.81l-1.75-2.54a2.8,2.8,0,0,1-.48-1.8l.85-11.41a3.68,3.68,0,0,0-4.3-3.91h0a3.68,3.68,0,0,0-3,3.12l-1.6,11.51a2.8,2.8,0,0,1-1.33,2l-3.95,2.38a2.81,2.81,0,0,1-3.75-.81l-1.75-2.54a2.8,2.8,0,0,1-.48-1.8L1744,453.1a2.79,2.79,0,0,0-2.58-3l-.82-.06a2.79,2.79,0,0,0-3,2.58l-.88,11.62a17.52,17.52,0,0,0,4.44,13l2.42,2.69a2.81,2.81,0,0,0,3.09.74l8.31-3.74a4.2,4.2,0,0,1,4.86,1l3.08,3.43A2.81,2.81,0,0,0,1766,482.12Z" transform="translate(46.25 155.41)"/></g><g class="cls-7"><polygon class="cls-9" points="185.66 1226.5 202.63 1135.74 219.61 1044.99 306.69 1014.3 393.78 983.62 463.89 1043.7 534.01 1103.78 517.03 1194.54 500.06 1285.29 412.98 1315.98 325.89 1346.66 255.78 1286.58 185.66 1226.5 185.66 1226.5"/><polygon class="cls-9" points="633.62 1018.47 665.81 934.34 749.94 966.54 717.74 1050.66 633.62 1018.47 633.62 1018.47"/><polygon class="cls-9" points="940.94 956.86 984.33 898.21 1027.73 839.56 1055.69 913.42 1083.65 987.29 1012.29 972.07 940.94 956.86 940.94 956.86"/><polygon class="cls-9" points="1740.55 932.18 2014.65 1212.42 1883.2 1340.99 1609.1 1060.76 1740.55 932.18 1740.55 932.18"/><path class="cls-9" d="M484.82,755.68A26.7,26.7,0,1,1,458.13,729a26.69,26.69,0,0,1,26.69,26.7Z" transform="translate(46.25 155.41)"/><polygon class="cls-9" points="241.88 942.76 227.82 908.27 213.77 873.77 253.4 881.19 293.04 888.61 267.46 915.69 241.88 942.76 241.88 942.76"/><polygon class="cls-9" points="1247.24 892.24 1250.63 874.1 1254.03 855.96 1271.43 849.83 1288.83 843.7 1302.85 855.7 1316.86 867.71 1313.47 885.85 1310.08 903.99 1292.67 910.12 1275.27 916.25 1261.25 904.24 1247.24 892.24 1247.24 892.24"/><path class="cls-9" d="M787.57,961.74c37.88-27.68,79.49-35.21,92.93-16.81s-6.35,55.75-44.23,83.44-79.48,35.21-92.93,16.81,6.36-55.75,44.23-83.44Z" transform="translate(46.25 155.41)"/><polygon class="cls-9" points="1440.18 1226.34 1452.93 1026.41 1526.84 1167.37 1440.18 1226.34 1440.18 1226.34"/><polygon class="cls-9" points="1830.99 122.16 1814.02 212.91 1797.05 303.67 1709.96 334.36 1622.88 365.04 1552.76 304.96 1482.65 244.88 1499.62 154.13 1516.59 63.37 1603.68 32.68 1690.76 2 1760.88 62.08 1830.99 122.16 1830.99 122.16"/><polygon class="cls-9" points="1383.04 330.19 1350.84 414.32 1266.72 382.12 1298.91 297.99 1383.04 330.19 1383.04 330.19"/><polygon class="cls-9" points="1075.72 391.8 1032.32 450.45 988.93 509.1 960.97 435.24 933.01 361.37 1004.36 376.59 1075.72 391.8 1075.72 391.8"/><polygon class="cls-9" points="276.11 416.48 2 136.24 133.45 7.67 407.56 287.9 276.11 416.48 276.11 416.48"/><path class="cls-9" d="M1439.34,282.16a26.7,26.7,0,1,1,26.7,26.7,26.69,26.69,0,0,1-26.7-26.7Z" transform="translate(46.25 155.41)"/><polygon class="cls-9" points="1774.78 405.89 1788.83 440.39 1802.89 474.89 1763.25 467.47 1723.62 460.05 1749.2 432.97 1774.78 405.89 1774.78 405.89"/><polygon class="cls-9" points="769.41 456.42 766.02 474.56 762.63 492.7 745.23 498.83 727.82 504.96 713.81 492.96 699.8 480.95 703.19 462.81 706.58 444.67 723.98 438.54 741.39 432.41 755.4 444.42 769.41 456.42 769.41 456.42"/><path class="cls-9" d="M1136.59,76.09c-37.88,27.69-79.48,35.22-92.93,16.82s6.36-55.75,44.23-83.44,79.49-35.21,92.93-16.82-6.35,55.76-44.23,83.44Z" transform="translate(46.25 155.41)"/><polygon class="cls-9" points="576.47 122.25 563.73 322.18 489.81 181.22 576.47 122.25 576.47 122.25"/></g></g></g></g></svg>