<svg xmlns="http://www.w3.org/2000/svg" viewBox="0 0 317.66 68.97"><defs><style>.cls-1{isolation:isolate;}.cls-2{opacity:0.27;mix-blend-mode:multiply;}.cls-3{fill:#a83131;}.cls-4{fill:#ea5c5c;}.cls-5{mix-blend-mode:overlay;}.cls-6,.cls-8{font-size:34.71px;font-family:Raleway-Bold, Raleway;font-weight:700;}.cls-7{fill:#a83132;}.cls-8{fill:#fff;}</style></defs><g class="cls-1"><g id="Layer_2" data-name="Layer 2"><g id="Grid"><rect class="cls-2" x="10.79" y="15.41" width="296.08" height="53.56" rx="21.86"/><rect class="cls-3" width="317.66" height="62.38" rx="26.01"/><rect class="cls-4" x="5" y="5" width="307.66" height="52.38" rx="21.01"/><g class="cls-5"><text class="cls-6" transform="translate(112.44 45.05)">Clear</text><path d="M125.46,48.23a13.62,13.62,0,0,1-6.17-1.42,15.13,15.13,0,0,1-4.69-3.63,17,17,0,0,1-3-5,15.71,15.71,0,0,1-1.09-5.69,15.5,15.5,0,0,1,1-5.48,15.87,15.87,0,0,1,2.92-4.87,14.59,14.59,0,0,1,4.81-3.59,14.94,14.94,0,0,1,6.41-1.34,14.15,14.15,0,0,1,7.43,1.92,12.49,12.49,0,0,1,4.82,5.1,3,3,0,0,1-1,3.83l-3.68,2.53a3,3,0,0,1-1.7.53,3.22,3.22,0,0,1-.81-.11,3,3,0,0,1-1.93-1.66,3,3,0,0,0-.78-1.11,3.29,3.29,0,0,0-1.1-.59,5.14,5.14,0,0,0-1.42-.21,3.61,3.61,0,0,0-1.71.36,4.17,4.17,0,0,0-1.29,1.1,5.25,5.25,0,0,0-.84,1.67,7.05,7.05,0,0,0-.31,2.06,6.48,6.48,0,0,0,.36,2.16,5.46,5.46,0,0,0,1,1.75A4,4,0,0,0,124,37.64a3.4,3.4,0,0,0,1.58.35,4.71,4.71,0,0,0,1.4-.23,3.53,3.53,0,0,0,1.2-.68,2.54,2.54,0,0,0,.71-1,3,3,0,0,1,1.8-1.68,2.93,2.93,0,0,1,1-.16,3.06,3.06,0,0,1,1.5.4l3.92,2.26a3,3,0,0,1,1.29,3.7A10.33,10.33,0,0,1,135.06,45a14.81,14.81,0,0,1-4.62,2.43A16,16,0,0,1,125.46,48.23Z"/><path d="M142.92,48.4a7.54,7.54,0,0,1-5.48-2,7.33,7.33,0,0,1-2.1-5.47V19.71a3,3,0,0,1,3-3H143a3,3,0,0,1,3,3V38a2.66,2.66,0,0,1,.75-.1,3.13,3.13,0,0,1,1.39.34,3,3,0,0,1,1.56,2.14l.62,3.54a3,3,0,0,1-1.65,3.23,12,12,0,0,1-2.91.93A14.91,14.91,0,0,1,142.92,48.4Z"/><path d="M157.81,48.4a13.25,13.25,0,0,1-5.11-1,12.12,12.12,0,0,1-7.47-11.26A12.63,12.63,0,0,1,146.76,30a11.87,11.87,0,0,1,4.43-4.55,12.78,12.78,0,0,1,6.65-1.71,12.56,12.56,0,0,1,6.66,1.73A11.77,11.77,0,0,1,168.84,30a12.57,12.57,0,0,1,1.48,6c0,.35,0,.71,0,1.08s-.05.62-.08.84a3,3,0,0,1-1,1.9,3,3,0,0,1-.18,2.1,10.64,10.64,0,0,1-2.63,3.44,12.18,12.18,0,0,1-3.85,2.24A13.71,13.71,0,0,1,157.81,48.4Z"/><path d="M175.23,48.4a10,10,0,0,1-4.61-1.07,8.52,8.52,0,0,1-3.42-3.09,8.26,8.26,0,0,1-1.29-4.5,8,8,0,0,1,1.59-4.87,8.55,8.55,0,0,1,1.19-1.29l-1.53-3.14a3,3,0,0,1,1.05-3.83,17.67,17.67,0,0,1,4.44-2.12,16.14,16.14,0,0,1,4.87-.73,11.75,11.75,0,0,1,8,2.67,9.78,9.78,0,0,1,3.19,7.72v4.79a3,3,0,0,1,1.11,2.33v3.78a3,3,0,0,1-2.51,3l-1.2.19a10.47,10.47,0,0,1-1.27.09,6,6,0,0,1-4.07-1.36l-.69.35A11.45,11.45,0,0,1,175.23,48.4Z"/><path d="M190.09,48.05a3,3,0,0,1-3-3V27a3,3,0,0,1,3-3h4.27a3,3,0,0,1,1.83.62,8.76,8.76,0,0,1,3.6-1h.78a4.44,4.44,0,0,1,1.05.12,3,3,0,0,1,2.3,2.92v4.23a3,3,0,0,1-3,3,5.56,5.56,0,0,0-2.47.51,2.24,2.24,0,0,0-.71.51V45.05a3,3,0,0,1-3,3Z"/><text class="cls-6" transform="translate(112.44 45.05)">Clear</text></g><text class="cls-6" transform="translate(112.44 42.05)">Clear</text><path class="cls-7" d="M125.46,45.23a13.62,13.62,0,0,1-6.17-1.42,15.13,15.13,0,0,1-4.69-3.63,17,17,0,0,1-3-5,15.71,15.71,0,0,1-1.09-5.69,15.5,15.5,0,0,1,1-5.48,15.87,15.87,0,0,1,2.92-4.87,14.59,14.59,0,0,1,4.81-3.59,14.94,14.94,0,0,1,6.41-1.34,14.15,14.15,0,0,1,7.43,1.92,12.49,12.49,0,0,1,4.82,5.1,3,3,0,0,1-1,3.83l-3.68,2.53a3,3,0,0,1-1.7.53,3.22,3.22,0,0,1-.81-.11,3,3,0,0,1-1.93-1.66,3,3,0,0,0-.78-1.11,3.29,3.29,0,0,0-1.1-.59,5.14,5.14,0,0,0-1.42-.21,3.61,3.61,0,0,0-1.71.36,4.17,4.17,0,0,0-1.29,1.1,5.25,5.25,0,0,0-.84,1.67,7.05,7.05,0,0,0-.31,2.06,6.48,6.48,0,0,0,.36,2.16,5.46,5.46,0,0,0,1,1.75A4,4,0,0,0,124,34.64a3.4,3.4,0,0,0,1.58.35,4.71,4.71,0,0,0,1.4-.23,3.53,3.53,0,0,0,1.2-.68,2.54,2.54,0,0,0,.71-1,3,3,0,0,1,1.8-1.68,2.93,2.93,0,0,1,1-.16,3.06,3.06,0,0,1,1.5.4l3.92,2.26a3,3,0,0,1,1.29,3.7A10.33,10.33,0,0,1,135.06,42a14.81,14.81,0,0,1-4.62,2.43A16,16,0,0,1,125.46,45.23Z"/><path class="cls-7" d="M142.92,45.4a7.54,7.54,0,0,1-5.48-2,7.33,7.33,0,0,1-2.1-5.47V16.71a3,3,0,0,1,3-3H143a3,3,0,0,1,3,3V35a2.66,2.66,0,0,1,.75-.1,3.13,3.13,0,0,1,1.39.34,3,3,0,0,1,1.56,2.14l.62,3.54a3,3,0,0,1-1.65,3.23,12,12,0,0,1-2.91.93A14.91,14.91,0,0,1,142.92,45.4Z"/><path class="cls-7" d="M157.81,45.4a13.25,13.25,0,0,1-5.11-1,12.12,12.12,0,0,1-7.47-11.26A12.63,12.63,0,0,1,146.76,27a11.87,11.87,0,0,1,4.43-4.55,12.78,12.78,0,0,1,6.65-1.71,12.56,12.56,0,0,1,6.66,1.73A11.77,11.77,0,0,1,168.84,27a12.57,12.57,0,0,1,1.48,6c0,.35,0,.71,0,1.08s-.05.62-.08.84a3,3,0,0,1-1,1.9,3,3,0,0,1-.18,2.1,10.64,10.64,0,0,1-2.63,3.44,12.18,12.18,0,0,1-3.85,2.24A13.71,13.71,0,0,1,157.81,45.4Z"/><path class="cls-7" d="M175.23,45.4a10,10,0,0,1-4.61-1.07,8.52,8.52,0,0,1-3.42-3.09,8.26,8.26,0,0,1-1.29-4.5,8,8,0,0,1,1.59-4.87,8.55,8.55,0,0,1,1.19-1.29l-1.53-3.14a3,3,0,0,1,1.05-3.83,17.67,17.67,0,0,1,4.44-2.12,16.14,16.14,0,0,1,4.87-.73,11.75,11.75,0,0,1,8,2.67,9.78,9.78,0,0,1,3.19,7.72v4.79a3,3,0,0,1,1.11,2.33v3.78a3,3,0,0,1-2.51,3l-1.2.19a10.47,10.47,0,0,1-1.27.09,6,6,0,0,1-4.07-1.36l-.69.35A11.45,11.45,0,0,1,175.23,45.4Z"/><path class="cls-7" d="M190.09,45.05a3,3,0,0,1-3-3V24a3,3,0,0,1,3-3h4.27a3,3,0,0,1,1.83.62,8.76,8.76,0,0,1,3.6-1h.78a4.44,4.44,0,0,1,1.05.12,3,3,0,0,1,2.3,2.92v4.23a3,3,0,0,1-3,3,5.56,5.56,0,0,0-2.47.51,2.24,2.24,0,0,0-.71.51V42.05a3,3,0,0,1-3,3Z"/><text class="cls-8" transform="translate(112.44 42.05)">Clear</text></g></g></g></svg>