<svg xmlns="http://www.w3.org/2000/svg" viewBox="0 0 736.41 822.18"><defs><style>.cls-1{isolation:isolate;}.cls-2{fill:#1574ff;}.cls-3{fill:#f4f4f4;}.cls-4{opacity:0.1;}.cls-5{fill:#044a9e;}.cls-6{opacity:0.27;mix-blend-mode:multiply;}.cls-7{fill:#bf2121;}.cls-8{fill:#ffb0b0;}.cls-9{mix-blend-mode:overlay;}.cls-10{fill:#fff;}.cls-11{fill:#be2122;}.cls-12{fill:#cf63fc;}.cls-13{fill:#030104;}.cls-14{fill:#6707a5;}.cls-15{fill:#ea3939;}.cls-16{fill:#a81616;}.cls-17{font-size:44px;font-family:Raleway-Bold, Raleway;font-weight:700;}.cls-18{font-size:91.81px;font-family:Raleway-Black, Raleway;font-weight:800;}.cls-19{font-size:55px;}.cls-20{fill:#0ce2a0;}</style></defs><g class="cls-1"><g id="Layer_2" data-name="Layer 2"><g id="Great_Work_Prompt"><g id="clear_window"><g id="window"><path class="cls-2" d="M719.62,527.34c0,196.37-159.18,241.2-355.55,241.2S8.52,723.71,8.52,527.34,167.7,57.43,364.07,57.43,719.62,331,719.62,527.34Z"/><path class="cls-3" d="M700.89,521.31c0,186-150.8,228.49-336.82,228.49S27.25,707.33,27.25,521.31,178.05,76.17,364.07,76.17,700.89,335.3,700.89,521.31Z"/><path class="cls-4" d="M364.07,90.37c41.45,0,82.89,13.78,123.16,41a350.8,350.8,0,0,1,55,46.53,464,464,0,0,1,48.36,59.21A572.18,572.18,0,0,1,661,377.83c16.82,49.81,25.72,99.42,25.72,143.48,0,81.31-29.88,137.44-91.35,171.59-27.69,15.39-61.23,26.3-102.56,33.37-36.76,6.28-78.87,9.34-128.71,9.34s-91.95-3.06-128.71-9.34c-41.33-7.07-74.87-18-102.56-33.37-61.47-34.15-91.35-90.28-91.35-171.59,0-44.06,8.9-93.67,25.72-143.48a572.18,572.18,0,0,1,70.41-140.76,464,464,0,0,1,48.36-59.21,350.8,350.8,0,0,1,55-46.53c40.27-27.18,81.71-41,123.16-41m0-14.2c-186,0-336.82,259.13-336.82,445.14S178.05,749.8,364.07,749.8s336.82-42.47,336.82-228.49S550.09,76.17,364.07,76.17Z"/><path class="cls-5" d="M364.07,57.43c196.37,0,355.55,273.54,355.55,469.91s-159.18,241.2-355.55,241.2S8.52,723.71,8.52,527.34,167.7,57.43,364.07,57.43m0-8.51c-48.53,0-96.7,15.9-143.16,47.26a393.78,393.78,0,0,0-61.74,52.22,515.34,515.34,0,0,0-53.52,65.5A627.72,627.72,0,0,0,28.39,368.35C9.82,423.32,0,478.3,0,527.34,0,552,2.51,575.14,7.45,596a213.78,213.78,0,0,0,21.59,56,190.91,190.91,0,0,0,34.31,44.05A219.75,219.75,0,0,0,108.52,729C140.1,746.57,178,759,224.24,766.86c40.13,6.86,85.87,10.2,139.83,10.2s99.7-3.34,139.83-10.2C550.19,759,588,746.57,619.62,729a219.75,219.75,0,0,0,45.17-32.91,190.91,190.91,0,0,0,34.31-44.05,213.78,213.78,0,0,0,21.59-56c4.94-20.9,7.45-44,7.45-68.7,0-49-9.82-104-28.39-159A627.72,627.72,0,0,0,622.49,213.9,515.34,515.34,0,0,0,569,148.4a393.78,393.78,0,0,0-61.74-52.22C460.77,64.82,412.6,48.92,364.07,48.92Z"/></g></g><rect class="cls-6" x="10.52" y="645.72" width="128.8" height="128.8" rx="42.42"/><rect class="cls-7" x="8.78" y="625.8" width="132.27" height="132.27" rx="43"/><rect class="cls-8" x="17.05" y="634.06" width="115.74" height="115.74" rx="34.73"/><g class="cls-9"><path d="M109.41,678.84c-11.1-18.23-27.81-5.55-27.81-5.55a8.7,8.7,0,0,1-4.44,1.5H72.68a8.63,8.63,0,0,1-4.44-1.49s-16.71-12.69-27.81,5.54-6.62,38.07-6.62,38.07c.78,4.86,3.36,8.1,8.23,7.69s15.41-13.08,15.41-13.08a6,6,0,0,1,4-1.9H88.34a6,6,0,0,1,4,1.9s10.55,12.68,15.41,13.09,7.46-2.84,8.24-7.7C116,716.9,120.5,697.06,109.41,678.84ZM64.83,693.67H59.08v5.55a5.4,5.4,0,0,1-3.11.91,3.74,3.74,0,0,1-2.73-1v-5.44H47.8a4.32,4.32,0,0,1-.86-2.52,5.78,5.78,0,0,1,.75-3.31h5.76v-5.76a6.27,6.27,0,0,1,2.89-.58,7.59,7.59,0,0,1,2.95.69l0,5.64H64.7a5.43,5.43,0,0,1,1,2.7A6.74,6.74,0,0,1,64.83,693.67ZM91.23,700a4.56,4.56,0,1,1,4.56-4.56A4.55,4.55,0,0,1,91.23,700Zm0-12.54a4.56,4.56,0,1,1,4.56-4.55A4.54,4.54,0,0,1,91.23,687.46Zm11.34,6.73a4.56,4.56,0,1,1,4.56-4.56A4.55,4.55,0,0,1,102.57,694.19Z"/><path d="M41.24,729.6c-6.48,0-11.07-4.4-12.31-11.77-.46-2.18-4.32-22.54,7.26-41.57,6.15-10.1,14-12.22,19.47-12.22a27.81,27.81,0,0,1,15.58,5.31,4.4,4.4,0,0,0,1.46.48h4.45a4.25,4.25,0,0,0,1.48-.5A27.91,27.91,0,0,1,94.18,664c5.48,0,13.32,2.12,19.47,12.22,11.51,18.91,7.68,39.48,7.25,41.55-1.22,7.38-5.82,11.78-12.3,11.78h0c-.4,0-.8,0-1.22-.05-2.58-.22-8.45-2.42-18.73-14.76a1.78,1.78,0,0,0-.44-.21H61.62a1.48,1.48,0,0,0-.44.21c-4.45,5.34-12.73,14.26-18.72,14.76C42,729.58,41.63,729.6,41.24,729.6Z"/><path d="M109.41,678.84c-11.1-18.23-27.81-5.55-27.81-5.55a8.7,8.7,0,0,1-4.44,1.5H72.68a8.63,8.63,0,0,1-4.44-1.49s-16.71-12.69-27.81,5.54-6.62,38.07-6.62,38.07c.78,4.86,3.36,8.1,8.23,7.69s15.41-13.08,15.41-13.08a6,6,0,0,1,4-1.9H88.34a6,6,0,0,1,4,1.9s10.55,12.68,15.41,13.09,7.46-2.84,8.24-7.7C116,716.9,120.5,697.06,109.41,678.84ZM64.83,693.67H59.08v5.55a5.4,5.4,0,0,1-3.11.91,3.74,3.74,0,0,1-2.73-1v-5.44H47.8a4.32,4.32,0,0,1-.86-2.52,5.78,5.78,0,0,1,.75-3.31h5.76v-5.76a6.27,6.27,0,0,1,2.89-.58,7.59,7.59,0,0,1,2.95.69l0,5.64H64.7a5.43,5.43,0,0,1,1,2.7A6.74,6.74,0,0,1,64.83,693.67ZM91.23,700a4.56,4.56,0,1,1,4.56-4.56A4.55,4.55,0,0,1,91.23,700Zm0-12.54a4.56,4.56,0,1,1,4.56-4.55A4.54,4.54,0,0,1,91.23,687.46Zm11.34,6.73a4.56,4.56,0,1,1,4.56-4.56A4.55,4.55,0,0,1,102.57,694.19Z"/></g><path class="cls-10" d="M109.41,673.88c-11.1-18.23-27.81-5.55-27.81-5.55a8.6,8.6,0,0,1-4.44,1.49H72.68a8.63,8.63,0,0,1-4.44-1.49s-16.71-12.69-27.81,5.54S33.81,712,33.81,712c.78,4.86,3.36,8.1,8.23,7.69s15.41-13.08,15.41-13.08a6,6,0,0,1,4-1.9H88.34a6,6,0,0,1,4,1.9s10.55,12.68,15.41,13.09,7.46-2.84,8.24-7.7C116,711.94,120.5,692.1,109.41,673.88ZM64.83,688.71H59.08v5.55a5.4,5.4,0,0,1-3.11.91,3.74,3.74,0,0,1-2.73-1v-5.44H47.8a4.32,4.32,0,0,1-.86-2.52,5.78,5.78,0,0,1,.75-3.31h5.76v-5.76a6.27,6.27,0,0,1,2.89-.58,7.59,7.59,0,0,1,2.95.69l0,5.64H64.7a5.43,5.43,0,0,1,1,2.7A6.74,6.74,0,0,1,64.83,688.71ZM91.23,695a4.56,4.56,0,1,1,4.56-4.55A4.54,4.54,0,0,1,91.23,695Zm0-12.53A4.56,4.56,0,1,1,95.79,678,4.54,4.54,0,0,1,91.23,682.5Zm11.34,6.73a4.56,4.56,0,1,1,4.56-4.56A4.55,4.55,0,0,1,102.57,689.23Z"/><path class="cls-11" d="M41.24,724.64c-6.48,0-11.07-4.4-12.31-11.77-.46-2.18-4.32-22.54,7.26-41.57,6.15-10.1,14-12.22,19.47-12.22a27.81,27.81,0,0,1,15.58,5.31,4.4,4.4,0,0,0,1.46.48h4.45a4.25,4.25,0,0,0,1.48-.5,27.91,27.91,0,0,1,15.55-5.28c5.48,0,13.32,2.12,19.47,12.22,11.51,18.91,7.68,39.48,7.25,41.55-1.22,7.38-5.82,11.78-12.3,11.78h0c-.4,0-.8,0-1.22,0-2.58-.22-8.45-2.42-18.73-14.76a1.78,1.78,0,0,0-.44-.21H61.62a1.48,1.48,0,0,0-.44.21c-4.45,5.34-12.73,14.26-18.72,14.76C42,724.62,41.63,724.64,41.24,724.64Z"/><path class="cls-10" d="M109.41,673.88c-11.1-18.23-27.81-5.55-27.81-5.55a8.6,8.6,0,0,1-4.44,1.49H72.68a8.63,8.63,0,0,1-4.44-1.49s-16.71-12.69-27.81,5.54S33.81,712,33.81,712c.78,4.86,3.36,8.1,8.23,7.69s15.41-13.08,15.41-13.08a6,6,0,0,1,4-1.9H88.34a6,6,0,0,1,4,1.9s10.55,12.68,15.41,13.09,7.46-2.84,8.24-7.7C116,711.94,120.5,692.1,109.41,673.88ZM64.83,688.71H59.08v5.55a5.4,5.4,0,0,1-3.11.91,3.74,3.74,0,0,1-2.73-1v-5.44H47.8a4.32,4.32,0,0,1-.86-2.52,5.78,5.78,0,0,1,.75-3.31h5.76v-5.76a6.27,6.27,0,0,1,2.89-.58,7.59,7.59,0,0,1,2.95.69l0,5.64H64.7a5.43,5.43,0,0,1,1,2.7A6.74,6.74,0,0,1,64.83,688.71ZM91.23,695a4.56,4.56,0,1,1,4.56-4.55A4.54,4.54,0,0,1,91.23,695Zm0-12.53A4.56,4.56,0,1,1,95.79,678,4.54,4.54,0,0,1,91.23,682.5Zm11.34,6.73a4.56,4.56,0,1,1,4.56-4.56A4.55,4.55,0,0,1,102.57,689.23Z"/><rect class="cls-6" x="576.13" y="645.72" width="157.78" height="128.8" rx="42.42"/><rect class="cls-10" x="573.63" y="625.8" width="162.78" height="132.27" rx="43"/><rect class="cls-12" x="581.9" y="634.06" width="146.24" height="115.74" rx="34.73"/><g class="cls-9"><path d="M696.57,692.11l-34.78-27.63a5.48,5.48,0,0,0-5.31.22,5.32,5.32,0,0,0-2.6,4.56v15.55l-25.59-20.33a5.48,5.48,0,0,0-5.31.22,5.33,5.33,0,0,0-2.59,4.56v55.27a5.35,5.35,0,0,0,2.59,4.56,5.48,5.48,0,0,0,2.86.79,5.61,5.61,0,0,0,2.46-.57L653.88,709v15.55a5.34,5.34,0,0,0,2.6,4.56,5.56,5.56,0,0,0,5.31.22l34.78-27.64c1.67-1.57,3-2.75,3-4.78S698.45,693.76,696.57,692.11Z"/><path d="M659.34,734.84a10.46,10.46,0,0,1-5.43-1.51,10.33,10.33,0,0,1-5-8.8v-5.28l-17.54,13.94a5,5,0,0,1-.88.56,10.59,10.59,0,0,1-4.66,1.09,10.48,10.48,0,0,1-5.43-1.51,10.34,10.34,0,0,1-5-8.8V669.26a10.32,10.32,0,0,1,5-8.81,10.43,10.43,0,0,1,10.09-.4,5.22,5.22,0,0,1,.86.55l17.54,13.93v-5.27a10.35,10.35,0,0,1,5-8.81,10.45,10.45,0,0,1,10.1-.4,4.75,4.75,0,0,1,.85.55l34.79,27.62.2.17c2,1.74,4.67,4.13,4.67,8.5,0,4.12-2.55,6.51-4.42,8.26l-.14.14-.31.27-34.78,27.63a5.45,5.45,0,0,1-.88.56A10.66,10.66,0,0,1,659.34,734.84Z"/><path d="M696.57,692.11l-34.78-27.63a5.48,5.48,0,0,0-5.31.22,5.32,5.32,0,0,0-2.6,4.56v15.55l-25.59-20.33a5.48,5.48,0,0,0-5.31.22,5.33,5.33,0,0,0-2.59,4.56v55.27a5.35,5.35,0,0,0,2.59,4.56,5.48,5.48,0,0,0,2.86.79,5.61,5.61,0,0,0,2.46-.57L653.88,709v15.55a5.34,5.34,0,0,0,2.6,4.56,5.56,5.56,0,0,0,5.31.22l34.78-27.64c1.67-1.57,3-2.75,3-4.78S698.45,693.76,696.57,692.11Z"/></g><path class="cls-13" d="M696.57,687.15l-34.78-27.63a5.48,5.48,0,0,0-5.31.22,5.32,5.32,0,0,0-2.6,4.56v15.55l-25.59-20.33a5.48,5.48,0,0,0-5.31.22,5.33,5.33,0,0,0-2.59,4.56v55.27a5.35,5.35,0,0,0,2.59,4.56,5.48,5.48,0,0,0,2.86.79,5.61,5.61,0,0,0,2.46-.57L653.88,704v15.55a5.34,5.34,0,0,0,2.6,4.56,5.56,5.56,0,0,0,5.31.22l34.78-27.64c1.67-1.57,3-2.75,3-4.78S698.45,688.8,696.57,687.15Z"/><path class="cls-14" d="M659.34,729.88a10.46,10.46,0,0,1-5.43-1.51,10.34,10.34,0,0,1-5-8.8v-5.28l-17.54,13.94a5,5,0,0,1-.88.56,10.59,10.59,0,0,1-4.66,1.09,10.48,10.48,0,0,1-5.43-1.51,10.36,10.36,0,0,1-5-8.8V664.3a10.32,10.32,0,0,1,5-8.81,10.43,10.43,0,0,1,10.09-.4,5.22,5.22,0,0,1,.86.55l17.54,13.93V664.3a10.35,10.35,0,0,1,5-8.81,10.45,10.45,0,0,1,10.1-.4,4.75,4.75,0,0,1,.85.55l34.79,27.62.2.17c2,1.74,4.67,4.13,4.67,8.5,0,4.12-2.55,6.51-4.42,8.26l-.14.14-.31.27-34.78,27.63a5.45,5.45,0,0,1-.88.56A10.66,10.66,0,0,1,659.34,729.88Z"/><path class="cls-10" d="M696.57,687.15l-34.78-27.63a5.48,5.48,0,0,0-5.31.22,5.32,5.32,0,0,0-2.6,4.56v15.55l-25.59-20.33a5.48,5.48,0,0,0-5.31.22,5.33,5.33,0,0,0-2.59,4.56v55.27a5.35,5.35,0,0,0,2.59,4.56,5.48,5.48,0,0,0,2.86.79,5.61,5.61,0,0,0,2.46-.57L653.88,704v15.55a5.34,5.34,0,0,0,2.6,4.56,5.56,5.56,0,0,0,5.31.22l34.78-27.64c1.67-1.57,3-2.75,3-4.78S698.45,688.8,696.57,687.15Z"/><rect class="cls-6" x="299.67" y="693.37" width="128.8" height="128.8" rx="42.42"/><rect class="cls-10" x="297.93" y="673.45" width="132.27" height="132.27" rx="43"/><rect class="cls-15" x="306.2" y="681.72" width="115.74" height="115.74" rx="34.73"/><g class="cls-9"><path id="Undo" d="M363.63,711.56a33.52,33.52,0,0,0-18.8,5.77l-4.82-4.8a3.3,3.3,0,0,0-5.63,2.32v16.49a3.3,3.3,0,0,0,3.3,3.3h16.49A3.3,3.3,0,0,0,356.5,729l-2.05-2a19.7,19.7,0,1,1-10.39,22.52,6.6,6.6,0,0,0-12.77,3.33,33.35,33.35,0,1,0,32.34-41.25Z"/><path d="M363.57,782.5a38.48,38.48,0,0,1-37.06-28.39l0-.11a11.5,11.5,0,0,1,8.15-13.91,11.82,11.82,0,0,1,3.07-.41,11.59,11.59,0,0,1,11.14,8.48,15.21,15.21,0,0,0,14.39,11.21h.36A14.61,14.61,0,0,0,377.22,738a15.21,15.21,0,0,0-13.59-8.31c-.45,0-.91,0-1.36.06a8.37,8.37,0,0,1,.15,1.58,8.26,8.26,0,0,1-8.25,8.26H337.68a8.26,8.26,0,0,1-8.26-8.26V714.85a8.26,8.26,0,0,1,14.1-5.83l2.07,2.07a38.27,38.27,0,0,1,18-4.49h.18A38.29,38.29,0,0,1,402,744.5v.1a38.45,38.45,0,0,1-38.43,37.9Z"/><path id="Undo-2" data-name="Undo" d="M363.63,711.56a33.52,33.52,0,0,0-18.8,5.77l-4.82-4.8a3.3,3.3,0,0,0-5.63,2.32v16.49a3.3,3.3,0,0,0,3.3,3.3h16.49A3.3,3.3,0,0,0,356.5,729l-2.05-2a19.7,19.7,0,1,1-10.39,22.52,6.6,6.6,0,0,0-12.77,3.33,33.35,33.35,0,1,0,32.34-41.25Z"/></g><path id="Undo-3" data-name="Undo" d="M363.63,706.6a33.52,33.52,0,0,0-18.8,5.77l-4.82-4.8a3.3,3.3,0,0,0-5.63,2.32v16.49a3.3,3.3,0,0,0,3.3,3.3h16.49a3.3,3.3,0,0,0,2.33-5.63l-2.05-2a19.7,19.7,0,1,1-10.39,22.52,6.6,6.6,0,0,0-12.77,3.33,33.35,33.35,0,1,0,32.34-41.25Z"/><path class="cls-16" d="M363.57,777.54a38.48,38.48,0,0,1-37.06-28.39l0-.11a11.5,11.5,0,0,1,8.15-13.91,11.82,11.82,0,0,1,3.07-.41,11.59,11.59,0,0,1,11.14,8.48,15.21,15.21,0,0,0,14.39,11.21h.36a14.61,14.61,0,0,0,13.63-21.36,15.21,15.21,0,0,0-13.59-8.31c-.45,0-.91,0-1.36.06a8.27,8.27,0,0,1-8.1,9.84H337.68a8.26,8.26,0,0,1-8.26-8.26V709.89a8.26,8.26,0,0,1,14.1-5.83l2.07,2.07a38.27,38.27,0,0,1,18-4.49h.18A38.29,38.29,0,0,1,402,739.54v.1a38.45,38.45,0,0,1-38.43,37.9Z"/><path id="Undo-4" data-name="Undo" class="cls-10" d="M363.63,706.6a33.52,33.52,0,0,0-18.8,5.77l-4.82-4.8a3.3,3.3,0,0,0-5.63,2.32v16.49a3.3,3.3,0,0,0,3.3,3.3h16.49a3.3,3.3,0,0,0,2.33-5.63l-2.05-2a19.7,19.7,0,1,1-10.39,22.52,6.6,6.6,0,0,0-12.77,3.33,33.35,33.35,0,1,0,32.34-41.25Z"/><text class="cls-17" transform="translate(172.96 362.81)">You’ve completed<tspan class="cls-18"><tspan x="21.62" y="110.17">Step 1! </tspan></tspan><tspan class="cls-19"><tspan x="-1.99" y="176.17">Let’s compare </tspan><tspan x="-31.84" y="242.16">two shapes next.</tspan></tspan></text><path d="M225,139.31l-44.4,1.79q-17.62.72-26.44-6t-9.4-21.36l-1.78-44q-.6-14.67,7.65-22t25.86-8.11l35.24-1.42a5.28,5.28,0,0,1,3.93,1A5.29,5.29,0,0,1,217,43.05l.69,17.06a5.28,5.28,0,0,1-1,3.93,5.3,5.3,0,0,1-3.83,1.35l-29.32,1.19c-2.91.11-5,.79-6.41,2A6.52,6.52,0,0,0,175.2,74l1.36,33.69q.15,3.53,1.83,5.15a6.42,6.42,0,0,0,4.94,1.5l13.67-.55-.89-22A4.34,4.34,0,0,1,201,86.49l21.85-.89a4.34,4.34,0,0,1,5.28,4.87L229.87,134a4.35,4.35,0,0,1-4.87,5.28Z"/><path d="M269.51,131.69l-21.65,1.82a4.35,4.35,0,0,1-5.48-4.64l-7.67-91.1a5.3,5.3,0,0,1,.87-4,5.35,5.35,0,0,1,3.77-1.52l46.81-3.94q15.75-1.32,22.27,4.71t7.4,16.44l.55,6.47a26,26,0,0,1-.91,10.19,11,11,0,0,1-5.62,6.49,18.6,18.6,0,0,1,12.82,5.15q5.16,5,5.91,13.81l2.5,29.8a4.35,4.35,0,0,1-4.63,5.49l-21.79,1.83a4.35,4.35,0,0,1-5.49-4.64l-1.81-21.5a7.17,7.17,0,0,0-1.58-4.47c-.88-.92-2.3-1.29-4.27-1.13l-19.68,1.66,2.32,27.55a4.35,4.35,0,0,1-4.64,5.49Zm-1.32-76.34,1.51,18,10.55-.89q3.64-.3,4.76-2.31a8.47,8.47,0,0,0,.87-4.82l-.41-4.77a8.3,8.3,0,0,0-1.66-4.61q-1.43-1.78-5.08-1.48Z"/><path d="M421.78,128.08l-74,3c-2,.08-3.5-.31-4.44-1.18a6,6,0,0,1-1.53-4.33L337.67,22.27a6,6,0,0,1,1.18-4.43q1.29-1.41,4.32-1.53l74-3a6,6,0,0,1,4.43,1.18,6.06,6.06,0,0,1,1.54,4.33l.75,18.65c.08,2-.31,3.5-1.18,4.43a6,6,0,0,1-4.33,1.54l-44,1.78.5,12.27,31.08-1.26a6.06,6.06,0,0,1,4.44,1.18,6.06,6.06,0,0,1,1.53,4.33l.69,17.05a6,6,0,0,1-1.18,4.44,6.06,6.06,0,0,1-4.33,1.54L376,86l.56,13.71,44-1.78a4.92,4.92,0,0,1,6,5.51l.75,18.64a4.92,4.92,0,0,1-5.5,6Z"/><path d="M468.2,124.06a5.65,5.65,0,0,1-1.11,4.18,5.72,5.72,0,0,1-4.08,1.44l-22.05.89a4.64,4.64,0,0,1-5.63-5.18l-1.6-39.62a44.07,44.07,0,0,1,1-10.41,114.17,114.17,0,0,1,3.87-13.84l11.68-34.59a7.07,7.07,0,0,1,2.62-3.87,9,9,0,0,1,4.83-1.4L498.11,20a8.6,8.6,0,0,1,4.78,1,7.06,7.06,0,0,1,2.93,3.64l14.43,33.54a114.34,114.34,0,0,1,5,13.48A44.23,44.23,0,0,1,527.08,82l1.6,39.62a4.63,4.63,0,0,1-5.19,5.62l-22.66.92a6.44,6.44,0,0,1-4.47-1.1,5.27,5.27,0,0,1-1.6-4.07l-.85-21-26.56,1.08Zm5.68-71.48-6.13,23.1,23.56-1-8-22.52A5.77,5.77,0,0,0,482,50.3a2.29,2.29,0,0,0-1.6-.54l-3.76.15a2.33,2.33,0,0,0-1.55.67A5.59,5.59,0,0,0,473.88,52.58Z"/><path d="M581.76,124.88l-22.37.9a4.26,4.26,0,0,1-5.17-4.77l-2.74-67.79-20.3.82a5.2,5.2,0,0,1-3.84-1A5.18,5.18,0,0,1,526,49.27l-.68-16.71a5.23,5.23,0,0,1,1-3.84,5.27,5.27,0,0,1,3.75-1.33L603,24.45a5.15,5.15,0,0,1,3.85,1,5.26,5.26,0,0,1,1.33,3.74l.67,16.71a5.24,5.24,0,0,1-1,3.85,5.23,5.23,0,0,1-3.75,1.32l-20.3.82,2.75,67.79a4.27,4.27,0,0,1-4.77,5.18Z"/><path d="M229.64,162.06,253,163.21a4.85,4.85,0,0,1,5.37,5.93l-3,60.89c-.16,3.35-.45,6.45-.85,9.32a43.46,43.46,0,0,1-2.94,10l-8.9,21a11.13,11.13,0,0,1-2.47,3.89,5.14,5.14,0,0,1-4.08,1.45l-20.87-1a9.4,9.4,0,0,1-4.5-1.32,5.32,5.32,0,0,1-2.49-3.74l-6-25.94a4.17,4.17,0,0,0-1.07-2.17,2.64,2.64,0,0,0-1.63-.63l-1.41-.07a2.57,2.57,0,0,0-1.67.46,4.17,4.17,0,0,0-1.28,2.06l-8.65,25.21a6,6,0,0,1-2.52,3.42,7.38,7.38,0,0,1-4.3,1l-20.71-1a6.37,6.37,0,0,1-4.24-1.78,8.72,8.72,0,0,1-2.39-4.21l-6.77-22a43,43,0,0,1-1.93-10.24c-.12-2.9-.1-6,.07-9.36l3-60.57a4.85,4.85,0,0,1,5.93-5.37l24.16,1.2a5.89,5.89,0,0,1,4.25,1.54,6,6,0,0,1,1.12,4.38l-2.86,57.75L189.5,203.8a7.9,7.9,0,0,1,3.48-3.6,10.44,10.44,0,0,1,5.08-.85l6.59.32a10.53,10.53,0,0,1,5,1.35,7.92,7.92,0,0,1,3.11,3.93l8.12,20.22,2.86-57.75a4.84,4.84,0,0,1,5.93-5.36Z"/><path d="M378.24,250.34a44.36,44.36,0,0,1-2.8,15.07,25.26,25.26,0,0,1-9,11.39q-6.36,4.65-17.38,7.12T321.21,286q-16.84-.39-27.84-3.36t-17.12-7.93a25.17,25.17,0,0,1-8.43-11.8,44.5,44.5,0,0,1-2.09-15.18l1.44-61.78a44.42,44.42,0,0,1,2.8-15.08,26,26,0,0,1,9-11.48q6.38-4.74,17.48-7.2t28-2.07q16.85.41,27.74,3.37t17,8a25.81,25.81,0,0,1,8.42,11.89,44.32,44.32,0,0,1,2.09,15.19ZM307,242.15a7.82,7.82,0,0,0,2.57,6.13q2.67,2.5,12.45,2.74t12.56-2.15a7.85,7.85,0,0,0,2.86-6l1.13-48.74a7.63,7.63,0,0,0-2.57-6q-2.67-2.5-12.45-2.74T311,187.58a7.65,7.65,0,0,0-2.85,5.83Z"/><path d="M425.55,279.5l-26.82,2.29q-3.3.29-4.91-1.07c-1.07-.9-1.7-2.46-1.89-4.66L382.3,163.24c-.19-2.21.17-3.84,1.07-4.91s2.46-1.7,4.66-1.89l58-4.95q19.49-1.67,27.58,5.8t9.19,20.34l.69,8a32.09,32.09,0,0,1-1.12,12.64,13.58,13.58,0,0,1-6.93,8,23,23,0,0,1,15.88,6.36q6.39,6.12,7.34,17.09l3.15,36.91c.18,2.2-.17,3.84-1.07,4.91s-2.46,1.7-4.66,1.89l-27,2.3q-3.31.29-4.91-1.07t-1.89-4.66L460,243.41q-.33-3.82-2-5.53c-1.09-1.13-2.85-1.6-5.29-1.39l-24.38,2.08,2.92,34.13c.18,2.2-.17,3.84-1.07,4.91S427.75,279.31,425.55,279.5ZM423.78,185l1.91,22.28,13.05-1.11c3-.26,5-1.21,5.9-2.87a10.3,10.3,0,0,0,1.07-6l-.51-5.93a10.45,10.45,0,0,0-2.06-5.7q-1.77-2.21-6.3-1.83Z"/><path d="M543.3,261.51l-24.11,3.42a4.84,4.84,0,0,1-6.39-4.8L498.51,159.32a5.9,5.9,0,0,1,.71-4.46,6,6,0,0,1,4.09-1.93l24.11-3.42a4.85,4.85,0,0,1,6.4,4.81l5.07,35.77,6.22-.88L556,150.7a7.87,7.87,0,0,1,2.4-4.39,9.07,9.07,0,0,1,4.65-1.85l24-3.39c1.76-.25,3,0,3.76.81s.88,2.07.39,3.83l-10.73,38.5q8.77-.78,14.8,4.17t7.33,14.27l6.22,43.87a4.84,4.84,0,0,1-4.8,6.39l-24,3.4a5.89,5.89,0,0,1-4.46-.72c-1-.75-1.65-2.12-1.93-4.09l-4.3-30.33a5.72,5.72,0,0,0-1.8-3.71,4.78,4.78,0,0,0-3.93-.88l-20.53,2.91,5.05,35.63a5.89,5.89,0,0,1-.72,4.46C546.64,260.59,545.27,261.23,543.3,261.51Z"/><path class="cls-20" d="M167.43,134.18c-10.53,0-18.74-2.18-24.4-6.49-6.37-4.84-9.82-12.57-10.24-23l-1.78-44c-.42-10.39,2.39-18.36,8.35-23.71s15-8.14,27.19-8.64L201.79,27h.53a7,7,0,0,1,4.9,1.6,7.32,7.32,0,0,1,2,5.29l.69,17.06a7.3,7.3,0,0,1-1.59,5.43,7.32,7.32,0,0,1-5.29,2l-29.32,1.18c-2.4.1-4.11.6-5.09,1.48a4.5,4.5,0,0,0-1.21,3.73l1.36,33.69A5.39,5.39,0,0,0,170,102.2a4.21,4.21,0,0,0,3,.92h.39l11.57-.47-.8-19.89A6.38,6.38,0,0,1,191,75.29l21.85-.89h.54a7,7,0,0,1,4.9,1.61,7.36,7.36,0,0,1,2,5.29l1.76,43.55a6.38,6.38,0,0,1-6.89,7.47l-44.4,1.8C169.67,134.16,168.53,134.18,167.43,134.18Z"/><path d="M202.32,29.08a5,5,0,0,1,3.48,1.05A5.37,5.37,0,0,1,207.15,34l.69,17a5.37,5.37,0,0,1-1,3.93A5.32,5.32,0,0,1,203,56.29l-29.32,1.19c-2.91.12-5.05.79-6.41,2a6.48,6.48,0,0,0-1.9,5.37l1.36,33.69c.1,2.35.7,4.06,1.83,5.15a6.19,6.19,0,0,0,4.46,1.5h.47l13.68-.55-.89-22a4.34,4.34,0,0,1,4.87-5.28L213,76.51h.45a5,5,0,0,1,3.47,1,5.34,5.34,0,0,1,1.36,3.82L220,124.93a4.34,4.34,0,0,1-4.87,5.28l-44.4,1.8c-1.13,0-2.24.07-3.31.07q-15.17,0-23.13-6.06-8.82-6.7-9.41-21.37l-1.77-44q-.6-14.65,7.65-22.05t25.86-8.11l35.24-1.42h.45m0-4.21-.62,0-35.24,1.42c-12.7.51-22.29,3.6-28.5,9.18-6.45,5.78-9.49,14.31-9.05,25.35l1.78,44c.45,11.05,4.17,19.3,11.06,24.55,6,4.59,14.68,6.91,25.68,6.91,1.13,0,2.3,0,3.48-.07l44.4-1.8a8.44,8.44,0,0,0,8.9-9.65L222.45,81.2a9.34,9.34,0,0,0-2.7-6.74,9,9,0,0,0-6.33-2.17h-.62L191,73.19A8.46,8.46,0,0,0,182,82.84l.72,17.79-9.47.38H173a2.51,2.51,0,0,1-1.54-.33,3.92,3.92,0,0,1-.55-2.29l-1.36-33.69c-.06-1.56.38-2,.52-2.09s1.12-.83,3.76-.94l29.32-1.18a9.31,9.31,0,0,0,6.75-2.71A9.3,9.3,0,0,0,212,50.84l-.69-17.05a9.27,9.27,0,0,0-2.7-6.75,9,9,0,0,0-6.33-2.17Z"/><path class="cls-20" d="M237.13,126.55a6.7,6.7,0,0,1-4.45-1.4,7.34,7.34,0,0,1-2.26-5.2l-7.67-91.1a7.32,7.32,0,0,1,1.36-5.49,7.26,7.26,0,0,1,5.2-2.26l46.81-3.94c1.94-.16,3.81-.25,5.55-.25,8.21,0,14.38,1.86,18.33,5.51,4.73,4.37,7.44,10.36,8.07,17.8l.54,6.47a28.1,28.1,0,0,1-1,11,13.16,13.16,0,0,1-2.45,4.42,20.15,20.15,0,0,1,9.12,5c3.8,3.65,6,8.74,6.54,15.15l2.51,29.8a6.39,6.39,0,0,1-6.56,7.76L295,121.73c-.36,0-.71,0-1,0a6.71,6.71,0,0,1-4.46-1.41,7.34,7.34,0,0,1-2.26-5.2l-1.81-21.5a5.47,5.47,0,0,0-1-3.19,2.77,2.77,0,0,0-1.88-.52l-.69,0-17.59,1.48,2.14,25.46a6.39,6.39,0,0,1-6.55,7.76l-21.65,1.82C237.81,126.54,237.46,126.55,237.13,126.55ZM261.76,62l8.45-.71c1.15-.1,2.63-.39,3.09-1.23a6.25,6.25,0,0,0,.62-3.63l-.41-4.77a6.28,6.28,0,0,0-1.21-3.48,3.23,3.23,0,0,0-2.41-.73c-.27,0-.55,0-.84,0l-8.45.71Z"/><path d="M281.67,19q11.55,0,16.9,4.94,6.53,6,7.4,16.44l.54,6.47a25.63,25.63,0,0,1-.91,10.2A11,11,0,0,1,300,63.56a18.51,18.51,0,0,1,12.82,5.15q5.16,5,5.9,13.8l2.51,29.8a4.35,4.35,0,0,1-4.63,5.49l-21.79,1.83c-.31,0-.6,0-.87,0a4.66,4.66,0,0,1-3.1-.91,5.29,5.29,0,0,1-1.52-3.76L287.5,93.49A7.22,7.22,0,0,0,285.92,89a4.49,4.49,0,0,0-3.4-1.16l-.87,0L262,89.55l2.32,27.55a4.36,4.36,0,0,1-4.64,5.49L238,124.41a8.71,8.71,0,0,1-.87,0,4.66,4.66,0,0,1-3.1-.91,5.33,5.33,0,0,1-1.52-3.77l-7.66-91.09a5.34,5.34,0,0,1,.87-4,5.33,5.33,0,0,1,3.77-1.52l46.81-3.94c1.89-.15,3.68-.23,5.37-.23M259.84,64.24l10.54-.88q3.66-.31,4.76-2.31a8.32,8.32,0,0,0,.87-4.82l-.4-4.78A8.41,8.41,0,0,0,274,46.84a4.91,4.91,0,0,0-4.06-1.52c-.32,0-.66,0-1,0l-10.54.89,1.51,18m21.83-49.43c-1.8,0-3.72.08-5.72.25L229.13,19a9.33,9.33,0,0,0-6.62,3,9.25,9.25,0,0,0-1.85,7l7.66,91.1a9.33,9.33,0,0,0,3,6.62,8.69,8.69,0,0,0,5.81,1.91c.39,0,.8,0,1.22-.06L260,126.78a8.45,8.45,0,0,0,8.48-10l-2-23.36L282,92.09l.52,0a3.94,3.94,0,0,1,.44,0,6.16,6.16,0,0,1,.35,1.75l1.81,21.51a9.25,9.25,0,0,0,3,6.63,8.7,8.7,0,0,0,5.81,1.9c.39,0,.8,0,1.22,0L316.94,122a8.45,8.45,0,0,0,8.47-10l-2.5-29.8c-.59-6.93-3-12.48-7.19-16.49A22.29,22.29,0,0,0,308.48,61a15.66,15.66,0,0,0,1.12-2.61,30.22,30.22,0,0,0,1.11-11.86l-.55-6.47c-.67-8-3.61-14.44-8.73-19.17-4.36-4-11-6.07-19.76-6.07Zm-18.8,35.28,6.35-.53.67,0a4,4,0,0,1,.88.08,4.65,4.65,0,0,1,.65,2.19l.4,4.78a4.48,4.48,0,0,1-.28,2.27,4.65,4.65,0,0,1-1.51.32l-6.35.53-.81-9.61Z"/><path class="cls-20" d="M337.44,124.09a7.63,7.63,0,0,1-5.35-1.75c-1.36-1.25-2.1-3.2-2.21-5.79L325.7,13.26c-.1-2.58.48-4.58,1.73-5.94s3.21-2.11,5.8-2.21l74-3,.59,0a7.63,7.63,0,0,1,5.35,1.75c1.37,1.26,2.11,3.2,2.21,5.79l.76,18.65c.1,2.58-.48,4.58-1.73,5.94s-3.21,2.11-5.8,2.21l-41.89,1.7.33,8.07L396,45h.59a7.69,7.69,0,0,1,5.35,1.74C403.3,48,404,50,404.15,52.56l.69,17c.1,2.59-.48,4.59-1.73,6a8,8,0,0,1-5.8,2.21l-29,1.17.39,9.51,41.89-1.69.59,0a7.65,7.65,0,0,1,5.36,1.75c1.36,1.26,2.1,3.2,2.21,5.79l.75,18.64a8,8,0,0,1-1.73,6c-1.26,1.37-3.21,2.11-5.79,2.21l-74,3Z"/><path d="M407.78,4.21a5.65,5.65,0,0,1,3.93,1.18,6,6,0,0,1,1.53,4.33L414,28.37a6.06,6.06,0,0,1-1.18,4.44,6,6,0,0,1-4.33,1.53l-44,1.78L365,48.39l31.08-1.25h.51a5.7,5.7,0,0,1,3.93,1.18A6,6,0,0,1,402,52.64l.69,17.06a6,6,0,0,1-1.17,4.44,6,6,0,0,1-4.33,1.53l-31.08,1.26.55,13.71,44-1.78h.5A5.65,5.65,0,0,1,415.13,90a6.06,6.06,0,0,1,1.54,4.33l.75,18.65c.08,2-.31,3.5-1.18,4.44a6,6,0,0,1-4.33,1.53l-74,3h-.51a5.6,5.6,0,0,1-3.93-1.19c-.94-.86-1.45-2.3-1.53-4.33L327.8,13.18A6.06,6.06,0,0,1,329,8.74a6,6,0,0,1,4.33-1.53l74-3h.51m0-4.21h-.68l-74,3c-3.16.12-5.6,1.09-7.25,2.88s-2.42,4.29-2.29,7.46l4.18,103.28c.13,3.17,1.1,5.61,2.88,7.26a9.7,9.7,0,0,0,6.78,2.3h.68l74-3c3.16-.12,5.6-1.09,7.25-2.88s2.42-4.3,2.29-7.46l-.75-18.65c-.13-3.16-1.1-5.6-2.88-7.24a9.65,9.65,0,0,0-6.79-2.31h-.67l-39.8,1.61-.21-5.3,26.88-1.09c3.16-.13,5.6-1.1,7.25-2.88s2.42-4.3,2.29-7.46l-.69-17.06c-.13-3.16-1.1-5.6-2.88-7.25a9.7,9.7,0,0,0-6.79-2.3h-.68L369,44l-.16-3.87,39.79-1.61c3.16-.12,5.6-1.09,7.25-2.88s2.42-4.3,2.29-7.46l-.75-18.65c-.13-3.16-1.1-5.6-2.88-7.24A9.65,9.65,0,0,0,407.78,0Z"/><path class="cls-20" d="M430.61,123.59a7.25,7.25,0,0,1-5.12-1.68,7.61,7.61,0,0,1-2.12-5.53l-1.6-39.62a46.62,46.62,0,0,1,1-10.92,118.09,118.09,0,0,1,3.95-14.09l11.68-34.59a9,9,0,0,1,3.41-4.92,10.91,10.91,0,0,1,5.95-1.77l40.37-1.64h.61a10.38,10.38,0,0,1,5.31,1.31,9.13,9.13,0,0,1,3.82,4.67l14.41,33.49A115.46,115.46,0,0,1,517.39,62a46.81,46.81,0,0,1,1.93,10.79l1.6,39.62a6.68,6.68,0,0,1-7.2,7.81l-22.66.92h-.62a8.09,8.09,0,0,1-5.28-1.59A7.25,7.25,0,0,1,482.8,114L482,95.06,459.67,96l.77,18.91a6.68,6.68,0,0,1-7.2,7.81l-22.06.89Zm30-59.23,17.86-.72-7-19.72a3.27,3.27,0,0,0-.75-1.09.21.21,0,0,0-.16-.07l-3.77.16a.2.2,0,0,0-.18.07,3.56,3.56,0,0,0-.66,1.16Z"/><path d="M488.78,10.92a8.31,8.31,0,0,1,4.25,1A7.1,7.1,0,0,1,496,15.58l14.43,33.54a115.66,115.66,0,0,1,5,13.48,44.84,44.84,0,0,1,1.85,10.3l1.6,39.61a4.64,4.64,0,0,1-5.19,5.63l-22.66.91h-.53a6.08,6.08,0,0,1-3.95-1.1,5.32,5.32,0,0,1-1.59-4.07l-.85-21L457.49,94l.85,21a5.72,5.72,0,0,1-1.11,4.18,5.64,5.64,0,0,1-4.08,1.44l-22.06.9h-.48a5.33,5.33,0,0,1-3.7-1.12,5.72,5.72,0,0,1-1.44-4.08l-1.6-39.62a44.59,44.59,0,0,1,1-10.41,116.28,116.28,0,0,1,3.88-13.84l11.68-34.59A7,7,0,0,1,443.05,14a8.94,8.94,0,0,1,4.83-1.39l40.37-1.64h.53m-30.9,55.66,23.56-1-8-22.53a5.64,5.64,0,0,0-1.36-1.9,2.28,2.28,0,0,0-1.49-.54h-.11l-3.75.15a2.31,2.31,0,0,0-1.55.67,5.84,5.84,0,0,0-1.2,2l-6.13,23.1m30.9-59.86h-.7L447.71,8.36a13.06,13.06,0,0,0-7.07,2.16,11.12,11.12,0,0,0-4.21,6L424.76,51.08a117.41,117.41,0,0,0-4,14.35,48.62,48.62,0,0,0-1.08,11.41l1.6,39.62c.12,3.05,1.06,5.41,2.8,7a9.28,9.28,0,0,0,6.54,2.23h.65l22.06-.89a9.69,9.69,0,0,0,7-2.8c1.6-1.73,2.34-4.15,2.22-7.2L461.86,98,480,97.25l.68,16.81a9.26,9.26,0,0,0,3.12,7.15,10.12,10.12,0,0,0,6.62,2.06h.7l22.66-.92a9.65,9.65,0,0,0,7-2.79c1.6-1.73,2.34-4.16,2.22-7.21l-1.6-39.61a49,49,0,0,0-2-11.29,118.61,118.61,0,0,0-5.16-14L499.84,14a11.11,11.11,0,0,0-4.69-5.66,12.45,12.45,0,0,0-6.37-1.59ZM468,45l1.68-.07,5.92,16.74-12.16.5L468,45Z"/><path class="cls-20" d="M549.08,118.8a6.91,6.91,0,0,1-4.83-1.59,7.24,7.24,0,0,1-2-5.21L539.6,46.31l-18.2.74h-.53a6.88,6.88,0,0,1-4.82-1.59,7.21,7.21,0,0,1-2-5.21l-.67-16.71a7.16,7.16,0,0,1,1.57-5.35,7.18,7.18,0,0,1,5.21-2l72.91-2.95h.52a6.89,6.89,0,0,1,4.83,1.58,7.2,7.2,0,0,1,2,5.21l.68,16.71a7.23,7.23,0,0,1-1.57,5.35,7.23,7.23,0,0,1-5.22,2l-18.19.73,2.66,65.69a6.3,6.3,0,0,1-6.79,7.36l-22.37.91Z"/><path d="M593.58,15.34a4.84,4.84,0,0,1,3.4,1,5.18,5.18,0,0,1,1.33,3.75l.68,16.7a5.24,5.24,0,0,1-1,3.85A5.23,5.23,0,0,1,594.22,42l-20.3.82,2.74,67.79a4.26,4.26,0,0,1-4.77,5.17l-22.36.91h-.45a4.9,4.9,0,0,1-3.4-1,5.25,5.25,0,0,1-1.32-3.76l-2.75-67.79L521.32,45h-.44a4.88,4.88,0,0,1-3.41-1,5.21,5.21,0,0,1-1.32-3.75l-.68-16.7a5.2,5.2,0,0,1,1-3.84,5.18,5.18,0,0,1,3.75-1.33l72.9-3h.44m0-4.21-.61,0-72.9,2.95a9.15,9.15,0,0,0-6.67,2.67,9.2,9.2,0,0,0-2.13,6.87l.67,16.7A9.22,9.22,0,0,0,514.62,47a8.92,8.92,0,0,0,6.26,2.14h.61l16.09-.65,2.57,63.58a9.22,9.22,0,0,0,2.68,6.68,8.89,8.89,0,0,0,6.25,2.14h.62l22.36-.91a8.37,8.37,0,0,0,8.81-9.54l-2.58-63.59,16.1-.65a9.2,9.2,0,0,0,6.67-2.68,9.21,9.21,0,0,0,2.13-6.87L602.52,20a9.22,9.22,0,0,0-2.68-6.67,8.88,8.88,0,0,0-6.26-2.15Z"/><path class="cls-20" d="M226.63,268.65h-.47l-20.87-1a11.52,11.52,0,0,1-5.48-1.63,7.39,7.39,0,0,1-3.47-5.13L190.41,235a2.88,2.88,0,0,0-.42-1.08.56.56,0,0,0-.33-.1l-1.43-.07a.57.57,0,0,0-.35.09h0a3.79,3.79,0,0,0-.51,1l-8.63,25.19a8,8,0,0,1-3.42,4.53,9.26,9.26,0,0,1-4.88,1.29l-.62,0-20.71-1a8.41,8.41,0,0,1-5.59-2.38,10.66,10.66,0,0,1-3-5.19l-6.74-21.95a45.6,45.6,0,0,1-2-10.77c-.12-2.95-.09-6.16.07-9.55l3-60.57c.13-2.56.88-4.48,2.24-5.71a7.51,7.51,0,0,1,5.19-1.68l.71,0,24.16,1.2a8,8,0,0,1,5.7,2.23c1.24,1.37,1.79,3.35,1.67,5.9l-2.39,48.16,5.65-10.81a10,10,0,0,1,4.43-4.53,12.2,12.2,0,0,1,5.24-1.07c.28,0,.56,0,.85,0l6.59.32a12.67,12.67,0,0,1,6,1.65,10,10,0,0,1,4,4.93l4.55,11.33,2.38-48.16c.13-2.55.88-4.47,2.24-5.7a7.51,7.51,0,0,1,5.19-1.68l.71,0L243.26,152a6.87,6.87,0,0,1,7.36,8.13l-3,60.88c-.17,3.38-.46,6.58-.87,9.51a45.33,45.33,0,0,1-3.07,10.5l-8.91,21a13.44,13.44,0,0,1-2.93,4.56A7.1,7.1,0,0,1,226.63,268.65Z"/><path d="M142.28,149.14h.6l24.17,1.2a4.85,4.85,0,0,1,5.37,5.93L169.56,214l10.08-19.32a7.9,7.9,0,0,1,3.48-3.6,10,10,0,0,1,4.33-.87l.75,0,6.59.33a10.57,10.57,0,0,1,5,1.34,8,8,0,0,1,3.1,3.93L211,216.08l2.86-57.75a6,6,0,0,1,1.55-4.25,5.48,5.48,0,0,1,3.78-1.14l.6,0,23.38,1.16c2,.1,3.41.61,4.25,1.54a5.93,5.93,0,0,1,1.12,4.39l-3,60.88c-.17,3.35-.45,6.45-.85,9.32a43.53,43.53,0,0,1-2.94,10l-8.9,20.95a11.15,11.15,0,0,1-2.48,3.89,5,5,0,0,1-3.71,1.46h-.37l-20.87-1a9.51,9.51,0,0,1-4.49-1.33,5.3,5.3,0,0,1-2.49-3.74l-5.95-25.93a4.2,4.2,0,0,0-1.08-2.18,2.59,2.59,0,0,0-1.62-.63l-1.41-.07h-.16a2.56,2.56,0,0,0-1.52.47,4.26,4.26,0,0,0-1.28,2.06l-8.64,25.21a5.87,5.87,0,0,1-2.53,3.41,7.06,7.06,0,0,1-3.79,1h-.5l-20.71-1a6.32,6.32,0,0,1-4.24-1.78,8.65,8.65,0,0,1-2.39-4.2l-6.77-22.05a42.55,42.55,0,0,1-1.93-10.24q-.18-4.33.06-9.36l3-60.57a6,6,0,0,1,1.55-4.25,5.53,5.53,0,0,1,3.78-1.13m0-4.21a9.53,9.53,0,0,0-6.6,2.22c-1.79,1.62-2.77,4-2.93,7.16l-3,60.57c-.17,3.46-.19,6.73-.07,9.74a47,47,0,0,0,2.1,11.27l6.76,22a12.94,12.94,0,0,0,3.53,6.09,10.65,10.65,0,0,0,6.94,2.95l20.71,1,.71,0a11.32,11.32,0,0,0,6-1.6,10.17,10.17,0,0,0,4.32-5.68l8-23.42,5.52,24.06a9.54,9.54,0,0,0,4.44,6.46,13.67,13.67,0,0,0,6.45,1.92l20.88,1,.57,0a9.24,9.24,0,0,0,6.69-2.7,15.28,15.28,0,0,0,3.39-5.27l8.88-20.9v0l0,0a47.71,47.71,0,0,0,3.2-11c.42-3,.72-6.26.89-9.7l3-60.89c.16-3.12-.58-5.61-2.19-7.4s-4-2.78-7.17-2.93L220,148.76c-.28,0-.55,0-.81,0a9.53,9.53,0,0,0-6.6,2.22c-1.79,1.62-2.77,4-2.93,7.16l-1.91,38.57-1-2.4a12.08,12.08,0,0,0-4.83-6,14.77,14.77,0,0,0-6.94-2l-6.59-.32-1,0a14.19,14.19,0,0,0-6.14,1.28,12,12,0,0,0-5.39,5.43l-1.21,2.33,1.91-38.57c.15-3.13-.59-5.62-2.2-7.41a9.92,9.92,0,0,0-7.16-2.93L143.09,145l-.81,0Z"/><path class="cls-20" d="M315.89,279.05q-2.24,0-4.59-.06c-11.37-.26-20.9-1.42-28.34-3.44s-13.6-4.85-17.9-8.32a27.44,27.44,0,0,1-9.1-12.77,46.91,46.91,0,0,1-2.2-15.9l1.45-61.78A46.53,46.53,0,0,1,258.15,161a28,28,0,0,1,9.67-12.41c4.47-3.33,10.62-5.88,18.28-7.57A112.74,112.74,0,0,1,310,138.85c1.5,0,3,0,4.6.05,11.36.27,20.87,1.43,28.25,3.44s13.51,4.88,17.82,8.42a28,28,0,0,1,9.08,12.85,46.42,46.42,0,0,1,2.2,15.9l-1.44,61.78a46.93,46.93,0,0,1-2.94,15.78,27.43,27.43,0,0,1-9.69,12.33c-4.45,3.26-10.56,5.77-18.17,7.47A110.9,110.9,0,0,1,315.89,279.05ZM312,178.42c-6.6,0-8.8,1-9.53,1.66a5.61,5.61,0,0,0-2.12,4.28l-1.14,48.74a5.74,5.74,0,0,0,1.92,4.56c.77.72,3.23,2,11,2.16l1.62,0c6.6,0,8.8-1,9.53-1.67a5.68,5.68,0,0,0,2.12-4.45L326.62,185a5.6,5.6,0,0,0-1.92-4.37c-.78-.73-3.24-2-11.05-2.16C313.1,178.42,312.56,178.42,312,178.42Z"/><path d="M310,141c1.48,0,3,0,4.55.06q16.85.39,27.75,3.36t17,8a25.93,25.93,0,0,1,8.42,11.89,44.56,44.56,0,0,1,2.09,15.19l-1.44,61.78a44.31,44.31,0,0,1-2.8,15.07,25.33,25.33,0,0,1-9,11.39q-6.36,4.67-17.39,7.12a108.6,108.6,0,0,1-23.32,2.12c-1.48,0-3,0-4.55-.05q-16.86-.39-27.84-3.37t-17.13-7.93A25.24,25.24,0,0,1,258,253.8a44.32,44.32,0,0,1-2.09-15.19l1.44-61.78a44.36,44.36,0,0,1,2.8-15.07,25.74,25.74,0,0,1,9-11.48q6.36-4.75,17.48-7.21A110.41,110.41,0,0,1,310,141m3.86,101c5.57,0,9.21-.72,10.89-2.17a7.82,7.82,0,0,0,2.86-6L328.72,185a7.65,7.65,0,0,0-2.58-6q-2.65-2.5-12.44-2.74l-1.66,0q-8.37,0-10.9,2.18a7.68,7.68,0,0,0-2.86,5.82l-1.14,48.74a7.89,7.89,0,0,0,2.58,6.14q2.65,2.51,12.44,2.73l1.67,0M310,136.75h0A114.91,114.91,0,0,0,285.65,139c-7.95,1.76-14.37,4.43-19.09,7.94a30.19,30.19,0,0,0-10.38,13.34,48.86,48.86,0,0,0-3.08,16.49l-1.44,61.78A48.82,48.82,0,0,0,254,255.13a29.37,29.37,0,0,0,9.78,13.74c4.52,3.65,10.8,6.58,18.66,8.71,7.6,2.06,17.31,3.24,28.84,3.51,1.58,0,3.14.06,4.65.06a113.84,113.84,0,0,0,24.24-2.22c7.89-1.77,14.27-4.4,18.95-7.83a29.5,29.5,0,0,0,10.41-13.27,48.86,48.86,0,0,0,3.08-16.49L374,179.56a48.86,48.86,0,0,0-2.31-16.62A30.11,30.11,0,0,0,362,149.13c-4.53-3.72-10.79-6.69-18.59-8.82-7.55-2.06-17.23-3.24-28.76-3.51-1.58,0-3.15-.05-4.65-.05Zm3.86,101c-.51,0-1,0-1.57,0-8-.18-9.59-1.53-9.66-1.59a3.63,3.63,0,0,1-1.25-3l1.14-48.74a3.45,3.45,0,0,1,1.39-2.73c.05-.05,1.48-1.16,8.16-1.16l1.56,0c8,.19,9.6,1.54,9.66,1.6a3.49,3.49,0,0,1,1.26,2.79l-1.14,48.74a3.66,3.66,0,0,1-1.4,2.91c-.05,0-1.47,1.15-8.15,1.15Z"/><path class="cls-20" d="M387.78,274.84a7.83,7.83,0,0,1-5.18-1.61c-1.5-1.27-2.39-3.32-2.63-6.09l-9.63-112.82c-.24-2.77.29-4.93,1.56-6.44s3.32-2.4,6.09-2.63l58-4.95c2.42-.21,4.75-.31,6.91-.31,10,0,17.49,2.23,22.29,6.65,5.76,5.32,9.08,12.63,9.86,21.72l.68,8a34.12,34.12,0,0,1-1.21,13.46,15.46,15.46,0,0,1-3.48,5.92,24.46,24.46,0,0,1,11.88,6.31c4.63,4.43,7.31,10.63,8,18.43L494,257.4c.23,2.77-.29,4.94-1.56,6.45s-3.32,2.39-6.09,2.63l-27,2.3q-.66.06-1.26.06a7.81,7.81,0,0,1-5.18-1.62c-1.51-1.26-2.4-3.31-2.63-6.09L448,234.5a7.25,7.25,0,0,0-1.38-4.26,3.71,3.71,0,0,0-2.69-.79c-.29,0-.59,0-.91,0l-22.28,1.9,2.74,32c.23,2.77-.29,4.94-1.56,6.45s-3.32,2.39-6.09,2.63l-26.81,2.29C388.61,274.82,388.18,274.84,387.78,274.84Zm30-79,11-.93c1.56-.14,3.55-.55,4.23-1.79a8.27,8.27,0,0,0,.82-4.77l-.51-5.92a8.32,8.32,0,0,0-1.61-4.57c-.58-.73-1.72-1.1-3.37-1.1-.35,0-.72,0-1.1.05l-11,.94Z"/><path d="M442.87,142.09q14.25,0,20.86,6.1,8.08,7.47,9.19,20.35l.68,8a31.86,31.86,0,0,1-1.11,12.63,13.57,13.57,0,0,1-6.94,8,23,23,0,0,1,15.89,6.36q6.39,6.13,7.33,17.09l3.15,36.91c.19,2.21-.17,3.84-1.07,4.91s-2.46,1.7-4.66,1.89l-27,2.31c-.38,0-.75,0-1.09,0a5.83,5.83,0,0,1-3.83-1.11q-1.6-1.37-1.89-4.66l-2.27-26.64c-.22-2.56-.88-4.4-2-5.53a5.61,5.61,0,0,0-4.21-1.44,10.41,10.41,0,0,0-1.09.05l-24.37,2.08,2.91,34.12q.29,3.31-1.07,4.91c-.9,1.07-2.46,1.7-4.66,1.89l-26.81,2.29c-.38,0-.74.05-1.09.05a5.75,5.75,0,0,1-3.82-1.12q-1.6-1.35-1.89-4.66l-9.63-112.82c-.19-2.2.16-3.84,1.07-4.91s2.45-1.7,4.66-1.89l58-5c2.37-.2,4.62-.3,6.73-.3m-27.05,56L428.88,197c3-.26,5-1.21,5.9-2.86a10.42,10.42,0,0,0,1.06-6l-.5-5.92a10.34,10.34,0,0,0-2.07-5.7q-1.5-1.89-5-1.89c-.41,0-.84,0-1.28.06l-13.06,1.11,1.9,22.29m27.05-60.26c-2.22,0-4.61.11-7.09.32l-58,5c-3.35.29-5.88,1.42-7.52,3.37s-2.33,4.64-2.05,8l9.64,112.82c.28,3.35,1.42,5.88,3.37,7.52a9.83,9.83,0,0,0,6.53,2.11c.46,0,1,0,1.45-.07L416,274.59c3.34-.28,5.87-1.41,7.52-3.36s2.33-4.64,2-8l-2.55-29.93,20.18-1.72c.26,0,.51,0,.73,0a3,3,0,0,1,1.19.17,5.58,5.58,0,0,1,.79,2.95l2.27,26.64c.29,3.36,1.42,5.89,3.38,7.53a9.85,9.85,0,0,0,6.53,2.1c.46,0,.95,0,1.44-.06l27-2.31c3.34-.28,5.87-1.41,7.52-3.36s2.33-4.64,2-8L493,220.31c-.71-8.32-3.61-15-8.61-19.77a26.45,26.45,0,0,0-9.76-6,18.57,18.57,0,0,0,1.9-4.08,36.29,36.29,0,0,0,1.31-14.3l-.69-8c-.82-9.63-4.36-17.39-10.53-23.08-5.19-4.79-13.17-7.22-23.71-7.22Zm-24.4,41.81,8.87-.76c.32,0,.63,0,.92,0a3,3,0,0,1,1.73.31,6.34,6.34,0,0,1,1.16,3.43l.5,5.92a6.25,6.25,0,0,1-.56,3.58c0,.08-.68.54-2.57.7l-8.86.76-1.19-13.9Z"/><path class="cls-20" d="M507.84,258.05a6.88,6.88,0,0,1-4.24-1.25,7.93,7.93,0,0,1-2.75-5.47L486.56,150.52a6.88,6.88,0,0,1,6.59-8.77l24.11-3.42a14.35,14.35,0,0,1,1.78-.13,6.88,6.88,0,0,1,4.24,1.25,7.9,7.9,0,0,1,2.75,5.48l4.78,33.69,2.79-.39L544.11,141a9.77,9.77,0,0,1,3.06-5.42,11.13,11.13,0,0,1,5.71-2.33l24-3.39a9.66,9.66,0,0,1,1.48-.11,5.39,5.39,0,0,1,4.11,1.56c1.29,1.37,1.58,3.33.88,5.84l-9.95,35.73a21.1,21.1,0,0,1,13.33,4.74c4.41,3.63,7.13,8.88,8.08,15.61L601,237.13c.36,2.53,0,4.56-1.11,6a8,8,0,0,1-5.48,2.75l-24,3.39a12.51,12.51,0,0,1-1.78.14,6.88,6.88,0,0,1-4.24-1.25,7.93,7.93,0,0,1-2.75-5.48l-4.3-30.33A3.77,3.77,0,0,0,556.3,210a2.27,2.27,0,0,0-1.51-.45,5.3,5.3,0,0,0-.77.06l-18.45,2.61,4.76,33.55a7.9,7.9,0,0,1-1.12,6c-1.1,1.47-3,2.39-5.47,2.75l-24.12,3.42A12.44,12.44,0,0,1,507.84,258.05Z"/><path d="M578.32,131.88a3.4,3.4,0,0,1,2.58.9q1.13,1.2.39,3.84l-10.73,38.49c.78-.07,1.56-.1,2.31-.1a19,19,0,0,1,12.48,4.27q6,5,7.34,14.27l6.22,43.87a4.83,4.83,0,0,1-4.8,6.39l-24,3.4a10,10,0,0,1-1.49.11,4.83,4.83,0,0,1-3-.82,5.92,5.92,0,0,1-1.93-4.09l-4.3-30.34a5.74,5.74,0,0,0-1.8-3.71,4.27,4.27,0,0,0-2.87-1,6.55,6.55,0,0,0-1.06.08l-20.54,2.91,5,35.62a4.84,4.84,0,0,1-4.8,6.4l-24.11,3.41a10,10,0,0,1-1.49.12,4.88,4.88,0,0,1-3-.83,5.92,5.92,0,0,1-1.92-4.09l-14.3-100.8a4.84,4.84,0,0,1,4.81-6.39l24.11-3.42a9.92,9.92,0,0,1,1.48-.12,4.86,4.86,0,0,1,3,.83,5.92,5.92,0,0,1,1.93,4.09L529,181l6.23-.88,10.88-38.52a7.85,7.85,0,0,1,2.39-4.38,9.05,9.05,0,0,1,4.66-1.85l24-3.4a8.33,8.33,0,0,1,1.18-.09m0-4.21a14.08,14.08,0,0,0-1.78.13l-23.95,3.4a13.15,13.15,0,0,0-6.78,2.8,11.93,11.93,0,0,0-3.75,6.54l-9.67,34.22-4.27-30.13c-.44-3.1-1.64-5.4-3.56-6.85A8.94,8.94,0,0,0,519,136.1a15.17,15.17,0,0,0-2.07.15l-24.11,3.42c-3.11.44-5.42,1.64-6.86,3.57s-2,4.48-1.52,7.58l14.29,100.8c.44,3.11,1.64,5.42,3.57,6.86a8.9,8.9,0,0,0,5.5,1.67,15.2,15.2,0,0,0,2.08-.15L534,256.58c3.1-.44,5.41-1.64,6.86-3.56s2-4.48,1.52-7.59L538,214l16.37-2.32a4.26,4.26,0,0,1,.47,0H555a2.5,2.5,0,0,1,.31,1l4.3,30.34c.44,3.11,1.64,5.41,3.57,6.86a8.92,8.92,0,0,0,5.5,1.67,15.2,15.2,0,0,0,2.08-.15l24-3.4c3.1-.44,5.41-1.64,6.85-3.56s2-4.48,1.53-7.59L596.86,193c-1-7.26-4-13-8.84-16.93a22.64,22.64,0,0,0-11.95-5l9.27-33.25c1.14-4.06-.12-6.51-1.38-7.84a7.41,7.41,0,0,0-5.64-2.23Z"/></g></g></g></svg>