<svg xmlns="http://www.w3.org/2000/svg" viewBox="0 0 80 89.95"><defs><style>.cls-1{isolation:isolate;}.cls-2{opacity:0.27;mix-blend-mode:multiply;}.cls-3{fill:#6212a0;}.cls-4{fill:#d6b3ff;}.cls-5{mix-blend-mode:overlay;}.cls-6{fill:#fff;}</style></defs><g class="cls-1"><g id="Layer_2" data-name="Layer 2"><g id="Icons_Header"><rect class="cls-2" x="1.05" y="12.05" width="77.9" height="77.9" rx="25.66"/><rect class="cls-3" width="80" height="80" rx="26.01"/><rect class="cls-4" x="5" y="5" width="70" height="70" rx="21.01"/><g class="cls-5"><path d="M24,22.43h0a1.66,1.66,0,0,0-1.64,1.64V48.76A1.65,1.65,0,0,0,24,50.4c3.83,0,10.25.81,14.68,5.45V30a1.66,1.66,0,0,0-.22-.83C34.86,23.33,27.88,22.44,24,22.43Z"/><path d="M57.61,48.76V24.07a1.68,1.68,0,0,0-.49-1.17A1.65,1.65,0,0,0,56,22.43h0c-3.84,0-10.82.9-14.46,6.75a1.66,1.66,0,0,0-.22.83V55.85C45.71,51.21,52.13,50.41,56,50.4A1.65,1.65,0,0,0,57.61,48.76Z"/><path d="M61.36,28.12h-1.2V48.76A4.21,4.21,0,0,1,56,53c-3.25,0-8.6.64-12.4,4.24,6.56-1.61,13.48-.57,17.43.33a1.65,1.65,0,0,0,2-1.6V29.77A1.65,1.65,0,0,0,61.36,28.12Z"/><path d="M19.84,48.76V28.12h-1.2A1.65,1.65,0,0,0,17,29.77V55.93a1.65,1.65,0,0,0,2,1.6c3.95-.9,10.87-1.94,17.43-.34C32.64,53.6,27.29,53,24,53A4.21,4.21,0,0,1,19.84,48.76Z"/><path d="M38.72,58.85a3,3,0,0,1-2.17-.93C32.82,54,27.11,53.41,24,53.4a4.66,4.66,0,0,1-4.65-4.64V24.07A4.64,4.64,0,0,1,24,19.43c4.47,0,12.62,1.08,17,8.17A4.52,4.52,0,0,1,41.72,30V55.85a3,3,0,0,1-1.88,2.78A2.9,2.9,0,0,1,38.72,58.85Z"/><path d="M41.28,58.85a2.9,2.9,0,0,1-1.12-.22,3,3,0,0,1-1.88-2.78V30A4.61,4.61,0,0,1,39,27.6c4.41-7.09,12.55-8.16,17-8.17a4.64,4.64,0,0,1,4.65,4.64V48.76A4.65,4.65,0,0,1,56,53.4c-3.08,0-8.79.61-12.52,4.52A3,3,0,0,1,41.28,58.85Z"/><path d="M61.36,60.57a5.17,5.17,0,0,1-1-.11A43.08,43.08,0,0,0,51,59.36a28.34,28.34,0,0,0-6.72.75,2.82,2.82,0,0,1-.71.09A3,3,0,0,1,41.5,55C46.13,50.64,52.54,50,56,50a1.2,1.2,0,0,0,1.2-1.2V28.12a3,3,0,0,1,3-3h1.2A4.65,4.65,0,0,1,66,29.77V55.93a4.62,4.62,0,0,1-1.74,3.63,4.73,4.73,0,0,1-2.9,1Z"/><path d="M18.64,60.57A4.62,4.62,0,0,1,14,55.93V29.77a4.65,4.65,0,0,1,4.64-4.65h1.2a3,3,0,0,1,3,3V48.76A1.2,1.2,0,0,0,24,50c3.42,0,9.83.68,14.46,5.06a3,3,0,0,1,.57,3.61,3,3,0,0,1-2.63,1.57,2.82,2.82,0,0,1-.71-.09A28.34,28.34,0,0,0,29,59.36a43.08,43.08,0,0,0-9.33,1.1A5.17,5.17,0,0,1,18.64,60.57Z"/><path d="M24,22.43h0a1.66,1.66,0,0,0-1.64,1.64V48.76A1.65,1.65,0,0,0,24,50.4c3.83,0,10.25.81,14.68,5.45V30a1.66,1.66,0,0,0-.22-.83C34.86,23.33,27.88,22.44,24,22.43Z"/><path d="M57.61,48.76V24.07a1.68,1.68,0,0,0-.49-1.17A1.65,1.65,0,0,0,56,22.43h0c-3.84,0-10.82.9-14.46,6.75a1.66,1.66,0,0,0-.22.83V55.85C45.71,51.21,52.13,50.41,56,50.4A1.65,1.65,0,0,0,57.61,48.76Z"/><path d="M61.36,28.12h-1.2V48.76A4.21,4.21,0,0,1,56,53c-3.25,0-8.6.64-12.4,4.24,6.56-1.61,13.48-.57,17.43.33a1.65,1.65,0,0,0,2-1.6V29.77A1.65,1.65,0,0,0,61.36,28.12Z"/><path d="M19.84,48.76V28.12h-1.2A1.65,1.65,0,0,0,17,29.77V55.93a1.65,1.65,0,0,0,2,1.6c3.95-.9,10.87-1.94,17.43-.34C32.64,53.6,27.29,53,24,53A4.21,4.21,0,0,1,19.84,48.76Z"/></g><path class="cls-6" d="M24,19.43h0a1.66,1.66,0,0,0-1.64,1.64V45.76A1.65,1.65,0,0,0,24,47.4c3.83,0,10.25.81,14.68,5.45V27a1.66,1.66,0,0,0-.22-.83C34.86,20.33,27.88,19.44,24,19.43Z"/><path class="cls-6" d="M57.61,45.76V21.07a1.68,1.68,0,0,0-.49-1.17A1.65,1.65,0,0,0,56,19.43h0c-3.84,0-10.82.9-14.46,6.75a1.66,1.66,0,0,0-.22.83V52.85C45.71,48.21,52.13,47.41,56,47.4A1.65,1.65,0,0,0,57.61,45.76Z"/><path class="cls-6" d="M61.36,25.12h-1.2V45.76A4.21,4.21,0,0,1,56,50c-3.25,0-8.6.64-12.4,4.24,6.56-1.61,13.48-.57,17.43.33a1.65,1.65,0,0,0,2-1.6V26.77A1.65,1.65,0,0,0,61.36,25.12Z"/><path class="cls-6" d="M19.84,45.76V25.12h-1.2A1.65,1.65,0,0,0,17,26.77V52.93a1.65,1.65,0,0,0,2,1.6c3.95-.9,10.87-1.94,17.43-.34C32.64,50.6,27.29,50,24,50A4.21,4.21,0,0,1,19.84,45.76Z"/><path class="cls-3" d="M38.72,55.85a3,3,0,0,1-2.17-.93C32.82,51,27.11,50.41,24,50.4a4.66,4.66,0,0,1-4.65-4.64V21.07A4.64,4.64,0,0,1,24,16.43c4.47,0,12.62,1.08,17,8.17A4.52,4.52,0,0,1,41.72,27V52.85a3,3,0,0,1-1.88,2.78A2.9,2.9,0,0,1,38.72,55.85Z"/><path class="cls-3" d="M41.28,55.85a2.9,2.9,0,0,1-1.12-.22,3,3,0,0,1-1.88-2.78V27A4.61,4.61,0,0,1,39,24.6c4.41-7.09,12.55-8.16,17-8.17a4.64,4.64,0,0,1,4.65,4.64V45.76A4.65,4.65,0,0,1,56,50.4c-3.08,0-8.79.61-12.52,4.52A3,3,0,0,1,41.28,55.85Z"/><path class="cls-3" d="M61.36,57.57a5.17,5.17,0,0,1-1-.11A43.08,43.08,0,0,0,51,56.36a28.34,28.34,0,0,0-6.72.75,2.82,2.82,0,0,1-.71.09A3,3,0,0,1,41.5,52C46.13,47.64,52.54,47,56,47a1.2,1.2,0,0,0,1.2-1.2V25.12a3,3,0,0,1,3-3h1.2A4.65,4.65,0,0,1,66,26.77V52.93a4.62,4.62,0,0,1-1.74,3.63,4.73,4.73,0,0,1-2.9,1Z"/><path class="cls-3" d="M18.64,57.57A4.62,4.62,0,0,1,14,52.93V26.77a4.65,4.65,0,0,1,4.64-4.65h1.2a3,3,0,0,1,3,3V45.76A1.2,1.2,0,0,0,24,47c3.42,0,9.83.68,14.46,5.06a3,3,0,0,1,.57,3.61,3,3,0,0,1-2.63,1.57,2.82,2.82,0,0,1-.71-.09A28.34,28.34,0,0,0,29,56.36a43.08,43.08,0,0,0-9.33,1.1A5.17,5.17,0,0,1,18.64,57.57Z"/><path class="cls-6" d="M24,19.43h0a1.66,1.66,0,0,0-1.64,1.64V45.76A1.65,1.65,0,0,0,24,47.4c3.83,0,10.25.81,14.68,5.45V27a1.66,1.66,0,0,0-.22-.83C34.86,20.33,27.88,19.44,24,19.43Z"/><path class="cls-6" d="M57.61,45.76V21.07a1.68,1.68,0,0,0-.49-1.17A1.65,1.65,0,0,0,56,19.43h0c-3.84,0-10.82.9-14.46,6.75a1.66,1.66,0,0,0-.22.83V52.85C45.71,48.21,52.13,47.41,56,47.4A1.65,1.65,0,0,0,57.61,45.76Z"/><path class="cls-6" d="M61.36,25.12h-1.2V45.76A4.21,4.21,0,0,1,56,50c-3.25,0-8.6.64-12.4,4.24,6.56-1.61,13.48-.57,17.43.33a1.65,1.65,0,0,0,2-1.6V26.77A1.65,1.65,0,0,0,61.36,25.12Z"/><path class="cls-6" d="M19.84,45.76V25.12h-1.2A1.65,1.65,0,0,0,17,26.77V52.93a1.65,1.65,0,0,0,2,1.6c3.95-.9,10.87-1.94,17.43-.34C32.64,50.6,27.29,50,24,50A4.21,4.21,0,0,1,19.84,45.76Z"/></g></g></g></svg>