<svg xmlns="http://www.w3.org/2000/svg" viewBox="0 0 80 89.95"><defs><style>.cls-1{isolation:isolate;}.cls-2{opacity:0.27;mix-blend-mode:multiply;}.cls-3{fill:#bf2121;}.cls-4{fill:#ffb0b0;}.cls-5{mix-blend-mode:overlay;}.cls-6{fill:#fff;}.cls-7{fill:#be2122;}</style></defs><g class="cls-1"><g id="Layer_2" data-name="Layer 2"><g id="Icons_Header"><rect class="cls-2" x="1.05" y="12.05" width="77.9" height="77.9" rx="25.66"/><rect class="cls-3" width="80" height="80" rx="26.01"/><rect class="cls-4" x="5" y="5" width="70" height="70" rx="21.01"/><g class="cls-5"><path d="M60.86,32.08C54.15,21.05,44,28.72,44,28.72a5.16,5.16,0,0,1-2.68.91H38.65a5.3,5.3,0,0,1-2.69-.9s-10.11-7.67-16.82,3.35-4,23-4,23c.47,2.93,2,4.9,5,4.65s9.31-7.92,9.31-7.92a3.64,3.64,0,0,1,2.45-1.14H48.12a3.61,3.61,0,0,1,2.44,1.15s6.38,7.67,9.32,7.92,4.51-1.72,5-4.66C64.86,55.1,67.57,43.1,60.86,32.08Zm-27,9H30.42v3.36a3.29,3.29,0,0,1-1.88.55,2.25,2.25,0,0,1-1.65-.62V41.05H23.6a2.63,2.63,0,0,1-.52-1.52,3.53,3.53,0,0,1,.45-2H27V34a3.77,3.77,0,0,1,1.74-.35,4.59,4.59,0,0,1,1.79.42l0,3.41h3.29a3.32,3.32,0,0,1,.62,1.63A4.07,4.07,0,0,1,33.9,41.05Zm16,3.83a2.76,2.76,0,1,1,2.75-2.76A2.76,2.76,0,0,1,49.87,44.88Zm0-7.58a2.76,2.76,0,1,1,2.75-2.76A2.76,2.76,0,0,1,49.87,37.3Zm6.86,4.07a2.76,2.76,0,1,1,2.75-2.76A2.76,2.76,0,0,1,56.73,41.37Z"/><path d="M19.63,62.78c-3.92,0-6.69-2.66-7.44-7.11C11.91,54.35,9.57,42,16.58,30.52c3.72-6.11,8.46-7.39,11.77-7.39a16.92,16.92,0,0,1,9.43,3.21,2.54,2.54,0,0,0,.88.29h2.69a2.49,2.49,0,0,0,.89-.31,17,17,0,0,1,9.41-3.19c3.32,0,8.06,1.28,11.77,7.39,7,11.44,4.65,23.89,4.39,25.13-.74,4.47-3.52,7.13-7.44,7.13h0l-.74,0C56,62.44,51,57.05,48.31,53.82a1.34,1.34,0,0,0-.27-.13H32a1.31,1.31,0,0,0-.27.12C29,57.05,24,62.45,20.37,62.75Z"/><path d="M60.86,32.08C54.15,21.05,44,28.72,44,28.72a5.16,5.16,0,0,1-2.68.91H38.65a5.3,5.3,0,0,1-2.69-.9s-10.11-7.67-16.82,3.35-4,23-4,23c.47,2.93,2,4.9,5,4.65s9.31-7.92,9.31-7.92a3.64,3.64,0,0,1,2.45-1.14H48.12a3.61,3.61,0,0,1,2.44,1.15s6.38,7.67,9.32,7.92,4.51-1.72,5-4.66C64.86,55.1,67.57,43.1,60.86,32.08Zm-27,9H30.42v3.36a3.29,3.29,0,0,1-1.88.55,2.25,2.25,0,0,1-1.65-.62V41.05H23.6a2.63,2.63,0,0,1-.52-1.52,3.53,3.53,0,0,1,.45-2H27V34a3.77,3.77,0,0,1,1.74-.35,4.59,4.59,0,0,1,1.79.42l0,3.41h3.29a3.32,3.32,0,0,1,.62,1.63A4.07,4.07,0,0,1,33.9,41.05Zm16,3.83a2.76,2.76,0,1,1,2.75-2.76A2.76,2.76,0,0,1,49.87,44.88Zm0-7.58a2.76,2.76,0,1,1,2.75-2.76A2.76,2.76,0,0,1,49.87,37.3Zm6.86,4.07a2.76,2.76,0,1,1,2.75-2.76A2.76,2.76,0,0,1,56.73,41.37Z"/></g><path class="cls-6" d="M60.86,29.08C54.15,18.05,44,25.72,44,25.72a5.16,5.16,0,0,1-2.68.91H38.65a5.3,5.3,0,0,1-2.69-.9s-10.11-7.67-16.82,3.35-4,23-4,23c.47,2.93,2,4.9,5,4.65s9.31-7.92,9.31-7.92a3.64,3.64,0,0,1,2.45-1.14H48.12a3.61,3.61,0,0,1,2.44,1.15s6.38,7.67,9.32,7.92,4.51-1.72,5-4.66C64.86,52.1,67.57,40.1,60.86,29.08Zm-27,9H30.42v3.36a3.29,3.29,0,0,1-1.88.55,2.25,2.25,0,0,1-1.65-.62V38.05H23.6a2.63,2.63,0,0,1-.52-1.52,3.53,3.53,0,0,1,.45-2H27V31a3.77,3.77,0,0,1,1.74-.35,4.59,4.59,0,0,1,1.79.42l0,3.41h3.29a3.32,3.32,0,0,1,.62,1.63A4.07,4.07,0,0,1,33.9,38.05Zm16,3.83a2.76,2.76,0,1,1,2.75-2.76A2.76,2.76,0,0,1,49.87,41.88Zm0-7.58a2.76,2.76,0,1,1,2.75-2.76A2.76,2.76,0,0,1,49.87,34.3Zm6.86,4.07a2.76,2.76,0,1,1,2.75-2.76A2.76,2.76,0,0,1,56.73,38.37Z"/><path class="cls-7" d="M19.63,59.78c-3.92,0-6.69-2.66-7.44-7.11C11.91,51.35,9.57,39,16.58,27.52c3.72-6.11,8.46-7.39,11.77-7.39a16.92,16.92,0,0,1,9.43,3.21,2.54,2.54,0,0,0,.88.29h2.69a2.49,2.49,0,0,0,.89-.31,17,17,0,0,1,9.41-3.19c3.32,0,8.06,1.28,11.77,7.39,7,11.44,4.65,23.89,4.39,25.13-.74,4.47-3.52,7.13-7.44,7.13h0l-.74,0C56,59.44,51,54.05,48.31,50.82a1.34,1.34,0,0,0-.27-.13H32a1.31,1.31,0,0,0-.27.12C29,54.05,24,59.45,20.37,59.75Z"/><path class="cls-6" d="M60.86,29.08C54.15,18.05,44,25.72,44,25.72a5.16,5.16,0,0,1-2.68.91H38.65a5.3,5.3,0,0,1-2.69-.9s-10.11-7.67-16.82,3.35-4,23-4,23c.47,2.93,2,4.9,5,4.65s9.31-7.92,9.31-7.92a3.64,3.64,0,0,1,2.45-1.14H48.12a3.61,3.61,0,0,1,2.44,1.15s6.38,7.67,9.32,7.92,4.51-1.72,5-4.66C64.86,52.1,67.57,40.1,60.86,29.08Zm-27,9H30.42v3.36a3.29,3.29,0,0,1-1.88.55,2.25,2.25,0,0,1-1.65-.62V38.05H23.6a2.63,2.63,0,0,1-.52-1.52,3.53,3.53,0,0,1,.45-2H27V31a3.77,3.77,0,0,1,1.74-.35,4.59,4.59,0,0,1,1.79.42l0,3.41h3.29a3.32,3.32,0,0,1,.62,1.63A4.07,4.07,0,0,1,33.9,38.05Zm16,3.83a2.76,2.76,0,1,1,2.75-2.76A2.76,2.76,0,0,1,49.87,41.88Zm0-7.58a2.76,2.76,0,1,1,2.75-2.76A2.76,2.76,0,0,1,49.87,34.3Zm6.86,4.07a2.76,2.76,0,1,1,2.75-2.76A2.76,2.76,0,0,1,56.73,38.37Z"/></g></g></g></svg>