<svg xmlns="http://www.w3.org/2000/svg" viewBox="0 0 80 89.95"><defs><style>.cls-1{isolation:isolate;}.cls-2{opacity:0.27;mix-blend-mode:multiply;}.cls-3{fill:#0071bc;}.cls-4{fill:#5fddff;}.cls-5{mix-blend-mode:overlay;}.cls-6{fill:#010002;}.cls-7{fill:#fff;}</style></defs><g class="cls-1"><g id="Layer_2" data-name="Layer 2"><g id="Icons_Header"><rect class="cls-2" x="1.05" y="12.05" width="77.9" height="77.9" rx="25.66"/><rect class="cls-3" width="80" height="80" rx="26.01"/><rect class="cls-4" x="5" y="5" width="70" height="70" rx="21.01"/><g class="cls-5"><path d="M61.43,40.49a2.1,2.1,0,0,0-.17-3L41.61,20.29a2.44,2.44,0,0,0-3.19,0L18.7,38.4a2.08,2.08,0,0,0-.09,3l.49.51a2.15,2.15,0,0,0,3,.23l1.47-1.32V60.14a2.14,2.14,0,0,0,2.15,2.14h7.68a2.14,2.14,0,0,0,2.15-2.14V46.62h9.8V60.14a2,2,0,0,0,2,2.14h8.15a2.14,2.14,0,0,0,2.14-2.14v-19l.91.8c.5.44,1.56.09,2.35-.79Z"/><path d="M25.68,65.28a5.15,5.15,0,0,1-5.15-5.14V45.62A5.29,5.29,0,0,1,16.94,44l-.5-.52a5.09,5.09,0,0,1,.23-7.28L36.39,18.12A5.33,5.33,0,0,1,40,16.72,5.41,5.41,0,0,1,43.59,18l19.65,17.2a5.1,5.1,0,0,1,.41,7.27l-.56.62a6.22,6.22,0,0,1-2.48,1.69V60.14a5.14,5.14,0,0,1-5.14,5.14H47.32a5,5,0,0,1-3.55-1.47,5.16,5.16,0,0,1-1.46-3.72V49.62h-3.8V60.14a5.15,5.15,0,0,1-5.15,5.14Z"/><path d="M61.43,40.49a2.1,2.1,0,0,0-.17-3L41.61,20.29a2.44,2.44,0,0,0-3.19,0L18.7,38.4a2.08,2.08,0,0,0-.09,3l.49.51a2.15,2.15,0,0,0,3,.23l1.47-1.32V60.14a2.14,2.14,0,0,0,2.15,2.14h7.68a2.14,2.14,0,0,0,2.15-2.14V46.62h9.8V60.14a2,2,0,0,0,2,2.14h8.15a2.14,2.14,0,0,0,2.14-2.14v-19l.91.8c.5.44,1.56.09,2.35-.79Z"/></g><path class="cls-6" d="M61.43,37.49a2.1,2.1,0,0,0-.17-3L41.61,17.29a2.44,2.44,0,0,0-3.19,0L18.7,35.4a2.08,2.08,0,0,0-.09,3l.49.51a2.15,2.15,0,0,0,3,.23l1.47-1.32V57.14a2.14,2.14,0,0,0,2.15,2.14h7.68a2.14,2.14,0,0,0,2.15-2.14V43.62h9.8V57.14a2,2,0,0,0,2,2.14h8.15a2.14,2.14,0,0,0,2.14-2.14v-19l.91.8c.5.44,1.56.09,2.35-.79Z"/><path class="cls-3" d="M25.68,62.28a5.15,5.15,0,0,1-5.15-5.14V42.62A5.29,5.29,0,0,1,16.94,41l-.5-.52a5.09,5.09,0,0,1,.23-7.28L36.39,15.12A5.33,5.33,0,0,1,40,13.72,5.41,5.41,0,0,1,43.59,15l19.65,17.2a5.1,5.1,0,0,1,.41,7.27l-.56.62a6.22,6.22,0,0,1-2.48,1.69V57.14a5.14,5.14,0,0,1-5.14,5.14H47.32a5,5,0,0,1-3.55-1.47,5.16,5.16,0,0,1-1.46-3.72V46.62h-3.8V57.14a5.15,5.15,0,0,1-5.15,5.14Z"/><path class="cls-7" d="M61.43,37.49a2.1,2.1,0,0,0-.17-3L41.61,17.29a2.44,2.44,0,0,0-3.19,0L18.7,35.4a2.08,2.08,0,0,0-.09,3l.49.51a2.15,2.15,0,0,0,3,.23l1.47-1.32V57.14a2.14,2.14,0,0,0,2.15,2.14h7.68a2.14,2.14,0,0,0,2.15-2.14V43.62h9.8V57.14a2,2,0,0,0,2,2.14h8.15a2.14,2.14,0,0,0,2.14-2.14v-19l.91.8c.5.44,1.56.09,2.35-.79Z"/></g></g></g></svg>