<svg xmlns="http://www.w3.org/2000/svg" viewBox="0 0 75 86"><defs><style>.cls-1{isolation:isolate;}.cls-2{opacity:0.27;mix-blend-mode:multiply;}.cls-3{fill:#fff;}.cls-4{fill:#333;}</style></defs><g class="cls-1"><g id="Layer_2" data-name="Layer 2"><g id="Icons_Header"><g class="cls-2"><path d="M48.64,86H0V6H48.64A26.43,26.43,0,0,1,75,32.36V59.64A26.43,26.43,0,0,1,48.64,86Z"/></g><path class="cls-3" d="M48.64,80H0V0H48.64A26.43,26.43,0,0,1,75,26.36V53.64A26.43,26.43,0,0,1,48.64,80Z"/><path class="cls-4" d="M0,5H49A21,21,0,0,1,70,26V54A21,21,0,0,1,49,75H0a0,0,0,0,1,0,0V5A0,0,0,0,1,0,5Z"/><path class="cls-3" d="M24.49,23.35V46.41A7.59,7.59,0,1,0,27,52.09h0V33.56L49.6,27.83V40.29A7.59,7.59,0,1,0,52.14,46V16.34Z"/><path class="cls-3" d="M24.49,23.35V46.41A7.59,7.59,0,1,0,27,52.09h0V33.56L49.6,27.83V40.29A7.59,7.59,0,1,0,52.14,46V16.34Z"/></g></g></g></svg>