<svg xmlns="http://www.w3.org/2000/svg" viewBox="0 0 98.45 89.95"><defs><style>.cls-1{isolation:isolate;}.cls-2{opacity:0.27;mix-blend-mode:multiply;}.cls-3{fill:#fff;}.cls-4{fill:#cf63fc;}.cls-5{mix-blend-mode:overlay;}.cls-6{fill:#030104;}.cls-7{fill:#6707a5;}</style></defs><g class="cls-1"><g id="Layer_2" data-name="Layer 2"><g id="Grid"><rect class="cls-2" x="1.51" y="12.05" width="95.43" height="77.9" rx="25.66"/><rect class="cls-3" width="98.45" height="80" rx="26.01"/><rect class="cls-4" x="5" y="5" width="88.45" height="70" rx="21.01"/><g class="cls-5"><path d="M74.35,40.1l-21-16.7a3.3,3.3,0,0,0-3.21.13,3.23,3.23,0,0,0-1.57,2.76v9.4L33.06,23.4a3.3,3.3,0,0,0-3.21.13,3.23,3.23,0,0,0-1.57,2.76V59.71a3.21,3.21,0,0,0,1.57,2.76,3.29,3.29,0,0,0,1.73.48,3.22,3.22,0,0,0,1.48-.35L48.54,50.31v9.4a3.21,3.21,0,0,0,1.57,2.76,3.29,3.29,0,0,0,1.73.48,3.25,3.25,0,0,0,1.48-.35l21-16.71c1-1,1.82-1.66,1.82-2.89S75.49,41.11,74.35,40.1Z"/><path d="M51.84,66A6.35,6.35,0,0,1,48.55,65a6.25,6.25,0,0,1-3-5.33V56.52L34.93,65a3,3,0,0,1-.53.34,6.42,6.42,0,0,1-2.82.66A6.35,6.35,0,0,1,28.29,65a6.27,6.27,0,0,1-3-5.33V26.29a6.3,6.3,0,0,1,9.13-5.57,3.24,3.24,0,0,1,.52.33l10.61,8.43V26.29a6.3,6.3,0,0,1,9.13-5.57,3.24,3.24,0,0,1,.52.33l21,16.7.12.11c1.19,1,2.83,2.49,2.83,5.14,0,2.49-1.55,3.94-2.68,5l-.08.08-.19.16L55.19,65a3.67,3.67,0,0,1-.53.34A6.42,6.42,0,0,1,51.84,66Z"/><path d="M74.35,40.1l-21-16.7a3.3,3.3,0,0,0-3.21.13,3.23,3.23,0,0,0-1.57,2.76v9.4L33.06,23.4a3.3,3.3,0,0,0-3.21.13,3.23,3.23,0,0,0-1.57,2.76V59.71a3.21,3.21,0,0,0,1.57,2.76,3.29,3.29,0,0,0,1.73.48,3.22,3.22,0,0,0,1.48-.35L48.54,50.31v9.4a3.21,3.21,0,0,0,1.57,2.76,3.29,3.29,0,0,0,1.73.48,3.25,3.25,0,0,0,1.48-.35l21-16.71c1-1,1.82-1.66,1.82-2.89S75.49,41.11,74.35,40.1Z"/></g><path class="cls-6" d="M74.35,37.1l-21-16.7a3.3,3.3,0,0,0-3.21.13,3.23,3.23,0,0,0-1.57,2.76v9.4L33.06,20.4a3.3,3.3,0,0,0-3.21.13,3.23,3.23,0,0,0-1.57,2.76V56.71a3.21,3.21,0,0,0,1.57,2.76,3.29,3.29,0,0,0,1.73.48,3.22,3.22,0,0,0,1.48-.35L48.54,47.31v9.4a3.21,3.21,0,0,0,1.57,2.76,3.29,3.29,0,0,0,1.73.48,3.25,3.25,0,0,0,1.48-.35l21-16.71c1-1,1.82-1.66,1.82-2.89S75.49,38.11,74.35,37.1Z"/><path class="cls-7" d="M51.84,63A6.35,6.35,0,0,1,48.55,62a6.25,6.25,0,0,1-3-5.33V53.52L34.93,62a3,3,0,0,1-.53.34,6.42,6.42,0,0,1-2.82.66A6.35,6.35,0,0,1,28.29,62a6.27,6.27,0,0,1-3-5.33V23.29a6.3,6.3,0,0,1,9.13-5.57,3.24,3.24,0,0,1,.52.33l10.61,8.43V23.29a6.3,6.3,0,0,1,9.13-5.57,3.24,3.24,0,0,1,.52.33l21,16.7.12.11c1.19,1,2.83,2.49,2.83,5.14,0,2.49-1.55,3.94-2.68,5l-.08.08-.19.16L55.19,62a3.67,3.67,0,0,1-.53.34A6.42,6.42,0,0,1,51.84,63Z"/><path class="cls-3" d="M74.35,37.1l-21-16.7a3.3,3.3,0,0,0-3.21.13,3.23,3.23,0,0,0-1.57,2.76v9.4L33.06,20.4a3.3,3.3,0,0,0-3.21.13,3.23,3.23,0,0,0-1.57,2.76V56.71a3.21,3.21,0,0,0,1.57,2.76,3.29,3.29,0,0,0,1.73.48,3.22,3.22,0,0,0,1.48-.35L48.54,47.31v9.4a3.21,3.21,0,0,0,1.57,2.76,3.29,3.29,0,0,0,1.73.48,3.25,3.25,0,0,0,1.48-.35l21-16.71c1-1,1.82-1.66,1.82-2.89S75.49,38.11,74.35,37.1Z"/></g></g></g></svg>