<svg xmlns="http://www.w3.org/2000/svg" viewBox="0 0 80 89.95"><defs><style>.cls-1{isolation:isolate;}.cls-2{opacity:0.27;mix-blend-mode:multiply;}.cls-3{fill:#fff;}.cls-4{fill:#ea3939;}.cls-5{mix-blend-mode:overlay;}.cls-6{fill:#a81616;}</style></defs><g class="cls-1"><g id="Layer_2" data-name="Layer 2"><g id="Grid"><rect class="cls-2" x="1.05" y="12.05" width="77.9" height="77.9" rx="25.66"/><rect class="cls-3" width="80" height="80" rx="26.01"/><rect class="cls-4" x="5" y="5" width="70" height="70" rx="21.01"/><g class="cls-5"><path id="Undo" d="M39.73,23.05a20.26,20.26,0,0,0-11.36,3.49l-2.92-2.91A2,2,0,0,0,22,25V35a2,2,0,0,0,2,2H34a2,2,0,0,0,2-2,2,2,0,0,0-.58-1.41l-1.24-1.23A12.22,12.22,0,0,1,52,43,12.25,12.25,0,0,1,27.9,46a4,4,0,0,0-7.72,2A20.17,20.17,0,1,0,39.73,23.05Z"/><path d="M39.7,66A23.27,23.27,0,0,1,17.28,48.78a7,7,0,0,1,13.51-3.59A9.19,9.19,0,0,0,39.49,52h.22A9.31,9.31,0,0,0,49,43a9.28,9.28,0,0,0-1-3.94,9.18,9.18,0,0,0-8.22-5c-.27,0-.55,0-.82,0A5,5,0,0,1,34,40H24a5,5,0,0,1-5-5V25a5,5,0,0,1,8.53-3.53l1.26,1.25a23.16,23.16,0,0,1,10.9-2.71h.11A23.16,23.16,0,0,1,62.94,43,23.24,23.24,0,0,1,39.7,66Z"/><path id="Undo-2" data-name="Undo" d="M39.73,23.05a20.26,20.26,0,0,0-11.36,3.49l-2.92-2.91A2,2,0,0,0,22,25V35a2,2,0,0,0,2,2H34a2,2,0,0,0,2-2,2,2,0,0,0-.58-1.41l-1.24-1.23A12.22,12.22,0,0,1,52,43,12.25,12.25,0,0,1,27.9,46a4,4,0,0,0-7.72,2A20.17,20.17,0,1,0,39.73,23.05Z"/></g><path id="Undo-3" data-name="Undo" d="M39.73,20.05a20.26,20.26,0,0,0-11.36,3.49l-2.92-2.91A2,2,0,0,0,22,22V32a2,2,0,0,0,2,2H34a2,2,0,0,0,2-2,2,2,0,0,0-.58-1.41l-1.24-1.23A12.22,12.22,0,0,1,52,40,12.25,12.25,0,0,1,27.9,43a4,4,0,0,0-7.72,2,20.23,20.23,0,0,0,39.76-5A20.09,20.09,0,0,0,39.73,20.05Z"/><path class="cls-6" d="M39.7,63A23.27,23.27,0,0,1,17.28,45.78a7,7,0,0,1,13.51-3.59A9.19,9.19,0,0,0,39.49,49h.22A9.31,9.31,0,0,0,49,40a9.28,9.28,0,0,0-1-3.94,9.18,9.18,0,0,0-8.22-5c-.27,0-.55,0-.82,0A5,5,0,0,1,34,37H24a5,5,0,0,1-5-5V22a5,5,0,0,1,8.53-3.53l1.26,1.25a23.16,23.16,0,0,1,10.9-2.71h.11A23.16,23.16,0,0,1,62.94,40,23.24,23.24,0,0,1,39.7,63Z"/><path id="Undo-4" data-name="Undo" class="cls-3" d="M39.73,20.05a20.26,20.26,0,0,0-11.36,3.49l-2.92-2.91A2,2,0,0,0,22,22V32a2,2,0,0,0,2,2H34a2,2,0,0,0,2-2,2,2,0,0,0-.58-1.41l-1.24-1.23A12.22,12.22,0,0,1,52,40,12.25,12.25,0,0,1,27.9,43a4,4,0,0,0-7.72,2,20.23,20.23,0,0,0,39.76-5A20.09,20.09,0,0,0,39.73,20.05Z"/></g></g></g></svg>