<svg xmlns="http://www.w3.org/2000/svg" viewBox="0 0 34.74 32.43"><defs><style>.cls-1{fill:#52af68;}</style></defs><g id="Layer_2" data-name="Layer 2"><g id="BG"><path class="cls-1" d="M18.54,2.07,15.15,8.33a26.09,26.09,0,0,1,2.91,2.23.94.94,0,0,1,.1,1.3.86.86,0,0,1-1.25.11h0a24.47,24.47,0,0,0-2.63-2L3.62,29.65H25.34a24,24,0,0,0-.23-2.41.93.93,0,0,1,.72-1.08.89.89,0,0,1,1,.74.13.13,0,0,0,0,.06c.12.89.2,1.79.24,2.69h6.29a1.39,1.39,0,0,1,0,2.78H1.34A1.36,1.36,0,0,1,0,31a1.43,1.43,0,0,1,.17-.68L16.21.71A1.3,1.3,0,0,1,18,.18a1.42,1.42,0,0,1,.51,1.89Zm5.81,21.69a.9.9,0,0,0,1.12.61.93.93,0,0,0,.59-1.15,27.87,27.87,0,0,0-1.32-3.58.88.88,0,0,0-1.18-.48.93.93,0,0,0-.46,1.21.17.17,0,0,1,0,.05,24.26,24.26,0,0,1,1.23,3.34ZM20.69,13.24a.87.87,0,0,0-1.25-.05,1,1,0,0,0-.08,1.28,24.43,24.43,0,0,1,2.09,2.84.87.87,0,0,0,1.23.26,1,1,0,0,0,.26-1.28,26.94,26.94,0,0,0-2.25-3Z"/></g></g></svg>