<svg xmlns="http://www.w3.org/2000/svg" xmlns:xlink="http://www.w3.org/1999/xlink" viewBox="0 0 1388.2 827.88"><defs><style>.cls-1,.cls-4{fill:none;}.cls-2{opacity:0.15;}.cls-3{clip-path:url(#clip-path);}.cls-4{stroke:#000;stroke-miterlimit:10;}</style><clipPath id="clip-path" transform="translate(44.76 0.5)"><rect id="Dotted" class="cls-1" width="1339.97" height="826.88" rx="30"/></clipPath></defs><g id="Layer_2" data-name="Layer 2"><g id="BG"><g class="cls-2"><g class="cls-3"><rect class="cls-4" x="44.76" y="0.5" width="1342.94" height="826.88"/><line class="cls-4" y1="697.07" x2="1387.7" y2="697.07"/><line class="cls-4" y1="653.54" x2="1387.7" y2="653.54"/><line class="cls-4" y1="740.51" x2="1387.7" y2="740.51"/><line class="cls-4" y1="783.94" x2="1387.7" y2="783.94"/><line class="cls-4" y1="740.41" x2="1387.7" y2="740.41"/><line class="cls-4" y1="827.38" x2="1387.7" y2="827.38"/><line class="cls-4" y1="610" x2="1387.7" y2="610"/><line class="cls-4" y1="566.46" x2="1387.7" y2="566.46"/><line class="cls-4" y1="522.93" x2="1387.7" y2="522.93"/><line class="cls-4" y1="479.39" x2="1387.7" y2="479.39"/><line class="cls-4" y1="435.86" x2="1387.7" y2="435.86"/><line class="cls-4" y1="392.32" x2="1387.7" y2="392.32"/><line class="cls-4" y1="348.79" x2="1387.7" y2="348.79"/><line class="cls-4" y1="305.25" x2="1387.7" y2="305.25"/><line class="cls-4" y1="261.71" x2="1387.7" y2="261.71"/><line class="cls-4" y1="218.18" x2="1387.7" y2="218.18"/><line class="cls-4" y1="174.64" x2="1387.7" y2="174.64"/><line class="cls-4" y1="131.11" x2="1387.7" y2="131.11"/><line class="cls-4" y1="87.57" x2="1387.7" y2="87.57"/><line class="cls-4" y1="44.04" x2="1387.7" y2="44.04"/><line class="cls-4" x1="1342.94" y1="0.5" x2="1342.94" y2="827.38"/><line class="cls-4" x1="1298.17" y1="0.5" x2="1298.17" y2="827.38"/><line class="cls-4" x1="1253.41" y1="0.5" x2="1253.41" y2="827.38"/><line class="cls-4" x1="1208.64" y1="0.5" x2="1208.64" y2="827.38"/><line class="cls-4" x1="1163.88" y1="0.5" x2="1163.88" y2="827.38"/><line class="cls-4" x1="1119.11" y1="0.5" x2="1119.11" y2="827.38"/><line class="cls-4" x1="1074.35" y1="0.5" x2="1074.35" y2="827.38"/><line class="cls-4" x1="1029.58" y1="0.5" x2="1029.58" y2="827.38"/><line class="cls-4" x1="984.82" y1="0.5" x2="984.82" y2="827.38"/><line class="cls-4" x1="940.05" y1="0.5" x2="940.05" y2="827.38"/><line class="cls-4" x1="895.29" y1="0.5" x2="895.29" y2="827.38"/><line class="cls-4" x1="850.53" y1="0.5" x2="850.53" y2="827.38"/><line class="cls-4" x1="805.76" y1="0.5" x2="805.76" y2="827.38"/><line class="cls-4" x1="761" y1="0.5" x2="761" y2="827.38"/><line class="cls-4" x1="716.23" y1="0.5" x2="716.23" y2="827.38"/><line class="cls-4" x1="671.47" y1="0.5" x2="671.47" y2="827.38"/><line class="cls-4" x1="626.7" y1="0.5" x2="626.7" y2="827.38"/><line class="cls-4" x1="581.94" y1="0.5" x2="581.94" y2="827.38"/><line class="cls-4" x1="537.17" y1="0.5" x2="537.17" y2="827.38"/><line class="cls-4" x1="492.41" y1="0.5" x2="492.41" y2="827.38"/><line class="cls-4" x1="447.65" y1="0.5" x2="447.65" y2="827.38"/><line class="cls-4" x1="402.88" y1="0.5" x2="402.88" y2="827.38"/><line class="cls-4" x1="358.12" y1="0.5" x2="358.12" y2="827.38"/><line class="cls-4" x1="313.35" y1="0.5" x2="313.35" y2="827.38"/><line class="cls-4" x1="268.59" y1="0.5" x2="268.59" y2="827.38"/><line class="cls-4" x1="223.82" y1="0.5" x2="223.82" y2="827.38"/><line class="cls-4" x1="179.06" y1="0.5" x2="179.06" y2="827.38"/><line class="cls-4" x1="134.29" y1="0.5" x2="134.29" y2="827.38"/><line class="cls-4" x1="89.53" y1="0.5" x2="89.53" y2="827.38"/><line class="cls-4" x1="44.76" y1="0.5" x2="44.76" y2="827.38"/></g></g></g></g></svg>