<svg xmlns="http://www.w3.org/2000/svg" viewBox="0 0 46.01 58.56"><defs><style>.cls-1{fill:#fb2b3a;fill-rule:evenodd;}</style></defs><g id="Layer_2" data-name="Layer 2"><g id="Icons_Header"><path class="cls-1" d="M4.18,16.73V52.28a6.28,6.28,0,0,0,6.28,6.28H35.55a6.28,6.28,0,0,0,6.28-6.28V16.73ZM14.64,25.1V50.19a2.09,2.09,0,0,0,4.18,0V25.1a2.09,2.09,0,1,0-4.18,0Zm12.55,0V50.19a2.09,2.09,0,0,0,4.18,0V25.1a2.09,2.09,0,0,0-4.18,0ZM12.55,8.37H2.09a2.09,2.09,0,0,0,0,4.18H43.92a2.09,2.09,0,0,0,0-4.18H33.46V6.27A6.27,6.27,0,0,0,27.19,0H18.82a6.27,6.27,0,0,0-6.27,6.27Zm16.73-2.1v2.1H16.73V6.27a2.1,2.1,0,0,1,2.09-2.09h8.37A2.1,2.1,0,0,1,29.28,6.27Z"/></g></g></svg>