<svg xmlns="http://www.w3.org/2000/svg" viewBox="0 0 18.21 22.26"><defs><style>.cls-1{fill:#dd5858;}</style></defs><g id="Layer_2" data-name="Layer 2"><g id="Icons_Header"><path class="cls-1" d="M2.81,22.26H15.4a2.8,2.8,0,0,0,2.81-2.8V6.31a2.78,2.78,0,0,0-.82-2L13.88.82a2.78,2.78,0,0,0-2-.82H2.81A2.81,2.81,0,0,0,0,2.81V19.46a2.8,2.8,0,0,0,2.81,2.8ZM16.42,4.86l-2.6,0a.48.48,0,0,1-.32-.13.46.46,0,0,1-.13-.31V1.81l3.05,3.05ZM1.06,2.81A1.75,1.75,0,0,1,2.81,1.06H11.9a1.84,1.84,0,0,1,.41.05V4.46A1.52,1.52,0,0,0,13.81,6h0l3.27,0a1.75,1.75,0,0,1,0,.4V19.46A1.75,1.75,0,0,1,15.4,21.2H2.81a1.74,1.74,0,0,1-1.75-1.74V2.81Z"/><path class="cls-1" d="M4.83,10.38h8.54a.53.53,0,1,0,0-1.06H4.83a.53.53,0,0,0,0,1.06Z"/><path class="cls-1" d="M4.83,13.44h8.54a.53.53,0,0,0,0-1.06H4.83a.53.53,0,0,0,0,1.06Z"/><path class="cls-1" d="M4.83,16.5h8.54a.53.53,0,0,0,0-1.06H4.83a.53.53,0,1,0,0,1.06Z"/></g></g></svg>