<svg xmlns="http://www.w3.org/2000/svg" viewBox="0 0 80 89.95"><defs><style>.cls-1{isolation:isolate;}.cls-2{opacity:0.27;mix-blend-mode:multiply;}.cls-3{fill:#fff;}.cls-4{fill:#a2e250;}.cls-5{mix-blend-mode:overlay;}.cls-6{fill:#649b15;}</style></defs><g class="cls-1"><g id="Layer_2" data-name="Layer 2"><g id="Grid"><rect class="cls-2" x="1.05" y="12.05" width="77.9" height="77.9" rx="25.66"/><rect class="cls-3" width="80" height="80" rx="26.01"/><rect class="cls-4" x="5" y="5" width="70" height="70" rx="21.01"/><g class="cls-5"><rect x="36.38" y="32.11" width="7.25" height="30.85" rx="3.62"/><rect x="34.73" y="18.46" width="10.54" height="10.54" rx="5.27"/><path d="M40,66a6.63,6.63,0,0,1-6.62-6.62V35.73a6.62,6.62,0,0,1,13.24,0v23.6A6.63,6.63,0,0,1,40,66Z"/><path d="M40,32a8.27,8.27,0,1,1,8.27-8.27A8.28,8.28,0,0,1,40,32Z"/><rect x="36.38" y="32.11" width="7.25" height="30.85" rx="3.62"/><rect x="34.73" y="18.46" width="10.54" height="10.54" rx="5.27"/></g><rect x="36.38" y="29.11" width="7.25" height="30.85" rx="3.62"/><rect x="34.73" y="15.46" width="10.54" height="10.54" rx="5.27"/><path class="cls-6" d="M40,63a6.63,6.63,0,0,1-6.62-6.62V32.73a6.62,6.62,0,0,1,13.24,0v23.6A6.63,6.63,0,0,1,40,63Z"/><path class="cls-6" d="M40,29a8.27,8.27,0,1,1,8.27-8.27A8.28,8.28,0,0,1,40,29Z"/><rect class="cls-3" x="36.38" y="29.11" width="7.25" height="30.85" rx="3.62"/><rect class="cls-3" x="34.73" y="15.46" width="10.54" height="10.54" rx="5.27"/></g></g></g></svg>