<svg xmlns="http://www.w3.org/2000/svg" viewBox="0 0 56.87 56.53"><defs><style>.cls-1{fill:#e57225;}.cls-2{fill:#f9ae41;}.cls-3{fill:#f98821;}.cls-4{fill:#f23b3b;}.cls-5{fill:#c62222;}.cls-6{fill:#e6e8e8;}.cls-7{fill:#d4d6d6;}.cls-8{fill:#c6c6c6;}.cls-9{fill:#ddd;}.cls-10{fill:#f4cf9d;}.cls-11{fill:#efbf86;}.cls-12{fill:#6b6968;}.cls-13{fill:#51504e;}</style></defs><g id="Layer_2" data-name="Layer 2"><g id="Icons_Header"><rect class="cls-1" x="6.85" y="22.94" width="33.41" height="20.06" transform="translate(-16.41 26.31) rotate(-45)"/><rect class="cls-2" x="11.82" y="34.53" width="33.41" height="6.82" transform="translate(-18.47 31.28) rotate(-45)"/><rect class="cls-3" x="6.99" y="29.7" width="33.41" height="6.82" transform="translate(-16.48 26.46) rotate(-45)"/><path id="SVGCleanerId_0" data-name="SVGCleanerId 0" class="cls-4" d="M50.07,21.33l3.79-3.79A10.27,10.27,0,0,0,39.33,3L35.54,6.8Z"/><path id="SVGCleanerId_0-2" data-name="SVGCleanerId 0" class="cls-4" d="M50.07,21.33l3.79-3.79A10.27,10.27,0,0,0,39.33,3L35.54,6.8Z"/><path class="cls-5" d="M44.3,7.69A11.67,11.67,0,0,1,55.13,4.56,10.27,10.27,0,0,0,39.33,3L35.54,6.8l4.82,4.83Z"/><rect class="cls-6" x="38.4" y="5.43" width="5.54" height="20.55" transform="translate(0.95 33.71) rotate(-45)"/><rect class="cls-7" x="34.48" y="9.34" width="5.54" height="20.55" transform="translate(-2.96 32.09) rotate(-45)"/><polygon class="cls-8" points="36.67 15.28 36.75 15.2 31.94 10.39 28.02 14.31 32.83 19.12 36.67 15.28"/><rect class="cls-9" x="33.54" y="7.44" width="5.54" height="6.8" transform="translate(2.97 28.85) rotate(-45)"/><path class="cls-10" d="M.32,52.37c0-.06,4.31-14.62,4.33-14.68L19.12,52.16,4.19,56.24C2.39,56.77-1.06,57.08.32,52.37Z"/><path class="cls-11" d="M9.43,42.47,4.65,37.69c0,.06-4.32,14.62-4.33,14.68-1.38,4.71,2.07,4.4,3.87,3.87l1.27-.34Z"/><path class="cls-12" d="M4.19,56.24l4.05-1.1L1.49,48.39c0,.06-1.16,3.92-1.17,4C-1.06,57.08,2.39,56.77,4.19,56.24Z"/><path class="cls-13" d="M6.27,53.17,1.49,48.39c0,.06-1.16,3.92-1.17,4-1.38,4.71,2.07,4.4,3.87,3.87l1.27-.34Z"/></g></g></svg>