<svg xmlns="http://www.w3.org/2000/svg" viewBox="0 0 632.35 198.1"><defs><style>.cls-1{isolation:isolate;}.cls-2{opacity:0.27;mix-blend-mode:multiply;}.cls-3{fill:#fff;}.cls-4{font-size:30px;font-family:Raleway-Bold, Raleway;font-weight:700;}</style></defs><g class="cls-1"><g id="Layer_2" data-name="Layer 2"><g id="Layer_3" data-name="Layer 3"><path class="cls-2" d="M527.77,198.1a16.75,16.75,0,0,1-13.63-6.9l-13.93-19a1.64,1.64,0,0,0-1.31-.66H38.62A27.63,27.63,0,0,1,11,144V42.14a27.63,27.63,0,0,1,27.61-27.6H593.73a27.64,27.64,0,0,1,27.61,27.6V144a27.64,27.64,0,0,1-27.61,27.6H557.18a1.64,1.64,0,0,0-1.29.64l-14.67,19.23A16.79,16.79,0,0,1,527.77,198.1Z"/><path d="M538.91,183.12a12.63,12.63,0,0,1-10.28-5.2L514,158a6.77,6.77,0,0,0-5.44-2.75H24a24,24,0,0,1-24-24V24A24,24,0,0,1,24,0H608.34a24,24,0,0,1,24,24V131.2a24,24,0,0,1-24,24H569.86a6.78,6.78,0,0,0-5.36,2.65l-15.45,20.25A12.69,12.69,0,0,1,538.91,183.12Z"/><path class="cls-3" d="M608.34,152.21H569.86a9.77,9.77,0,0,0-7.75,3.83l-15.45,20.25a9.75,9.75,0,0,1-15.61-.15l-14.67-20a9.76,9.76,0,0,0-7.86-4H24a21.07,21.07,0,0,1-21-21V24A21.07,21.07,0,0,1,24,3H608.34a21.07,21.07,0,0,1,21,21V131.2A21.08,21.08,0,0,1,608.34,152.21Z"/><text class="cls-4" transform="translate(22.56 52.66)">Take on advanced situations that require <tspan x="17.27" y="36">deeper thinking, problem-solving, and </tspan><tspan x="149.46" y="72">application of skills.</tspan></text></g></g></g></svg>