<svg xmlns="http://www.w3.org/2000/svg" viewBox="0 0 53 53"><defs><style>.cls-1{fill:#2f383f;stroke:#fff;stroke-miterlimit:10;stroke-width:3px;}.cls-2{fill:#fff;}</style></defs><g id="Layer_2" data-name="Layer 2"><g id="Layer_1-2" data-name="Layer 1"><circle class="cls-1" cx="26.5" cy="26.5" r="25"/><path class="cls-2" d="M22.43,14.29h0a3.42,3.42,0,0,1,3.43-3.43h1.28a3.42,3.42,0,0,1,3.43,3.43h0a3.42,3.42,0,0,1-3.43,3.42H25.86A3.42,3.42,0,0,1,22.43,14.29Zm0,24.42V23a3.42,3.42,0,0,1,3.43-3.43h1.28A3.42,3.42,0,0,1,30.57,23V38.71a3.42,3.42,0,0,1-3.43,3.43H25.86A3.42,3.42,0,0,1,22.43,38.71Z"/></g></g></svg>