<svg xmlns="http://www.w3.org/2000/svg" viewBox="0 0 614.56 198.1"><defs><style>.cls-1{isolation:isolate;}.cls-2{opacity:0.27;mix-blend-mode:multiply;}.cls-3{fill:#fff;}.cls-4{font-size:30px;font-family:Raleway-Bold, Raleway;font-weight:700;}</style></defs><g class="cls-1"><g id="Layer_2" data-name="Layer 2"><g id="Layer_3" data-name="Layer 3"><path class="cls-2" d="M510.44,198.1a16.74,16.74,0,0,1-13.63-6.9l-13.94-19a1.64,1.64,0,0,0-1.3-.66H38.17A27.63,27.63,0,0,1,10.57,144V42.14a27.63,27.63,0,0,1,27.6-27.6H576.39A27.64,27.64,0,0,1,604,42.14V144a27.64,27.64,0,0,1-27.61,27.6H539.84a1.61,1.61,0,0,0-1.28.64l-14.68,19.23A16.78,16.78,0,0,1,510.44,198.1Z"/><path d="M521.13,183.12a12.63,12.63,0,0,1-10.28-5.2l-14.67-20a6.79,6.79,0,0,0-5.44-2.75H24a24,24,0,0,1-24-24V24A24,24,0,0,1,24,0H590.56a24,24,0,0,1,24,24V131.2a24,24,0,0,1-24,24H552.08a6.8,6.8,0,0,0-5.37,2.65l-15.45,20.25A12.66,12.66,0,0,1,521.13,183.12Z"/><path class="cls-3" d="M590.56,152.21H552.08a9.76,9.76,0,0,0-7.75,3.83l-15.45,20.25a9.75,9.75,0,0,1-15.61-.15l-14.67-20a9.76,9.76,0,0,0-7.86-4H24a21.07,21.07,0,0,1-21-21V24A21.07,21.07,0,0,1,24,3H590.56a21.06,21.06,0,0,1,21,21V131.2A21.07,21.07,0,0,1,590.56,152.21Z"/><text class="cls-4" transform="translate(25.01 52.66)">Move to moderately complex scenarios <tspan x="29.43" y="36">that strengthen understanding and </tspan><tspan x="153.7" y="72">boost confdence.</tspan></text></g></g></g></svg>